<?xml version="1.0" encoding="UTF-8"?>
<svg id="Layer_2" xmlns="http://www.w3.org/2000/svg" viewBox="0 0 1727.79 436.33">
  <defs>
    <style>
      .cls-1 {
        fill: #036;
      }

      .cls-2 {
        fill: #0564b8;
      }

      .cls-3 {
        fill: #003265;
      }
    </style>
  </defs>
  <g id="Layer_1-2" data-name="Layer_1">
    <g>
      <path class="cls-2" d="M402.76,430.47v-255.47h201.73v62.04h-131.84v43.43h119.24v58.75h-119.24v91.24h-69.89Z"/>
      <path class="cls-2" d="M926.01,430.46v-255.47h119.23c36.74,0,64.12,9.13,82.13,27.37,14.89,15.09,22.33,35.28,22.33,60.58,0,37.47-17.29,63.62-51.87,78.47l60.16,89.05h-80.69l-50.79-77.37h-30.62v77.37h-69.89.01ZM995.89,297.62h46.11c11.77,0,20.95-2.74,27.56-8.21,6.6-5.47,9.91-13.08,9.91-22.81s-3.31-17.52-9.91-22.62c-6.6-5.11-15.91-7.67-27.92-7.67h-45.75v61.32h0Z"/>
      <path class="cls-2" d="M1297.51,435.21c-36.98,0-65.68-9.73-86.09-29.2-20.42-19.46-30.62-48.66-30.62-87.59v-143.43h70.96v141.97c0,18.01,4.14,31.57,12.43,40.69,8.29,9.13,19.63,13.68,34.04,13.68s25.75-4.38,34.04-13.14c8.29-8.75,12.43-21.89,12.43-39.41v-143.79h70.96v141.6c0,39.9-10.39,69.64-31.16,89.23-20.77,19.59-49.78,29.38-87,29.38h0Z"/>
      <path class="cls-2" d="M1459.78,430.46v-255.47h73.85l60.16,98.9,60.16-98.9h73.85v255.47h-69.52v-146.71l-64.48,100h-1.44l-64.12-99.27v145.98h-68.44Z"/>
      <path class="cls-1" d="M760.24,171.09c-12.89,0-25.34,1.92-37.1,5.44,2.5-.19,5.01-.33,7.55-.33,52.5,0,95.05,43.11,95.05,96.31s-42.56,96.3-95.05,96.3-95.05-43.11-95.05-96.3c0-3.91.26-7.75.7-11.54-4.51,13.42-6.99,27.78-6.99,42.74,0,73.24,58.61,132.62,130.9,132.62s130.9-59.37,130.9-132.62-58.61-132.62-130.9-132.62h0Z"/>
      <path class="cls-2" d="M426.99,80.28h-24.24v-16.37h66.01v16.37h-24.24v64.34h-17.53v-64.34Z"/>
      <path class="cls-2" d="M479.12,63.91h17.53v31.93h32.32v-31.93h17.53v80.71h-17.53v-32.4h-32.32v32.4h-17.53V63.91Z"/>
      <path class="cls-2" d="M564.67,63.91h60.09v15.8h-42.68v16.37h37.56v15.8h-37.56v16.95h43.25v15.8h-60.66V63.91Z"/>
      <path class="cls-2" d="M669.6,132.86l10.35-12.57c7.17,6,14.68,9.8,23.78,9.8,7.17,0,11.5-2.88,11.5-7.61v-.23c0-4.5-2.73-6.8-16.04-10.26-16.04-4.15-26.41-8.65-26.41-24.68v-.23c0-14.65,11.61-24.33,27.89-24.33,11.61,0,21.51,3.69,29.59,10.26l-9.1,13.37c-7.06-4.96-14-7.96-20.72-7.96s-10.25,3.12-10.25,7.03v.23c0,5.31,3.41,7.03,17.19,10.61,16.16,4.27,25.26,10.15,25.26,24.21v.23c0,16.03-12.06,25.02-29.25,25.02-12.06,0-24.24-4.27-33.8-12.91v.02Z"/>
      <path class="cls-2" d="M741.48,104.5v-.23c0-22.95,17.87-41.74,42.45-41.74s42.22,18.56,42.22,41.51v.23c0,22.95-17.87,41.74-42.45,41.74s-42.22-18.56-42.22-41.51ZM807.83,104.5v-.23c0-13.84-10.02-25.36-24.13-25.36s-23.9,11.3-23.9,25.14v.23c0,13.84,10.02,25.37,24.13,25.37s23.9-11.3,23.9-25.14h0Z"/>
      <path class="cls-2" d="M838.92,110.03v-46.12h17.53v45.66c0,13.15,6.49,19.95,17.19,19.95s17.19-6.57,17.19-19.37v-46.23h17.52v45.54c0,24.44-13.54,36.43-34.94,36.43s-34.48-12.11-34.48-35.86h0Z"/>
      <path class="cls-2" d="M942.37,80.28h-24.24v-16.37h66.01v16.37h-24.24v64.34h-17.53v-64.34Z"/>
      <path class="cls-2" d="M994.49,63.91h17.53v31.93h32.32v-31.93h17.53v80.71h-17.53v-32.4h-32.32v32.4h-17.53V63.91Z"/>
      <path class="cls-2" d="M1111.61,104.5v-.23c0-22.95,17.07-41.74,41.54-41.74,15.03,0,24.01,5.07,31.41,12.46l-11.15,13.03c-6.14-5.65-12.4-9.11-20.37-9.11-13.43,0-23.1,11.3-23.1,25.14v.23c0,13.84,9.45,25.37,23.1,25.37,9.1,0,14.68-3.69,20.94-9.46l11.15,11.41c-8.19,8.88-17.3,14.41-32.66,14.41-23.45,0-40.86-18.33-40.86-41.51h0Z"/>
      <path class="cls-2" d="M1224.23,63.33h16.16l34.15,81.29h-18.32l-7.29-18.1h-33.68l-7.29,18.1h-17.87l34.14-81.29ZM1242.67,110.84l-10.58-26.17-10.58,26.17h21.17Z"/>
      <path class="cls-2" d="M1284.44,63.91h36.41c10.13,0,17.99,2.88,23.22,8.19,4.44,4.5,6.83,10.84,6.83,18.45v.23c0,13.03-6.94,21.21-17.07,25.02l19.46,28.83h-20.49l-17.07-25.83h-13.78v25.83h-17.53V63.92h.02ZM1319.71,103.12c8.54,0,13.43-4.62,13.43-11.41v-.23c0-7.61-5.24-11.53-13.78-11.53h-17.41v23.18h17.75Z"/>
      <path class="cls-2" d="M1360.48,104.5v-.23c0-22.95,17.87-41.74,42.45-41.74s42.22,18.56,42.22,41.51v.23c0,22.95-17.87,41.74-42.45,41.74s-42.22-18.56-42.22-41.51ZM1426.83,104.5v-.23c0-13.84-10.02-25.36-24.13-25.36s-23.9,11.3-23.9,25.14v.23c0,13.84,10.02,25.37,24.13,25.37s23.9-11.3,23.9-25.14h0Z"/>
      <path class="cls-2" d="M1459.04,63.91h17.52v64.57h39.72v16.14h-57.24V63.91Z"/>
      <path class="cls-2" d="M1526.89,63.91h17.52v80.71h-17.52V63.91Z"/>
      <path class="cls-2" d="M1562.72,63.91h16.16l37.33,49.7v-49.7h17.3v80.71h-14.91l-38.58-51.31v51.31h-17.3V63.91Z"/>
      <path class="cls-2" d="M1677.49,63.33h16.16l34.14,81.29h-18.32l-7.29-18.1h-33.68l-7.29,18.1h-17.87l34.14-81.29ZM1695.92,110.84l-10.58-26.17-10.58,26.17h21.17Z"/>
      <path class="cls-3" d="M179.62,193.65c-.13-.36-.15-.85-.4-1.04-.44-.35-1.03-.52-1.56-.76-.09.55-.4,1.2-.23,1.66,2.98,7.66,6.06,15.29,9.05,22.94,4.08,10.45,8.11,20.91,12.11,31.39.31.81.27,1.83.14,2.72-.18,1.33-.49,2.68-.95,3.94-.2.56-.86,1.11-1.43,1.3-.73.25-1.59.14-2.35.18-.69-4.01-1.36-7.92-2.05-11.82-1.42-8.05-5.26-15.19-8.46-22.56-1.95-4.5-3.91-8.99-5.9-13.46-.38-.84-.86-1.65-1.43-2.36-.26-.32-.86-.36-1.3-.54-.09.5-.38,1.07-.22,1.48.7,1.94,1.38,3.92,2.35,5.72,1.9,3.56,2.04,7.41,2.07,11.29,0,.56-.6,1.15-1,1.66-2.04,2.59-4.14,5.13-6.12,7.76-.37.49-.3,1.3-.48,2.25,3.47-.15,5.29-2.77,7.82-4.24.13,1.72.28,3.29.33,4.86.27,7.44.49,14.88.77,22.32.15,4.16.39,8.31.62,12.46.07,1.15-.19,1.8-1.29,2.58-1.92,1.36-3.41,3.34-5.17,4.96-1.39,1.29-2.91,2.43-4.41,3.59-.99.76-1,1.5.13,2,.48.21,1.09.38,1.57.27,3.12-.73,6.24-1.55,9.54-2.39.1,2.53.26,5.17.27,7.82,0,.58-.38,1.27-.79,1.72-1.22,1.38-2.42,2.8-3.84,3.96-1.87,1.54-3.96,2.8-5.89,4.26-.68.52-1.19,1.27-1.78,1.91.81.32,1.61.9,2.43.92,1.93.04,3.87-.15,5.81-.33.54-.05,1.05-.41,1.57-.63.02-.21.04-.43.05-.64-1.37-.32-2.74-.65-3.93-.92,2.03-2.16,4.19-4.46,6.53-6.95.17,3.46.38,6.65.47,9.86.08,2.8.02,5.59.02,8.39,0,3.14-1.81,5.33-4.88,5.58-1.44.12-2.93-.26-4.39-.42-.02-.17-.04-.36-.07-.54,2.35-1.27,4.7-2.53,7.06-3.79.34-.17.81-.23,1-.51.39-.54.64-1.18.95-1.77-.6-.02-1.31-.27-1.77-.04-3.7,1.92-7.35,3.92-11.02,5.92-.37.2-.69.49-1.31.92.63.26,1.03.48,1.45.58,1.72.44,3.45.83,5.16,1.28,2.8.74,5.45.79,7.61-1.7.17.05.35.11.51.16,0,3.31.02,6.62-.02,9.93,0,.38-.22.92-.51,1.12-2.58,1.81-5.23,3.51-7.78,5.36-1.17.85-2.28,1.92-1.37,3.89,2.88-1.35,5.72-2.62,8.5-4,.96-.48.78-1.31.13-2.12-.38.13-.76.26-1.62.55,1.01-.92,1.66-1.51,2.52-2.29.07.58.14.98.14,1.36,0,2.96-.06,5.92.04,8.88.05,1.32-.35,2.28-1.32,3.14-1.95,1.73-3.95,3.44-5.71,5.36-2.47,2.68-4.95,5.31-7.9,7.47-1.13.83-1.59,2.04-.47,3.56,5.07-4.96,10.06-9.84,15.04-14.73.13.06.26.13.39.18,0,3.21,0,6.42,0,9.63,0,1.47.24,2.97.07,4.41-.31,2.5-2.49,3.73-4.07,5.27-2.45,2.42-5.73,3.42-8.88,4.57-.25.09-.57.09-.76.24-.6.49-1.14,1.03-1.71,1.56.84.2,1.86.82,2.48.54,4.37-1.93,9.06-3.4,12.14-7.47.19-.24.37-.51.54-.76.14.06.29.13.43.19v6.01c0,2.52-.07,5.05.04,7.56.06,1.57-.43,2.84-1.59,3.75-2,1.58-4.1,3.03-6.15,4.53-.69.51-1.39.99-2.2,1.57,1.01,1.3,2.17,1.04,3.09.43,1.7-1.14,3.26-2.5,4.86-3.79.59-.47,1.12-.99,2.02-1.79,0,1.7-.03,3.04,0,4.37.07,2.74.22,5.47.23,8.21,0,.83-.11,1.92-.61,2.45-2.53,2.7-4.82,5.82-8.89,6.3-.37.05-.8.08-1.08.28-.5.36-1.32.89-1.28,1.28.13,1.1,1.12,1.08,1.9.81,1.61-.58,3.3-1.09,4.75-1.98,1.79-1.08,3.36-2.52,5.11-3.86.03.16.11.39.11.62.04,5.04.1,10.08.08,15.12,0,.53-.37,1.26-.81,1.54-2.37,1.59-4.84,3.04-7.24,4.61-1.1.72-2.1,1.6-3.31,2.53,1.76.67,3.2.25,6.06-1.63,1.7-1.12,3.34-2.36,5.09-3.6.42,4.24.82,8.3,1.23,12.45h-35.83v-12.77c1.17.62,2,.95,2.69,1.46,1.58,1.15,3.04,2.47,4.66,3.53.69.45,1.7.4,2.58.58l.62-.97c-.84-.59-1.66-1.21-2.52-1.77-2.22-1.44-4.48-2.83-6.67-4.32-.44-.3-.97-.92-.96-1.38.15-6.29.38-12.58.62-19.21,3.15,1.98,4.23,6.01,7.78,7.01.16-.11.33-.21.49-.32-.45-.9-.76-1.93-1.39-2.67-1.28-1.48-2.56-3.07-4.15-4.13-2.37-1.57-2.77-3.73-2.6-6.23.21-3.27.47-6.55.72-10.06,1.91,1.32,3.79,2.61,5.66,3.91.44.31.85.68,1.3.99,1.04.71,1.81.58,2.26-.98-2.85-1.88-5.78-3.79-8.66-5.77-.36-.24-.67-.83-.67-1.27-.05-4.14-.03-8.29-.03-12.7,2.72.68,3.97,3.51,6.65,3.11,0-2.18-2.06-3.81-6.03-4.77.45-11.84.9-23.72,1.36-35.73,2.9.95,3.63,5.05,7.36,4.63.19-.91-.39-1.72-1.16-2.37-1.08-.91-2.23-1.73-3.37-2.56-1.36-.99-2.3-2.23-2.72-3.92-.34-1.34.04-2.28,1.17-2.88,1.38-.74,2.85-1.33,4.21-2.08.79-.44,1.58-.99,2.15-1.67,1.25-1.48.79-3.51-1.02-4.15-1.08-.38-2.33-.4-3.49-.36-2.07.07-2.54-.28-2.53-2.32,0-1.51-.29-3.11.09-4.52.4-1.5,1.23-3.01,2.23-4.2,2.03-2.4,4.34-4.56,6.45-6.89.46-.51,1.02-1.53.82-1.93-.31-.58-1.28-1.18-1.93-1.15-2.28.1-4.55.48-6.87.75.13-2.66.27-5.7.49-8.74.03-.42.41-.89.75-1.2,1.67-1.55,3.36-3.09,5.09-4.57,1.16-.99,1.19-1.64-.18-2.28-1.4-.66-2.92-1.08-4.33-1.74-.51-.23-1.23-.91-1.19-1.29.13-1.08.43-2.23.99-3.17,2.41-4.01,4.96-7.94,7.38-11.94.28-.47.11-1.22.14-1.83-.56.06-1.25-.09-1.65.2-1.86,1.29-3.67,2.66-5.43,4.09-.33.26-.34.92-.49,1.39.51.05,1.04.22,1.51.12.6-.14,1.15-.5,1.98-.88-1.28,2.04-2.41,3.85-3.56,5.67-.11,0-.2-.02-.31-.02,0-2.23-.04-4.46,0-6.69.07-3.55.26-7.12.27-10.67,0-1.45.53-2.37,1.76-3.03,1.47-.8,2.91-1.67,4.35-2.52.37-.22.8-.46.99-.81.2-.36.31-.95.14-1.29-.13-.25-.79-.45-1.13-.36-1.86.5-3.69,1.1-5.55,1.67,0-1.89-.06-3.63.04-5.36.02-.47.38-1.01.75-1.36,2.79-2.67,5.6-5.31,8.44-7.93,1.22-1.13,1.27-1.64.03-2.75-2.93,1.79-5.87,3.6-8.84,5.43,0-2.83-.06-5.58.06-8.32.02-.44.69-.94,1.17-1.26,1.82-1.18,3.68-2.28,5.51-3.45.62-.4,1.19-.9,1.79-1.35,0-.2.03-.39.04-.58-.72-.16-1.5-.58-2.16-.43-1.24.28-2.41.9-3.61,1.35-.74.28-1.49.54-2.57.92v-4.19c.02-2.96.04-5.91.05-8.87,0-.33.09-.73-.07-.96-.31-.49-.74-.9-1.12-1.33-.32.42-.87.82-.92,1.27-.33,2.44-.62,4.88-.77,7.33-.46,7.44-2.05,14.68-3.77,21.89-.74,3.11-2.02,6.16-2.34,9.32-.28,2.81.43,5.74.68,8.62.09.97.32,2.01.09,2.91-.36,1.44-2.38,2.15-3.96,1.36-1.22-.61-2.27-1.59-3.57-2.52-3.48,6.55-5.81,14.13-12.84,18.99.1-2.08-.16-4,.33-5.69,2.17-7.36,4.54-14.66,6.89-21.96.68-2.11,1.62-4.15,2.39-6.23.24-.66.44-1.36.48-2.07.03-.5-.09-1.22-.41-1.45-.29-.2-1.09-.03-1.41.26-.97.86-1.89,1.79-2.71,2.8-2.85,3.52-6.14,6.46-10.19,8.48-.32.16-.65.25-1.3.51,1.15-2.13,2.01-4.06,3.15-5.79,6.82-10.27,11.07-21.68,14.47-33.45.62-2.17.88-4.48,1.03-6.74.17-2.79.11-5.59,0-8.39-.02-.56-.6-1.12-.92-1.67-.48.38-1.2.66-1.4,1.16-1.73,4.29-3.22,8.69-5.06,12.92-1.8,4.14-3.88,8.15-5.88,12.19-3.23,6.55-6.49,13.07-9.97,20.08-.54-1.4-1.23-2.52-1.37-3.71-.38-3.14-.47-6.32-.81-9.48-.11-.99-.63-1.94-.96-2.9-.83.62-2.01,1.06-2.4,1.9-1.17,2.5-2.14,5.11-3.02,7.75-4.22,12.74-9.83,24.81-16.86,36.2-.86,1.39-1.51,2.91-2.43,4.26-.44.64-1.3.99-1.97,1.46-.34-.64-.88-1.26-.97-1.93-.3-2.36-.17-4.68,1.05-6.83,2.95-5.21,5.64-10.6,8.89-15.61,1.53-2.36,2.05-4.6,1.86-7.21-.03-.39-.17-.98-.44-1.1-.29-.13-.86.07-1.14.32-3.71,3.17-7.66,6.11-11.03,9.61-3.9,4.07-7.3,8.65-10.91,13.01-.49.58-.9,1.3-1.51,1.69-.62.4-1.45.48-2.19.69-.09-1.01-.6-2.28-.17-2.98,1.06-1.76,2.55-3.25,3.83-4.88,4.85-6.16,9.73-12.31,14.52-18.52.59-.76.93-1.84,1.06-2.81.21-1.71-.87-2.47-2.42-1.67-1.08.55-2.02,1.42-2.93,2.25-4.48,4.04-8.9,8.14-13.4,12.15-.96.86-2.15,1.46-3.28,2.09-.36.2-1.16.3-1.25.16-.23-.41-.4-1.1-.21-1.46.58-1.09,1.19-2.24,2.05-3.09,3.45-3.4,7.02-6.68,10.51-10.04,1.75-1.68,3.42-3.45,5.16-5.19-1.05-1.15-2.14-1.27-3.25-.77-2.07.92-4.04,2.08-6.13,2.92-1.24.5-2.64.73-3.98.8-1.19.06-1.37-.88-.68-1.65,1.38-1.58,2.68-3.44,4.42-4.47,4.65-2.75,9.53-5.1,14.29-7.65,1.58-.85,3.11-1.76,4.6-2.75.49-.33,1.17-1.08,1.08-1.44-.14-.55-.86-1.22-1.41-1.32-1.73-.34-3.51-.44-5.26-.62-1.16-.12-2.34-.22-3.5-.34.17-1.42.3-2.85.55-4.27.05-.29.5-.55.79-.78,3.66-2.9,7.2-5.99,11.05-8.62,2.97-2.04,6.33-3.49,9.54-5.18,1.03-.55,2.09-1.04,3.47-1.72-2.73-1.19-5.05-2.18-7.35-3.2-1.55-.68-1.96-1.43-1.28-3.03.5-1.18,1.2-2.36,2.08-3.28,5.16-5.45,10.49-10.76,15.59-16.27,3.07-3.31,5.94-6.83,8.65-10.43.95-1.26,1.52-3.04,1.65-4.64.19-2.29-1.15-3.08-3.08-1.96-4.15,2.43-8.66,4.49-12.21,7.65-4.48,3.98-8.19,8.86-12.14,13.43-1.72,1.99-3.3,4.06-5.95,4.85-1.08.32-1.77.18-2.36-.94-1.32-2.48-2.79-4.89-4.4-7.68-.85,4.09-1.63,7.74-2.35,11.41-.52,2.67-.87,5.38-1.44,8.03-.5,2.33-1.73,4.25-3.84,5.45-1.74,1-2.85.64-3.87-1.12-.44-.75-.87-1.53-1.43-2.18-1.08-1.25-2.17-1.15-2.69.42-.66,2-1.06,4.1-1.4,6.18-.61,3.71-1.03,7.45-1.65,11.15-.31,1.83-1.31,3.3-3.26,4.14-.95-4.4-1.87-8.69-2.81-12.98-.06-.26,0-.63-.17-.78-.44-.42-.92-.85-1.47-1.04-.14-.05-.74.69-.85,1.14-.86,3.49-1.67,6.99-2.45,10.5-1.12,4.99-2.03,10.03-3.35,14.96-.6,2.2-1.91,4.23-3.08,6.23-.71,1.23-1.91,1.34-3.1.55-.71-.49-1.41-1.02-2.04-1.62-1.12-1.07-1.95-.75-2.49.51-1,2.35-1.89,4.73-2.83,7.1-.41,1.05-.79,2.12-1.62,3.25-.31-.68-.68-1.33-.9-2.05-.75-2.39-1.41-4.8-2.19-7.18-.16-.51-.7-.89-1.07-1.32-.44.43-1.13.78-1.27,1.29-.66,2.57-1.18,5.19-1.75,7.79-.05.2-.1.41-.23,1-1.26-1.9-1.85-3.77-1.88-5.63-.13-6.46-.22-12.93.07-19.39.12-2.54,1.16-5.07,1.96-7.56.64-2.02,1.53-3.96,2.33-5.92.18-.44.38-.92.71-1.25,7.09-6.99,13.92-14.3,21.4-20.83,6.4-5.6,12.78-11.15,18.29-17.66,3.16-3.74,7.46-5.92,11.34-8.67,3.14-2.23,6.41-4.27,9.56-6.49.48-.34.92-1.29.8-1.8-.27-1.11-1.11-.4-1.68-.17-4,1.62-8.14,2.97-11.96,4.96-4.79,2.49-9.36,5.43-13.94,8.31-6.98,4.38-13.82,8.97-20.84,13.28-2.96,1.82-5.97,3.86-9.67,3.84-1.29,0-2.58-.39-3.86-.59-.1-.23-.18-.46-.28-.69.91-.93,1.67-2.12,2.75-2.72,7.22-3.96,13.55-9.18,20.03-14.2.7-.54,1.33-1.22.62-2.02-.25-.28-1.25-.16-1.76.09-7.8,3.76-15.59,7.5-23.31,11.41-2.48,1.26-4.83,2.68-7.73,2.46-.33-.02-.65,0-.97-.05-1.99-.31-2.51-1.48-1.27-3.05.45-.57,1.11-1.06,1.77-1.36,7.32-3.34,14.67-6.62,22.01-9.93,3.84-1.73,7.69-3.44,11.5-5.24,1.15-.55,2.18-1.32,3.27-2.01-.03-.18-.06-.36-.08-.54-.69-.11-1.4-.4-2.07-.29-1.27.19-2.52.54-3.74.94-9.56,3.16-19.1,6.36-28.67,9.52-3.87,1.28-7.92.75-11.89.98-.91.05-2.03-.49-2.77-1.1-1.12-.93-.68-2.21.67-2.61,13.13-3.83,26.25-7.67,39.38-11.52.15-.05.31-.11.44-.19.42-.29.83-.61,1.24-.92-.54-.35-1.11-1.02-1.61-.97-1.27.11-2.51.53-3.76.85-7.69,2.03-15.34,4.2-23.08,6.05-4.55,1.09-9.23,1.63-13.83,2.51-2.8.54-5.55,1.29-8.32,1.89-.78.17-1.61.27-2.39.22-1.85-.11-3-2.16-1.94-3.69.98-1.4,2.17-2.76,3.54-3.77,2.12-1.59,4.39-3.02,6.75-4.21,1.19-.59,2.71-.55,4.1-.68,5.75-.58,11.51-1.12,17.26-1.68,5.96-.59,11.92-1.2,17.88-1.8.27-.03.62,0,.79-.16.38-.36.68-.82,1.02-1.24-.44-.26-.9-.79-1.33-.76-4.15.26-8.31.61-12.45.96-3.55.29-7.09.67-10.65.91-6.42.41-12.84.78-19.27,1.06-1.26.06-2.54-.38-3.81-.58-.03-.23-.06-.47-.09-.7.54-.35,1.04-.88,1.62-1.03,3.36-.91,6.73-1.91,10.14-2.55,6.88-1.3,13.79-2.46,20.73-3.53,6.71-1.03,13.43-2,20.18-2.74,7.25-.8,14.53-1.37,21.79-1.94,6.73-.53,13.47-1.09,20.22-1.33,6.77-.24,13.25,1.3,19.49,3.99,3.1,1.33,6.32,2.43,9.5,3.58,1.28.46,2.63.81,3.59-1.03-2.45-1.14-4.84-2.26-7.23-3.36-3.34-1.54-6.74-2.95-10-4.64-3.18-1.65-6.62-1.81-10.03-2.27-4.54-.61-9.1-1.06-13.64-1.69-2.98-.42-5.95-.95-8.89-1.61-2.41-.54-3.36-1.78-3.56-4.21-.23-2.7-1.63-3.59-4.03-2.42-1.11.55-2.14,1.28-3.11,2.05-2.59,2.05-5.56,2.29-8.61,1.87-1.83-.25-2.56-2.3-1.25-3.76,1.2-1.35,2.79-2.38,4.25-3.48,1.43-1.06,2.97-2,3.64-4.27-.94.16-1.76.11-2.39.43-1,.51-1.97,1.16-2.79,1.93-3.31,3.14-7.24,3.6-11.46,2.93-.67-.11-1.47-.31-1.91-.77-.55-.56-1.15-1.48-1.06-2.15.1-.66.92-1.49,1.61-1.73,1.3-.47,2.73-.56,4.1-.81,1.2-.22,1.83-.88,1.49-2.34-2.06,0-4.14-.05-6.22,0-5.73.17-11.46.41-17.19.57-2.27.07-4.59.35-6.79-.06-2.21-.41-4.33-1.49-6.41-2.43-.4-.18-.85-1.41-.69-1.56.53-.51,1.28-.99,1.98-1.05,1.81-.14,3.63,0,5.45-.03,5.94-.11,11.89-.49,17.82-.27,4.71.18,9.34,1.19,12.93,4.79.52.53,1.16.93,2.12,1.68-.51-2.36-.87-4.29-1.38-6.19-.1-.37-.78-.67-1.25-.83-9.83-3.38-19.69-6.74-29.53-10.09-3.72-1.27-7.47-2.47-11.2-3.73-1.87-.63-3.07-2.54-3.07-5.13.85.13,1.69.14,2.46.38,16.3,5.29,32.59,10.6,48.88,15.91,1.34.44,2.63.99,3.99,1.3.53.12,1.17-.35,1.77-.55-.3-.48-.49-1.16-.91-1.38-8.32-4.5-16.74-8.85-25.01-13.46-2.9-1.62-5.56-3.75-8.18-5.82-.82-.64-1.18-1.89-1.75-2.85.15-.16.31-.31.46-.46,2.63.88,5.41,1.44,7.87,2.67,11.41,5.73,22.75,11.6,34.08,17.49,3.16,1.65,6.17,3.59,9.31,5.3,1.89,1.03,3.89,1.95,6.14,1.24.51-.17,1.23-.57,1.31-.97.08-.42-.43-1.05-.84-1.43-.66-.63-1.48-1.1-2.16-1.72-.52-.47-1.05-1-1.33-1.62-.19-.42-.09-1.1.14-1.52.11-.19.87-.15,1.27-.02,3.59,1.16,7.12,2.47,10.75,3.51,2.61.74,5.34,1.13,8,1.68.09-.16.16-.32.25-.48-.36-.43-.66-.9-1.07-1.28-1.45-1.39-2.89-2.78-4.4-4.11-2.61-2.33-4.31-7.79-2.81-12.12,1.31.85,2.68,1.49,3.76,2.48,3.11,2.88,6.36,5.68,9.05,8.93,2.18,2.65,3.56,5.97,5.44,8.89,1.56,2.41,3.17,4.82,5.07,6.95,3.17,3.57,6.59,6.91,9.88,10.38,1.67,1.76,2.62,2.11,4.36,1.21-1.95-2.04-3.86-4.01-5.76-6-2.34-2.44-4.73-4.83-6.96-7.36-.87-.99-1.5-2.27-2-3.52-5.08-12.63-13.22-23.39-20.55-34.64-2.86-4.38-6.04-8.56-8.63-13.09-.89-1.56-.48-3.9-.58-5.87,0-.16.78-.58,1.01-.48,1.03.47,2.32.85,2.92,1.69,4.94,6.91,9.74,13.93,14.58,20.91.15.22.28.56.49.63.48.19,1.02.23,1.53.35.02-.52.25-1.16.03-1.52-1.98-3.19-4.04-6.34-6.08-9.51-5.14-7.97-10.28-15.94-15.43-23.9-1.78-2.74-3.54-5.49-5.43-8.14-1.68-2.36-2.21-4.93-1.95-7.74.09-.9.42-1.32,1.37-.91,1.55.67,2.9,1.43,3.87,3.01,8.5,13.77,17.07,27.5,25.63,41.24.12.18.22.46.38.51.5.15,1.03.2,1.55.29.02-.47.23-1.05.04-1.39-1.97-3.52-4-7-6.02-10.5-3.47-5.99-6.88-12.01-10.45-17.94-1.77-2.95-1.49-6.12-1.25-9.24.13-1.67,1.56-2.65,3.29-3.23,2.75,4.76,5.51,9.51,8.26,14.27,4.28,7.41,8.57,14.81,12.79,22.25,1.07,1.89,1.83,3.95,2.86,5.86.69,1.28,1.17,1.3,2.67.47-1.38-2.56-2.78-5.12-4.15-7.69-3.67-6.87-7.27-13.77-11.05-20.59-1.81-3.25-1.9-6.77-2.02-10.29-.03-.97.62-1.98.97-2.97.16,0,.33,0,.49,0,.3.48.62.94.89,1.44,7.51,13.47,15.02,26.94,22.52,40.41.6,1.07,1.25,1.88,2.64.69-.76-1.8-1.51-3.64-2.31-5.47-2.85-6.54-5.8-13.04-8.52-19.64-.87-2.13-1.36-4.48-1.67-6.79-.36-2.59-.32-5.24-.16-8,7.88,14.86,15.76,29.71,23.64,44.58.11,0,.21-.03.33-.04.37-4.5.75-9,1.16-13.86.47.59.78.88.96,1.23,3.41,6.45,6.99,12.82,10.15,19.38,1.68,3.5,2.7,7.32,3.97,11.01.51,1.47.92,2.95,3.09,3.37.62-2.49,1.48-4.96,1.84-7.49,1.52-10.59,3.78-21.02,6.58-31.31.77-2.82,1.97-5.54,3.17-8.22,2.04-4.56,4.23-9.05,6.36-13.57.16,0,.32-.02.48-.03.3,1.55.7,3.09.87,4.65.28,2.55.6,5.11.54,7.66-.05,2.05-.42,4.13-.99,6.1-1.6,5.53-3.36,11.02-5.08,16.52-.62,1.95-.45,2.59,1.07,3.18.23-.53.5-1.05.7-1.6,4.22-11.9,8.45-23.8,12.63-35.71,1.27-3.59,2.2-7.32,3.69-10.82,1.27-2.98,3.01-5.78,4.78-8.49.75-1.16,2.11-1.91,3.2-2.85.2.08.4.16.61.23.04.73.19,1.48.1,2.19-.83,5.9-3.36,11.24-5.47,16.72-1.35,3.5-2.74,6.96-4.13,10.44-.87,2.19-.79,2.76.75,3.82.2-.29.45-.56.62-.89,3.15-6.4,6.24-12.84,9.46-19.21,1.3-2.57,2.89-5,4.38-7.47.25-.42.58-.84.97-1.09.4-.26.92-.33,1.39-.49.02.49.19,1.02.04,1.44-1.73,4.65-3.53,9.26-5.27,13.9-1.52,4.07-2.91,8.2-4.5,12.25-.83,2.12-2.01,4.11-2.92,6.2-.53,1.21-.64,2.44.97,3.31.26-.43.54-.81.72-1.23,4.26-9.25,8.37-18.57,12.81-27.74,1.62-3.34,3.99-6.33,6.11-9.41.32-.47,1.36-.93,1.75-.72.6.31,1.28,1.18,1.28,1.8,0,3.12.09,6.29-.44,9.34-.44,2.58-1.39,5.18-2.61,7.48-6.39,11.91-12.95,23.72-19.44,35.58-.18.33-.42.67-.48,1.03-.07.39-.09.95.13,1.17.21.21.88.26,1.14.08.86-.6,1.89-1.19,2.4-2.05,4.46-7.56,8.83-15.15,13.21-22.77,1.27-2.21,2.41-4.5,3.64-6.74.5-.91,1-1.9,2.55-1.27-.32,3.59.26,7.29-1.61,10.76-3.11,5.75-6.04,11.59-9.01,17.41-.57,1.11-1.02,2.29-1.47,3.45-.15.4-.34.93-.19,1.27.28.63.78,1.17,1.19,1.75.46-.35,1.1-.6,1.36-1.06,2.89-5.31,5.72-10.65,8.57-15.99.23-.42.49-.83.79-1.31.15.2.32.32.32.43-.18,4.21-.37,8.4-.6,12.61-.03.49-.14.98-.35,1.43-3.16,7.11-6.19,14.29-9.57,21.29-1.5,3.11-3.83,5.8-5.61,8.78-.93,1.56-1.48,3.34-2.25,5-.47,1.02-.89,2.11-1.58,2.97-4.79,5.93-9.65,11.79-14.48,17.7-.39.47-.68.99-1.3,1.91,3.33-.25,6.22-.93,8.98-.57,2.76.35,5.43,1.64,8.08,2.68,2.64,1.04,5.25,2.22,7.13,4.49-1.94,2.6-5.45,3.5-8.59,2.28-1.11-.43-2.14-1.09-3.28-1.37-.55-.14-1.26.32-1.89.52.36.41.65,1.01,1.11,1.21,1.78.76,3.57,1.6,5.44,2.03,3.43.8,7.62-1.1,9.49-3.99.73-1.13.93-1.89-.61-2.64-3.21-1.56-6.23-3.52-9.47-5.01-5-2.31-6.49-2.46-11.9-2.18,2.26-2.66,4.5-5.17,6.6-7.8,1.96-2.46,3.81-5.03,5.6-7.62,1.03-1.49,2.42-2.32,4.08-2.76,1.1-.29,2.22-.52,3.35-.64,2.56-.3,4.86-1.08,7.04-2.58,8.28-5.68,16.75-11.06,24.9-16.92,3.68-2.64,6.83-6.06,10.12-9.21,4.25-4.06,8.49-8.14,12.57-12.38,1.82-1.89,3.33-4.07,6.04-4.7,2.29-.54,4.61-.99,6.9-1.48l.2.39c-1.31,1.34-2.65,2.66-3.9,4.05-3.38,3.78-7.44,6.63-11.85,9.03-1.37.74-2.69,1.63-3.91,2.59-.96.76-1.15,1.78-.44,2.57,3.72-2.33,7.53-4.32,10.89-6.91,3.68-2.82,6.96-6.18,10.41-9.33.27-.25.59-.6.62-.94.27-2.38,2.24-2.75,3.9-3.52.98-.46,1.94-.95,2.9-1.43,1.04-.53,1.49-.16,1.57.97.13,1.71-.25,3.2-1.42,4.54-2.4,2.75-4.68,5.6-7.1,8.33-2.19,2.46-4.5,4.83-6.78,7.23-1.42,1.5-1.56,2.28-.76,3.28,2.61-2.45,5.31-4.88,7.89-7.43,1.98-1.95,3.75-4.11,5.76-6.02,1-.94,2.27-1.66,3.53-2.24,2.15-.99,4.37-1.85,6.6-2.68.56-.2,1.49-.36,1.78-.07.39.41.58,1.32.43,1.92-.53,2.12-1.3,4.08-3.13,5.56-3.25,2.63-6.36,5.44-9.46,8.27-.6.55-.83,1.5-1.22,2.26.87-.04,1.92.21,2.59-.19,2.49-1.5,4.81-3.3,7.29-4.83,2.15-1.32,4.41-2.48,6.68-3.6.71-.35,1.61-.34,2.55-.52-.09,1.97-1.1,2.97-2.33,3.82-7.51,5.16-15.04,10.29-22.52,15.5-.81.56-1.34,1.54-1.99,2.32,1,.27,2.08.91,3,.74,3.16-.56,6.34-1.2,9.39-2.18,3.83-1.25,7.55-2.86,11.35-4.34.86,1.45-.17,2.03-1,2.49-2.15,1.23-4.4,2.31-6.56,3.53-5.88,3.33-11.77,6.65-17.59,10.11-1.75,1.03-3.28,2.45-4.83,3.79-.32.27-.3.95-.44,1.44.44.13.9.4,1.33.35,2.66-.35,5.31-.9,7.98-1.15,2.34-.22,4.71-.19,7.06-.19.49,0,.97.33,1.46.51.09.19.16.36.25.55-1.48,1.16-2.85,2.53-4.47,3.45-7.27,4.08-14.54,8.19-21.97,11.96-2.64,1.33-5.76,1.68-8.63,2.59-2.31.73-4.61,1.49-6.82,2.48-1.08.49-1.91,1.53-2.85,2.33l.4.72c.88-.24,1.77-.43,2.61-.73,3.3-1.16,6.57-2.42,9.88-3.49.94-.3,2.04-.15,3.06-.16,8.93-.15,17.86-.28,26.79-.44,1.08-.02,2.15-.21,3.24-.21.44,0,.89.3,1.33.46-.36.41-.65,1.08-1.08,1.17-1.62.37-3.3.56-4.95.8-.53.08-1.08.11-1.62.14-1.33.07-2.22.64-2.29,1.74-1.81.56-3.46.96-5.03,1.57-4,1.54-8.18,2.1-12.38,2.11-5.88,0-11.61.86-17.25,2.39-.48.13-.86.64-1.3.97.48.36.91.84,1.44,1.04.41.16,1.01.09,1.42-.1,4.04-1.85,8.37-1.94,12.68-2.16,5.71-.3,11.33-.61,16.86-2.67,2.83-1.05,6.28-.43,9.44-.52.86-.02,1.72.18,2.59.19,7.41.13,14.83.4,22.24.29,3.54-.06,6.63,1.25,9.88,2.13,2.43.66,4.86,1.36,7.62,2.14-4.37-.29-8.42-.55-12.47-.84-7.46-.53-14.92-.57-22.36.18-2.16.21-4.23,1.32-6.39,1.57-2.56.28-5.17.04-7.76.1-.83.02-1.64.29-2.45.7,1.46,1.51,3.25,1.44,4.98,1.62,3.87.4,7.4-1.3,11.09-1.78,5.38-.7,10.89-.72,16.33-.61,6.1.12,12.2.71,18.29,1.02.68.04,1.47-.3,2.08-.69,1.89-1.23,2.92-.88,4.22,1.04,1.78,2.65,1.79,5.66,2.12,8.62.15,1.41.14,2.84.36,4.25.37,2.46-.82,4.05-2.62,5.4-1.74,1.29-3.39,2.7-5.2,3.88-.77.51-1.81.65-2.75.82-1.11.19-2.25.31-3.38.35-7.78.25-15.56.49-23.35.71-1.51.04-2.91-.05-4.19-1.24-.65-.61-1.9-.68-2.89-.78-3.81-.36-7.63-.63-11.45-.92-1.12-.09-2.26-.13-3.14,1.31,5.05,1.53,10.13,1.27,15.45,1.82-1.65.15-3.01.18-4.33.41-.57.1-1.07.59-1.6.92.36.5.6,1.21,1.08,1.46,1.83.98,3.75,1.82,5.61,2.98-3.08-.18-6.18-.2-9.24-.57-5.18-.61-10.35-1.34-15.5-2.22-1.84-.31-3.58-1.18-5.37-1.74-1.13-.35-2.14-.25-2.76,1.2.81.57,1.62,1.17,2.46,1.73,4.29,2.85,8.47,5.9,12.91,8.48,2.72,1.58,5.84,2.46,8.82,3.57,9.86,3.65,19.74,7.27,29.61,10.89,1.21.45,2.49.76,3.6,1.38.57.31.83,1.19,1.22,1.8-.62.34-1.23.96-1.86.99-3.91.17-7.85.59-11.42-1.84-1.01-.69-2.41-.91-3.66-1.05-.65-.08-1.38.47-2.39.86.61.49.84.7,1.1.85,8.33,4.6,16.68,9.19,25.03,13.76.7.38,1.56.48,2.23.9,1.16.72,2.5,1.39,3.3,2.44,1.36,1.78.33,3.81-1.84,3.48-3.37-.52-6.7-1.47-9.97-2.49-1.61-.51-3.04-1.64-4.6-2.37-.62-.28-1.39-.22-2.09-.31.19.79.14,1.81.62,2.31,1,1.04,2.36,1.73,3.44,2.71,1.19,1.07,2.31,2.26,3.35,3.49.37.44.43,1.15.85,2.33-1.93-.36-3.46-.41-4.8-.95-3.76-1.5-7.41-3.25-11.15-4.81-1.82-.76-3.72-1.33-5.91-2.09.11,2.81,2.11,4.46,2.43,7-1.34-.82-2.73-1.55-4.01-2.45-9.8-6.89-18.5-15.14-27.44-23.08-4.46-3.96-9.08-7.76-13.83-11.37-3.27-2.47-6.87-4.5-10.33-6.7-1.26-.8-2.58-1.48-4.18-.19,1.02,1.76,2.06,3.52,3.07,5.29,8.3,14.69,17.78,28.59,27.06,42.64,2.46,3.72,4.7,7.6,6.93,11.47.4.71.29,1.72.41,2.6-.82.02-1.77.31-2.42,0-1.22-.6-2.49-1.37-3.35-2.42-6.13-7.51-12.17-15.1-18.23-22.68-.17-.21-.29-.55-.5-.63-.56-.21-1.15-.33-1.73-.49.02.51-.13,1.11.1,1.49,1.73,2.89,3.55,5.74,5.32,8.6,4.57,7.36,9.13,14.72,13.68,22.1.83,1.34,1.61,2.73,2.33,4.12.56,1.06,1.18,2.13,1.44,3.27.21.95.25,2.62-.23,2.89-1.14.63-2.37-.09-3.2-1.16-1.57-2.03-3.13-4.05-4.65-6.12-4.55-6.18-8.94-12.5-13.69-18.53-1.59-2.02-4.07-3.33-6.14-4.96-.13.11-.26.21-.39.32.13.43.21.87.39,1.27,3.12,7.2,6.21,14.4,9.42,21.56.85,1.88,2.24,3.51,3.05,5.39.71,1.66,1.07,3.49,1.38,5.28.2,1.17-.61,1.36-1.38.72-.79-.64-1.5-1.42-2.08-2.26-2.86-4.17-5.79-8.32-8.47-12.61-1.17-1.89-2.11-4.05-2.63-6.22-.89-3.67-2.79-6.72-4.95-9.68-.89-1.24-1.78-2.47-2.63-3.74-.55-.81-.52-1.5.16-2.35,1.2-1.5,2.3-3.11,3.28-4.77.74-1.26,1.43-2.44,3-2.74,1.07-.2,1.74.17,1.76,1.3.02,1.59-.13,3.17-.11,4.75,0,.79.23,1.57.36,2.36.21.02.42.04.63.07.28-.53.76-1.04.79-1.58.11-1.88.12-3.77.04-5.65-.05-.94.14-1.55,1.01-1.98,1.06-.53,1.75-1.05.19-2.03-.52-.33-.62-1.39-.85-2.15-.19-.67-.11-1.47-.44-2.05-3.11-5.31-4.9-11.09-6.53-17.01-2.21-8.03-6.53-15.19-10.35-22.53-1.91-3.67-3.98-7.27-5.85-10.95-.86-1.68-1.39-3.55-2.18-5.26-.34-.72-1.01-1.29-1.52-1.93-.23.1-.47.19-.7.29.19.99.17,2.09.61,2.97,2.76,5.61,5.6,11.19,8.46,16.75,3.74,7.31,7.98,14.41,10.06,22.46,1.28,4.94,2.67,9.75,5.42,14.1.67,1.06.89,2.44,1.22,3.7.36,1.34-.15,2.5-1.54,2.49-3.3-.01-4.51,2.22-5.57,4.77-.26.62-.66,1.19-1.4,1.74-.12-.59-.35-1.19-.36-1.78-.03-1.81-.03-3.62.07-5.43.13-2.39-.43-4.59-1.69-6.55-5.88-9.2-10.33-19.16-14.9-29.05-1.98-4.29-4.42-8.35-6.72-12.48-.97-1.75-1.67-1.89-3.12-.79.57.89,1.11,1.81,1.71,2.69,3.71,5.36,6.28,11.33,9.11,17.16,3.75,7.68,7.7,15.28,11.81,22.76,1.88,3.42,2.12,6.91,1.86,10.6-.02.33-.19.66-.14.97.39,2.23-.73,3.62-2.49,4.65-1.32-4.66-3.71-8.83-6.18-12.97-2.04-3.41-4.21-6.75-6.16-10.22-.64-1.13-.91-2.53-1.08-3.86-.32-2.48-.29-5.02-.71-7.48-.18-1.09-.94-2.2-1.72-3.05-4.11-4.46-7.23-9.49-9.35-15.2-.6-1.6-1.53-3.22-2.73-4.4-2.91-2.84-6-5.51-9.15-8.07-1.99-1.62-4.39-1.7-6.78-.92-.6.19-1.09.71-1.88,1.26,2.02,1.24,3.83.82,5.52.65,1-.1,1.55.17,2.25.79,2.31,2.06,4.68,4.06,7.06,6.05,1.87,1.57,3.16,3.52,4.09,5.79,1.7,4.15,3.56,8.22,6.44,11.71.59.71,1.15,1.48,1.86,2.05,2.3,1.83,3.23,4.37,3,7.1-.38,4.59,1.2,8.37,3.54,12.13,3.18,5.13,6.08,10.45,9,15.75,1.28,2.33,1.39,4.81-.14,7.12-.27.41-.9.73-1.41.8-1.38.2-2.79.23-4.18.33-.05.22-.09.45-.13.67.43.28.83.62,1.3.82.34.14.76.17,1.13.1,2.8-.55,4.05.95,5.12,3.37,1.61,3.63,3.26,7.19,4.23,11.1.55,2.2,2.05,4.17,3.17,6.21,1.25,2.27,3.2,4.19,3.3,6.99.04,1.09-.11,2.18-.11,3.27,0,.78-.25,1.85.95,1.9,1.32.05,1.03-1.12,1.13-1.93.54-4.12-.87-7.66-3.33-10.8-2.21-2.83-3.12-6.17-4.26-9.47-.89-2.6-2-5.17-3.32-7.58-2.27-4.16-1.28-6.38,1.94-9.1.14.15.34.28.39.45.76,3.01,2.83,5.23,4.49,7.7,1.88,2.82,3.39,5.75,3.71,9.3.1,1.13.86,2.47,1.35,3.71,1.69,4.31,3.49,8.58,4.98,12.96.9,2.66,1.44,5.46,1.87,8.25.12.82-.46,2.05-1.12,2.61-.83.71-1.99.57-2.95-.26-1.23-1.07-2.53-2.05-3.8-3.08-.94-.75-1.58-.61-1.77.66-.21,1.39-.44,2.8-.6,4.2-.12.96-.51,1.29-1.5,1.16-2.03-.26-3.46-1.48-3.92-3.56-.14-.64-.34-1.3-.32-1.94.3-7.58-2.94-14.23-5.36-21.09-.45-1.29-.89-2.57-1.41-3.83-.13-.33-.53-.79-.8-.79-.34,0-.8.35-.98.68-.21.4-.25.94-.25,1.41,0,.43.07.89.25,1.29,2.3,4.93,1.61,10.18,1.52,15.34-.1,5.31-.4,10.61-.62,15.96-1.37.37-2.32-.21-2.81-1.35-.72-1.7-1.22-3.49-1.91-5.19-.26-.63-.64-1.36-1.19-1.71-1.31-.86-2.77-1.47-4.11-2.29-2.03-1.24-3.04-3-3.26-5.5-.17-1.96-1.03-3.87-1.71-5.76-4.99-13.83-10-27.65-15.02-41.47-.45-1.25-.57-2.28.61-3.19.29-.22.31-.8.45-1.21-.5-.08-1.1-.36-1.48-.19-.92.43-1.73,1.1-2.61,1.63-2.24,1.32-3.98.67-4.8-1.81-.33-.97-.49-2.01-.69-3.03-.62-3.09-1.61-3.86-5.03-3.54.96-.86,1.75-1.49,2.44-2.21,1.31-1.36,2.69-2.68,3.8-4.2.82-1.12.61-2.2-.93-2.81-1.8-.72-3.52-1.63-5.62-2.62,1.78-2.55,3.45-4.99,5.17-7.39.79-1.1,1.75-2.09,2.47-3.23.41-.66.76-1.55.7-2.3-.39-4.79-.93-9.54-5.7-12.31-.43-.25-.71-.93-.89-1.47-.6-1.87-1.04-3.78-1.68-5.62-.19-.54-.87-.9-1.33-1.33-.23.62-.78,1.33-.64,1.86.6,2.31,1.29,4.6,2.16,6.81.34.84,1.12,1.68,1.92,2.1,3.63,1.94,5.58,9.98,2.03,13.59-2.81,2.85-4.67,6.64-7.08,10.21,2.02.93,3.69,1.78,5.42,2.48,1.88.77,2.28,1.65.83,3.09-1.72,1.71-3.73,3.13-5.61,4.67-.92.75-1.85,1.5-2.77,2.25.08.18.15.37.23.56,1.74,0,3.5-.11,5.23.03,2.46.19,3.67,1.56,3.81,4.03.22,4.18,3.25,6.1,7.25,4.43,1.26,3.99,2.48,7.99,3.79,11.95,2.78,8.37,5.56,16.74,8.42,25.08,1.61,4.68,1.43,9.49,1.22,14.3-.07,1.41-1.26,1.86-2.41,1.98-1.36.15-1.79-1.04-1.86-2.04-.15-2.01-.02-4.02-.05-6.04,0-.73,0-1.52-.23-2.19-4.39-12.3-8.81-24.6-13.25-36.89-.79-2.2-1.58-4.41-2.45-6.57-.29-.7-.84-1.3-1.35-2.06-1.06,1.14-.78,2.09-.46,3.1,3.01,9.44,6.04,18.87,8.97,28.34,1.58,5.08,3.09,10.2,4.41,15.36.36,1.43.06,3.13-.25,4.63-.41,2.07-1.1,4.1-1.73,6.13-.11.34-.61.87-.8.82-.57-.15-1.3-.41-1.58-.87-1.3-2.12-1.61-4.48-1.33-6.93.07-.61.11-1.32-.11-1.87-4.41-11.33-7.89-22.94-11.09-34.67-.18-.68-.34-1.44-.74-1.98-1.64-2.2-1.14-4.27.19-6.35.82-1.29,1.65-2.57,2.31-3.93.35-.71.32-1.61.45-2.42-.17-.13-.35-.26-.52-.39-.87.63-1.81,1.2-2.61,1.91-.85.76-1.53,1.7-2.35,2.49-1.48,1.41-2.38,1.37-4,.23-2.21-1.54-4.45-3.04-6.75-4.43-1.61-.97-2.4-.57-2.99,1.26l.03-.03h.08ZM162.35,154.85c.1.02.19.04.29.06,0,.46.03.92,0,1.36-.14,1.91-.43,3.81-.42,5.72.02,4.21.3,8.41.26,12.62-.03,2.82-.43,5.65-.62,8.47-.07,1-.37,2.13.84,2.77,1.36.71,6.1-.6,6.8-2.03,1.8-3.67,4.31-7.08,4.19-11.5.23.38.38.73.47,1.09.53,2.18,1.62,2.62,3.36,1.16.76-.64,1.57-1.52,1.81-2.44.39-1.51.35-3.14.44-4.32.87-.49,1.86-.84,2.55-1.5.6-.56.81-1.52,1.25-2.27.89-1.53,1.82-3.04,2.74-4.54,1.36-2.22,2.87-4.35,4.04-6.67.63-1.27.69-2.84,1.02-4.29-1.64-.34-2.21.47-2.52,1.45-.4,1.3-.65,2.65-.99,3.96-.37,1.42-1.07,2.5-2.35,3.38-.92.63-1.61,1.72-2.19,2.74-.62,1.07-.85,2.39-1.52,3.41-.47.73-1.34,1.47-2.13,1.65-1.22.26-1.48-.96-1.8-1.9-1.12-3.27-1-6.66-.92-10.05.02-.84.24-1.99-1.02-2.03-1.35-.05-.84,1.16-.87,1.86-.24,4.78.05,9.47,1.91,14,.52,1.25.42,2.79.41,4.19,0,.42-.67.84-1.04,1.25-.25-.4-.67-.77-.73-1.19-.18-1.3-.19-2.62-.35-3.92-.09-.74-.23-1.52-.54-2.18-.16-.36-.74-.74-1.12-.73-.28,0-.71.6-.78.99-.35,1.93-.75,3.88-.85,5.82-.2,3.9-1.85,7.24-3.6,10.56-.31.58-.94,1.1-1.55,1.39-.72.34-1.57.41-2.36.6-.17-.83-.51-1.67-.48-2.48.13-4.8.63-9.61.47-14.39-.16-4.66-.43-9.27.64-13.86.14-.62.2-1.35.03-1.95-.23-.82-.71-1.56-1.1-2.33l-.7-.02c-1.65,3.24-3.3,6.5-5.14,10.12-.59-1.5-1.05-2.64-1.47-3.79-.32-.88-.74-1.37-1.82-1.5-1.98-.22-3.69-1.16-4.94-2.83-.35-.46-.73-.9-1.2-1.47-.94,2.72-1.81,5.2-2.67,7.68-.16-.04-.32-.08-.48-.12-.35-2.05-1.06-4.11.62-6.06.78-.91,1.46-1.9,2.07-2.92.75-1.26.29-2.11-1.08-2.65-.26.53-.48.95-.69,1.39-.94,1.98-1.91,3.94-3.91,5.09-1.29.73-1.86.44-2.12-1-.21-1.18-.37-2.4-.77-3.51-.15-.44-.92-.64-1.41-.95-.15.49-.51,1-.43,1.44.22,1.34.6,2.66.94,3.97.33,1.26.7,2.5,1.09,3.91.45-.38.65-.56.87-.72,1.56-1.22,2.36-.93,2.79,1.03.18.85.27,1.72.4,2.59.14.96-.4,2.37,1,2.62,1.49.26,1.62-1.3,2.15-2.24.33-.56.54-1.19.79-1.79.46-1.13.92-2.26,1.3-3.17,1.69.49,3.25.84,4.72,1.39.6.22,1.17.82,1.48,1.39.45.85.68,1.82.97,2.76.44,1.42.85,2.86,1.26,4.29.15,0,.31,0,.47.02,1.42-2.94,2.85-5.88,4.27-8.82l.02-.07ZM227.32,223.15c2.56-1.28,4.7-2.3,6.79-3.42.35-.18.45-.83.67-1.26-.49-.17-1.08-.63-1.46-.48-1.14.46-2.21,1.11-3.28,1.74-1.19.7-1.99.33-2.38-.89-.54-1.7-1.03-3.43-1.46-5.16-.58-2.3-1.01-4.82-3.41-5.82-2.62-1.1-3.13-3.17-3.38-5.61-.15-1.44-.43-2.9-.88-4.27-.15-.45-1.01-.92-1.56-.93-1.63-.07-2.29-.55-2.32-2.22-.02-1.03.17-2.07.14-3.11-.03-1.42-.57-2.8-2.05-2.96-1.86-.2-2.59-1.34-3.19-2.81-.61-1.51-1.48-2.57-3.26-2.76-1.15-.12-1.34-.93-.72-1.92.4-.64.89-1.27,1.14-1.97.13-.39-.18-.93-.29-1.4-.45.14-1.07.14-1.31.44-.68.84-1.17,1.84-1.81,2.72-.85,1.16-.49,2.06.52,2.79.75.53,1.62.88,2.38,1.38.61.41,1.5.85,1.66,1.44.61,2.23,2.26,3.36,4.03,4.46,1.41.88,1.69,2.11,1.09,3.68-1.13,2.94-.77,3.46,2.41,3.7.27.02.64-.06.79.09.4.42,1.07.98,1.02,1.41-.55,4.48,1.7,7.54,4.89,10.09,1.1.88,1.49,1.93,1.87,3.23.95,3.26,2.18,6.45,3.36,9.84v-.02ZM213.26,168.39c3.78,7.29,7.49,14.37,11.13,21.48,3.99,7.8,7.8,15.67,9.78,24.31.46,2.01.95,4.04,1.78,5.91.64,1.45,1.78,2.71,2.81,3.95.21.25.99.24,1.36.05.22-.11.23-.83.16-1.25-.06-.35-.31-.7-.55-.99-1.94-2.31-3.04-4.81-3.73-7.91-1.2-5.37-3.14-10.65-5.44-15.66-3.65-7.96-7.84-15.65-11.8-23.46-1.25-2.46-2.47-4.93-3.77-7.51-.61.38-1.06.65-1.74,1.07h.01ZM345.39,142.69c-.04-.19-.07-.39-.11-.57-.9.08-1.83.12-2.72.24-1.8.25-3.58.73-5.39.8-4.96.19-9.93.27-14.9.27-3.23,0-6.36-.64-8.86-2.92-.91-.83-1.73-.96-2.74-.43-2.72,1.45-5.64,1.57-8.64,1.48-3.19-.09-6.38-.03-9.56-.04-1.28,0-1.95.47-1.51,1.96.44.03.86.09,1.29.09,4.33,0,8.65.09,12.98-.03,1.53-.04,3.12-.39,4.54-.97,1.29-.54,2.33-.45,3.45.21.56.33,1.14.61,1.71.93,2.73,1.49,5.52,2.47,8.66,1.31.53-.19,1.17-.1,1.77-.1,5.01-.02,10.02.04,15.03-.07,1.9-.04,3.77-.54,5.02-2.16ZM219.58,110.45c2.26-1.27,4.49-2.46,6.68-3.75,2.4-1.4,3.33-1.3,5.17.76.21.23.52.37.73.6.73.82,1.58,1.57,2.11,2.5.53.93.61,2.1,1.11,3.05.38.7,1.12,1.2,1.9,2.02.68-2.2.27-3.8-.73-5-2.01-2.41-4.28-4.6-6.39-6.91-.65-.72-1.2-.6-1.96-.17-1.92,1.1-3.9,2.11-5.86,3.14-.59.31-1.34.96-1.73,0-.15-.36.39-1.35.84-1.58,1.73-.87,3.51-1.68,5.35-2.24,3.41-1.03,5.67-3.65,8.23-5.85.8-.68,1.06-1.71.47-3.1-1.52,1.38-2.92,2.63-4.3,3.9-2.19,2.01-4.52,3.66-7.61,3.98-1.02.11-2.07.63-2.96,1.2-2.79,1.75-3.2,4.55-1.03,7.44h0ZM345.18,133.21c-.07-.29-.14-.57-.21-.87-13.87-.81-27.85.35-41.61-2.4-.53,1.43-.17,2.25,1.16,2.38,5.32.5,10.62,1.08,15.95,1.37,6.78.36,13.57.47,20.35.68.76.02,1.55.15,2.26-.05.75-.2,1.4-.73,2.11-1.12ZM202.2,124.53c.73.27,1.34.47,1.92.72,2.85,1.27,5.66,2.61,8.54,3.81,4.85,2.02,7.16,9.46,4.98,13.95-.65,1.34-1.05,2.82-1.58,4.27,1.37.27,1.86.03,2.61-1.37,2.89-5.41,1.74-10.56-1.27-15.78-.29-.5-.79-.92-1.27-1.25-4.03-2.8-8.44-4.75-13.31-6.05-.19.53-.38,1.05-.62,1.71h0ZM175.52,264.41l-.19-.23c1.38-1.35,2.82-2.66,4.12-4.08.33-.36.26-1.09.37-1.65-.6.14-1.35.08-1.76.44-2.02,1.72-3.95,3.55-5.91,5.34-1.18,1.08-2.36,2.18-3.53,3.28.05.17.1.34.14.52.87.11,1.86.55,2.58.26,2.69-1.02,5.32-2.25,7.93-3.49.29-.14.33-.81.48-1.23-.43-.12-.91-.41-1.28-.3-1.01.29-1.96.76-2.93,1.15h-.02ZM242.3,114.29c.04.23.09.47.12.7.52.06,1.12.32,1.54.13,1.01-.47,2.02-1.04,2.87-1.75,3.42-2.85,6.53-6.22,11.26-6.89.25-.04.56-.15.72-.33.56-.64,1.07-1.34,1.61-2.02-.14-.13-.3-.25-.44-.38-7.46.87-12,6.64-17.67,10.54h0ZM174.2,246.92c.77-.55,1.37-.95,1.95-1.4.9-.68,1.87-1.3,2.66-2.11.33-.33.24-1.08.34-1.64-.55.1-1.19.04-1.62.32-1.12.73-2.16,1.62-3.24,2.42-1.21.91-2.49,1.72-3.63,2.72-.95.83-1.37,1.93-.7,3.4,2.41-.75,4.82-1.47,7.19-2.28.3-.1.64-.71.6-1.02-.05-.29-.59-.7-.92-.71-.78-.02-1.57.16-2.62.29h0ZM161.28,349.64c-2.27-3.85-6.38-3.18-9.32-4.99-.26,2.42,4.37,4.93,9.32,4.99Z"/>
      <path class="cls-3" d="M179.6,193.67c.42.16.9.23,1.26.49,2.82,2.04,5.67,4.01,8.36,6.19.99.8,1.86,2,2.3,3.21,3.34,9.09,6.61,18.2,9.77,27.36,1.24,3.59,2.22,7.29,3.12,10.99.63,2.53-.6,4.41-2.85,5.95-1.24-2.83-2.55-5.51-3.62-8.28-4.68-12.02-9.26-24.07-13.95-36.08-1.31-3.34-2.9-6.56-4.37-9.84l-.03.03h0Z"/>
      <path class="cls-3" d="M153.58,298.04v-6h6.07c-2.03,2.23-3.85,4.24-5.67,6.24-.13-.08-.27-.17-.39-.24Z"/>
      <path class="cls-3" d="M181.37,280.36c-2.35.26-4.5.5-6.69.74,1.94-2.02,3.94-4.08,6.32-6.55.15,2.35.27,4.18.38,5.8Z"/>
      <path class="cls-3" d="M152.52,312.08c2.15.3,3.95.55,5.76.81.05.17.09.34.13.51-.46.48-.87,1.03-1.38,1.42-.94.71-1.96,1.32-2.95,1.97-.94.61-1.54.46-1.55-.8v-3.9h0Z"/>
      <path class="cls-3" d="M157.76,275c-1.26,1.19-2.25,2.11-3.56,3.35v-4.83c1.15.48,2.24.94,3.56,1.48Z"/>
      <path class="cls-3" d="M178.97,226.8c1.03,3.42-2.45,2.76-3.42,4.24,1.09-1.34,2.17-2.69,3.42-4.24Z"/>
    </g>
  </g>
</svg>