<?xml version="1.0" encoding="UTF-8"?>
<svg id="Layer_2" data-name="Layer 2" xmlns="http://www.w3.org/2000/svg" viewBox="0 0 32 32">
  <defs>
    <style>
      .cls-1 {
        fill: #ffbf3f;
      }

      .cls-2 {
        fill: #8659b5;
      }

      .cls-3 {
        fill: #d9d9d9;
      }
    </style>
  </defs>
  <g id="Layer_1-2" data-name="Layer 1">
    <g>
      <path class="cls-2" d="M31.37,16C31.37,7.51,24.49.63,16,.63c-8.49,0-15.37,6.88-15.37,15.37,0,8.49,6.88,15.37,15.37,15.37v.63h-.21c-8.74-.11-15.79-7.23-15.79-16C0,7.16,7.16,0,16,0c8.84,0,16,7.16,16,16v.21c-.11,8.74-7.23,15.79-16,15.79v-.63c8.49,0,15.37-6.88,15.37-15.37Z"/>
      <path class="cls-3" d="M16,30.54c8.03,0,14.54-6.51,14.54-14.54S24.03,1.46,16,1.46,1.46,7.97,1.46,16s6.51,14.54,14.54,14.54Z"/>
      <path class="cls-2" d="M10.92,9.43h10.17v12.33c0,.57-.09.96-.25.8-.16-.16-.46-.48-.68-.39-.23.09-.38.23-.21.43.17.19.25.33.11.54-.14.21.12.39.12.6s.09.46.02.67c-.07.21-.09.28-.21.21-.11-.07-9.07-8.47-9.07-8.47v-6.71h0Z"/>
      <g>
        <polygon class="cls-1" points="16 2.75 16.36 3.85 17.51 3.85 16.58 4.53 16.93 5.62 16 4.95 15.07 5.62 15.42 4.53 14.49 3.85 15.64 3.85 16 2.75"/>
        <polygon class="cls-1" points="11.15 3.71 11.87 4.61 12.95 4.19 12.32 5.16 13.05 6.05 11.94 5.76 11.31 6.73 11.25 5.58 10.13 5.28 11.21 4.86 11.15 3.71"/>
        <polygon class="cls-1" points="7.04 6.32 8.04 6.89 8.9 6.11 8.66 7.24 9.66 7.81 8.52 7.94 8.29 9.06 7.81 8.01 6.67 8.14 7.52 7.37 7.04 6.32"/>
        <polygon class="cls-1" points="4.1 10.16 5.24 10.33 5.75 9.3 5.94 10.44 7.08 10.61 6.06 11.14 6.25 12.28 5.43 11.47 4.41 12 4.92 10.97 4.1 10.16"/>
        <polygon class="cls-1" points="2.7 14.88 3.82 14.63 3.93 13.48 4.52 14.47 5.64 14.22 4.88 15.09 5.47 16.08 4.41 15.62 3.65 16.49 3.76 15.34 2.7 14.88"/>
        <polygon class="cls-1" points="3.18 19.82 4.14 19.18 3.82 18.07 4.73 18.78 5.68 18.14 5.29 19.22 6.19 19.93 5.04 19.89 4.65 20.97 4.33 19.86 3.18 19.82"/>
        <polygon class="cls-1" points="5.42 24.15 6.08 23.21 5.38 22.29 6.48 22.63 7.14 21.68 7.17 22.83 8.27 23.17 7.18 23.55 7.2 24.7 6.5 23.78 5.42 24.15"/>
        <polygon class="cls-1" points="8.97 27.42 9.25 26.3 8.27 25.69 9.42 25.61 9.69 24.49 10.13 25.55 11.28 25.47 10.4 26.21 10.83 27.28 9.85 26.67 8.97 27.42"/>
        <polygon class="cls-1" points="13.52 29.25 13.37 28.1 12.24 27.89 13.28 27.4 13.13 26.25 13.92 27.09 14.97 26.6 14.41 27.61 15.21 28.45 14.07 28.23 13.52 29.25"/>
        <polygon class="cls-1" points="18.48 29.25 17.93 28.23 16.79 28.45 17.59 27.61 17.03 26.6 18.08 27.09 18.87 26.25 18.72 27.4 19.76 27.89 18.63 28.1 18.48 29.25"/>
        <polygon class="cls-1" points="23.03 27.42 22.15 26.67 21.17 27.28 21.6 26.21 20.72 25.47 21.87 25.55 22.31 24.49 22.58 25.61 23.73 25.69 22.75 26.3 23.03 27.42"/>
        <polygon class="cls-1" points="26.58 24.15 25.5 23.78 24.8 24.7 24.82 23.55 23.73 23.17 24.83 22.83 24.86 21.68 25.52 22.63 26.62 22.29 25.92 23.21 26.58 24.15"/>
        <polygon class="cls-1" points="28.82 19.82 27.67 19.86 27.35 20.97 26.96 19.89 25.81 19.93 26.71 19.22 26.32 18.14 27.27 18.78 28.18 18.07 27.86 19.18 28.82 19.82"/>
        <polygon class="cls-1" points="29.3 14.88 28.24 15.34 28.35 16.49 27.59 15.62 26.53 16.08 27.12 15.09 26.36 14.22 27.48 14.47 28.07 13.48 28.18 14.63 29.3 14.88"/>
        <polygon class="cls-1" points="27.9 10.16 27.08 10.97 27.59 12 26.57 11.47 25.75 12.28 25.94 11.14 24.92 10.61 26.06 10.44 26.25 9.3 26.76 10.33 27.9 10.16"/>
        <polygon class="cls-1" points="24.96 6.32 24.48 7.37 25.33 8.14 24.19 8.01 23.71 9.06 23.48 7.94 22.34 7.81 23.34 7.24 23.1 6.11 23.96 6.89 24.96 6.32"/>
        <polygon class="cls-1" points="20.85 3.71 20.79 4.86 21.87 5.28 20.75 5.58 20.69 6.73 20.06 5.76 18.95 6.05 19.68 5.16 19.05 4.19 20.13 4.61 20.85 3.71"/>
      </g>
    </g>
  </g>
</svg>