<?xml version="1.0" encoding="UTF-8"?>
<svg id="Layer_2" data-name="Layer 2" xmlns="http://www.w3.org/2000/svg" viewBox="0 0 1216.62 346.19">
  <defs>
    <style>
      .cls-1 {
        fill: #ffbf3f;
      }

      .cls-2 {
        fill: #8659b5;
      }

      .cls-3 {
        fill: #d9d9d9;
      }

      .cls-4 {
        fill: #4a8c6f;
      }

      .cls-5 {
        fill: #1a1a1f;
      }
    </style>
  </defs>
  <g id="Layer_1-2" data-name="Layer 1">
    <g id="Layer_1-3" data-name="Layer 1">
      <g>
        <g>
          <g>
            <path class="cls-2" d="M468.71,303.35v-142.33h113.86v34.57h-74.41v24.19h67.3v32.74h-67.3v50.83h-39.45Z"/>
            <path class="cls-2" d="M722.59,284.63c-14.7,14.36-32.97,21.55-54.8,21.55s-40.02-7.15-54.59-21.45c-14.57-14.3-21.85-31.82-21.85-52.56s7.36-38.09,22.06-52.45c14.7-14.37,32.97-21.55,54.8-21.55s40.02,7.15,54.59,21.45c14.57,14.3,21.85,31.82,21.85,52.56s-7.36,38.09-22.06,52.45ZM668.21,270.61c10.7,0,19.41-3.72,26.12-11.19,6.71-7.45,10.07-16.53,10.07-27.25s-3.45-19.62-10.37-27.15c-6.92-7.52-15.65-11.29-26.23-11.29s-19.22,3.72-25.93,11.19c-6.71,7.46-10.07,16.55-10.07,27.25s3.43,19.62,10.27,27.15c6.84,7.53,15.56,11.29,26.12,11.29h.01Z"/>
            <path class="cls-2" d="M764.05,303.35v-142.33h67.3c20.74,0,36.19,5.09,46.35,15.25,8.41,8.41,12.6,19.66,12.6,33.75,0,20.88-9.76,35.45-29.27,43.72l33.96,49.61h-45.55l-28.67-43.11h-17.29v43.11h-39.45.01ZM803.5,229.34h26.03c6.64,0,11.82-1.53,15.56-4.58,3.72-3.05,5.59-7.28,5.59-12.7s-1.87-9.76-5.59-12.6c-3.72-2.84-8.98-4.27-15.75-4.27h-25.82v34.15h-.01Z"/>
            <path class="cls-2" d="M973.73,305.98c-20.88,0-37.08-5.42-48.6-16.26-11.52-10.85-17.29-27.11-17.29-48.79v-79.91h40.06v79.09c0,10.03,2.34,17.58,7.02,22.67,4.67,5.09,11.08,7.63,19.22,7.63s14.54-2.44,19.22-7.32c4.67-4.88,7.02-12.2,7.02-21.96v-80.1h40.06v78.88c0,22.23-5.87,38.8-17.58,49.71-11.73,10.91-28.09,16.36-49.1,16.36h-.03Z"/>
            <path class="cls-2" d="M1065.34,303.35v-142.33h41.68l33.96,55.1,33.96-55.1h41.68v142.33h-39.24v-81.74l-36.4,55.71h-.82l-36.19-55.31v81.33h-38.63Z"/>
          </g>
          <g>
            <path class="cls-5" d="M1149.51,96.87h34.97l.88,3.12h-37.47l1.62-3.12ZM1214.33,129.1c.33,0,.5.25.5.74s-.17.74-.5.74c-1.58,0-4.12-.08-7.62-.25-3.49-.17-6.04-.25-7.62-.25-2.09,0-4.54.08-7.37.25-2.83.17-5.03.25-6.62.25-.33,0-.5-.25-.5-.74s.17-.74.5-.74c2.5,0,4.29-.25,5.38-.74,1.09-.58,1.62-1.5,1.62-2.75s-.7-3.37-2.12-6.37l-26.11-53.08,5.13-8.36-24.74,55.71c-1.09,2.5-1.62,4.74-1.62,6.75,0,2.92,1.03,5.13,3.12,6.63,2.09,1.5,4.99,2.24,8.75,2.24.41,0,.62.25.62.74s-.21.74-.62.74c-1.5,0-3.66-.08-6.49-.25-3.16-.17-5.91-.25-8.25-.25s-4.87.08-7.87.25c-2.67.17-4.87.25-6.62.25-.41,0-.62-.25-.62-.74s.21-.74.62-.74c2.34,0,4.29-.46,5.87-1.37,1.58-.92,3.12-2.54,4.62-4.87,1.5-2.42,3.29-5.95,5.36-10.62l26.86-60.45c.17-.25.55-.37,1.13-.37s.92.12,1,.37l30.6,61.7c2.83,6,5.2,10.12,7.12,12.36,2.01,2.16,4.17,3.25,6.49,3.25h.01Z"/>
            <path class="cls-5" d="M1085.6,131.1c-2.57,0-5.62-.12-9.12-.37-1.25-.08-2.83-.17-4.75-.25-1.91-.08-4.04-.12-6.37-.12l-8.87.12c-1.58.08-3.78.12-6.63.12-.17,0-.25-.25-.25-.74s.08-.74.25-.74c2.83,0,4.87-.21,6.12-.62,1.33-.41,2.24-1.21,2.75-2.38.5-1.25.74-3.12.74-5.62v-57.84c0-2.5-.25-4.33-.74-5.5-.41-1.17-1.29-1.95-2.63-2.38-1.33-.5-3.37-.74-6.12-.74-.17,0-.25-.25-.25-.74s.08-.74.25-.74l6.62.12c3.67.17,6.58.25,8.75.25,3.25,0,6.62-.12,10.12-.37,4.17-.17,6.96-.25,8.37-.25,8.5,0,16.03,1.66,22.61,4.99,6.57,3.33,11.66,7.87,15.24,13.61,3.67,5.75,5.5,12.2,5.5,19.36,0,8.07-1.87,15.24-5.62,21.48-3.74,6.16-8.79,10.95-15.11,14.37-6.33,3.33-13.28,4.99-20.86,4.99ZM1084.36,128.59c5.75,0,10.82-1.37,15.24-4.12,4.5-2.75,7.99-6.78,10.49-12.12,2.5-5.42,3.74-11.87,3.74-19.36s-1.21-13.61-3.62-19.36c-2.34-5.83-5.66-10.41-10-13.74-4.33-3.41-9.37-5.13-15.11-5.13-3.59,0-6.33.21-8.25.62-1.83.41-3.2,1.21-4.13,2.38-.92,1.09-1.37,2.79-1.37,5.13v56.2c0,3.41.88,5.87,2.63,7.37,1.83,1.42,5.29,2.12,10.37,2.12Z"/>
            <path class="cls-5" d="M986.16,96.87h34.97l.88,3.12h-37.47l1.62-3.12ZM1050.98,129.1c.33,0,.5.25.5.74s-.17.74-.5.74c-1.58,0-4.12-.08-7.62-.25-3.49-.17-6.04-.25-7.62-.25-2.09,0-4.54.08-7.37.25-2.83.17-5.03.25-6.63.25-.33,0-.5-.25-.5-.74s.17-.74.5-.74c2.5,0,4.29-.25,5.38-.74,1.09-.58,1.62-1.5,1.62-2.75s-.71-3.37-2.13-6.37l-26.1-53.08,5.12-8.36-24.73,55.71c-1.09,2.5-1.62,4.74-1.62,6.75,0,2.92,1.03,5.13,3.12,6.63,2.08,1.5,4.99,2.24,8.75,2.24.41,0,.62.25.62.74s-.21.74-.62.74c-1.5,0-3.67-.08-6.49-.25-3.16-.17-5.91-.25-8.25-.25s-4.87.08-7.87.25c-2.67.17-4.87.25-6.63.25-.41,0-.62-.25-.62-.74s.21-.74.62-.74c2.34,0,4.29-.46,5.87-1.37,1.58-.92,3.12-2.54,4.62-4.87,1.5-2.42,3.29-5.95,5.36-10.62l26.86-60.45c.17-.25.54-.37,1.13-.37s.92.12,1,.37l30.6,61.7c2.83,6,5.2,10.12,7.12,12.36,1.99,2.16,4.15,3.25,6.49,3.25h.01Z"/>
            <path class="cls-5" d="M980.77,52.52c.25,0,.37.25.37.74s-.12.74-.37.74c-2.92,0-5.62,1.13-8.11,3.37-2.5,2.24-4.54,5.5-6.12,9.75l-24.35,63.33c-.08.33-.55.5-1.37.5s-1.29-.17-1.38-.5l-31.6-67.58c-1.5-3.08-3-5.32-4.5-6.75-1.5-1.42-3.29-2.12-5.38-2.12-.25,0-.37-.25-.37-.74s.12-.74.37-.74l3.25.12c2,.17,4.08.25,6.24.25,5.83,0,11.07-.08,15.73-.25,1.33-.08,3-.12,4.99-.12.25,0,.37.25.37.74s-.12.74-.37.74c-2.5,0-4.41.45-5.75,1.37-1.33.92-1.99,2.24-1.99,4,0,1.5.41,3.08,1.25,4.74l24.11,52.21-5.13,8.62,22.48-58.33c.74-2,1.13-3.78,1.13-5.38,0-2.34-.8-4.12-2.38-5.38-1.5-1.25-3.74-1.87-6.74-1.87-.25,0-.37-.25-.37-.74s.12-.74.37-.74l5.75.12c3.33.17,6.29.25,8.87.25,1.58,0,3.53-.08,5.87-.25l5.13-.12v.03Z"/>
            <path class="cls-5" d="M834.52,130.6c-.25,0-.37-.25-.37-.74s.12-.74.37-.74c2.83,0,4.87-.21,6.12-.62,1.33-.41,2.2-1.21,2.63-2.38.5-1.25.74-3.12.74-5.62v-57.84c0-2.5-.25-4.33-.74-5.5-.41-1.17-1.29-1.95-2.63-2.38-1.33-.5-3.37-.74-6.12-.74-.25,0-.37-.25-.37-.74s.12-.74.37-.74h51.97c.84,0,1.25.37,1.25,1.13l.25,16.24c0,.17-.25.29-.74.37-.41,0-.66-.12-.74-.37-2.01-9.41-7.74-14.11-17.24-14.11h-5.13c-3.08,0-5.24.54-6.49,1.62-1.17,1.09-1.75,2.92-1.75,5.5v57.08c0,2.75.5,4.66,1.5,5.75,1.08,1.09,2.96,1.62,5.62,1.62h6.12c11.15,0,18.24-5.38,21.23-16.12,0-.17.21-.25.62-.25.58,0,.87.12.87.37-.84,6.33-1.25,12.12-1.25,17.37,0,.66-.12,1.17-.37,1.5-.25.25-.74.37-1.5.37h-54.23ZM881.73,102.37c0-7.16-4.66-10.74-13.99-10.74h-17.49v-3.25h17.61c9.16,0,13.74-3.08,13.74-9.24,0-.25.21-.37.62-.37.5,0,.74.12.74.37l-.12,10.86.12,5.87c.17,2.67.25,4.83.25,6.49,0,.17-.25.25-.74.25s-.74-.08-.74-.25h0Z"/>
            <path class="cls-5" d="M753.39,55.39l3.37.25v59.83c0,4.41.84,7.78,2.5,10.12,1.75,2.34,4.29,3.49,7.62,3.49.25,0,.37.25.37.74s-.12.74-.37.74c-2.16,0-3.82-.04-4.99-.12l-6.63-.12-7.37.12c-1.33.08-3.25.12-5.75.12-.25,0-.37-.25-.37-.74s.12-.74.37-.74c3.58,0,6.33-1.17,8.25-3.49,1.99-2.34,3-5.71,3-10.12v-60.08ZM816.85,132.35c0,.25-.21.41-.62.5-.41.08-.7.04-.88-.12l-60.08-69.95c-2.83-3.25-5.32-5.5-7.49-6.75-2.16-1.33-4.29-2-6.37-2-.25,0-.37-.25-.37-.74s.12-.74.37-.74l4.99.12c.99.08,2.5.12,4.5.12l7.99-.12c1-.08,2.17-.12,3.49-.12.66,0,1.17.17,1.5.5.33.33.84,1,1.5,2,1.42,1.91,2.45,3.25,3.12,4l47.33,55.71,1,17.61v-.03ZM816.85,132.35l-3.37-3.74v-60.84c0-4.41-.88-7.78-2.63-10.12-1.66-2.42-4.17-3.62-7.49-3.62-.17,0-.25-.25-.25-.74s.08-.74.25-.74l5.13.12c2.67.17,4.87.25,6.62.25,1.58,0,3.88-.08,6.86-.25l5.25-.12c.25,0,.37.25.37.74s-.12.74-.37.74c-3.33,0-5.91,1.21-7.74,3.62-1.75,2.34-2.63,5.71-2.63,10.12v64.58Z"/>
            <path class="cls-5" d="M645.44,130.6c-.25,0-.37-.25-.37-.74s.12-.74.37-.74c2.83,0,4.87-.21,6.12-.62,1.33-.41,2.2-1.21,2.63-2.38.5-1.25.74-3.12.74-5.62v-57.84c0-2.5-.25-4.33-.74-5.5-.41-1.17-1.29-1.95-2.63-2.38-1.33-.5-3.37-.74-6.12-.74-.25,0-.37-.25-.37-.74s.12-.74.37-.74h51.97c.84,0,1.25.37,1.25,1.13l.25,16.24c0,.17-.25.29-.74.37-.41,0-.66-.12-.74-.37-2.01-9.41-7.74-14.11-17.24-14.11h-5.13c-3.08,0-5.24.54-6.49,1.62-1.17,1.09-1.75,2.92-1.75,5.5v57.08c0,2.75.5,4.66,1.5,5.75,1.08,1.09,2.96,1.62,5.62,1.62h6.12c11.15,0,18.24-5.38,21.23-16.12,0-.17.21-.25.62-.25.58,0,.87.12.87.37-.84,6.33-1.25,12.12-1.25,17.37,0,.66-.12,1.17-.37,1.5-.25.25-.74.37-1.5.37h-54.23ZM692.66,102.37c0-7.16-4.66-10.74-13.99-10.74h-17.49v-3.25h17.61c9.16,0,13.74-3.08,13.74-9.24,0-.25.21-.37.62-.37.5,0,.74.12.74.37l-.12,10.86.12,5.87c.17,2.67.25,4.83.25,6.49,0,.17-.25.25-.74.25s-.74-.08-.74-.25h0Z"/>
            <path class="cls-5" d="M614.12,62.89c0-2.5-.25-4.33-.74-5.5-.5-1.25-1.5-2.12-3-2.63-1.5-.5-3.78-.74-6.87-.74-.25,0-.37-.25-.37-.74s.12-.74.37-.74l6,.12c4,.17,7.54.25,10.62.25,2.24,0,5.28-.08,9.12-.25l6.86-.12c.25,0,.37.25.37.74s-.12.74-.37.74c-3,0-5.2.25-6.62.74-1.42.41-2.38,1.21-2.87,2.38-.49,1.17-.74,3-.74,5.5v57.84c0,2.5.25,4.37.74,5.62.5,1.17,1.46,1.95,2.87,2.38,1.42.41,3.62.62,6.62.62.25,0,.37.25.37.74s-.12.74-.37.74c-2.83,0-5.13-.04-6.86-.12l-9.12-.12-10.62.12c-1.5.08-3.49.12-6,.12-.25,0-.37-.25-.37-.74s.12-.74.37-.74c3.16,0,5.46-.21,6.87-.62,1.5-.41,2.5-1.21,3-2.38.5-1.25.74-3.12.74-5.62v-57.59ZM564.78,88.37h54.72v3.25h-54.72v-3.25ZM559.29,62.64c0-2.5-.25-4.33-.74-5.5-.5-1.17-1.46-1.95-2.87-2.38-1.42-.5-3.58-.74-6.49-.74-.17,0-.25-.25-.25-.74s.08-.74.25-.74l6.62.12c3.84.17,6.83.25,8.99.25,2.92,0,6.37-.08,10.37-.25l6.49-.12c.17,0,.25.25.25.74s-.08.74-.25.74c-3,0-5.25.25-6.75.74-1.42.5-2.42,1.37-3,2.63-.5,1.17-.74,3-.74,5.5v57.59c0,2.5.25,4.37.74,5.62.5,1.17,1.46,1.95,2.87,2.38,1.5.41,3.78.62,6.86.62.17,0,.25.25.25.74s-.08.74-.25.74c-2.83,0-5.03-.04-6.62-.12l-10.24-.12-9.12.12c-1.58.08-3.78.12-6.63.12-.17,0-.25-.25-.25-.74s.08-.74.25-.74c3,0,5.2-.21,6.63-.62,1.42-.41,2.38-1.21,2.87-2.38.5-1.25.74-3.12.74-5.62v-57.84h.01Z"/>
            <path class="cls-5" d="M491.37,55.15c-5.09,0-9.24,1.58-12.49,4.74-3.25,3.08-5.75,7.74-7.49,13.99,0,.25-.25.37-.74.37-.41-.08-.62-.21-.62-.37.33-3.25.7-7.41,1.13-12.49.41-5.17.62-9.03.62-11.62,0-.41.21-.62.62-.62.5,0,.74.21.74.62,0,1.83,2.34,2.75,7,2.75,7.16.25,15.53.37,25.11.37,4.91,0,10.12-.08,15.61-.25l8.5-.12c3.16,0,5.46-.21,6.86-.62,1.5-.41,2.46-1.25,2.87-2.5.08-.33.33-.5.74-.5s.62.17.62.5c-.25,2.58-.5,6.49-.74,11.74-.25,5.24-.37,9.49-.37,12.75,0,.17-.25.25-.74.25-.41,0-.66-.08-.74-.25-.84-6.41-2.79-11.11-5.87-14.11-3.08-3.08-7.25-4.62-12.49-4.62-2.34,0-4.08.21-5.25.62-1.09.41-1.83,1.17-2.24,2.24-.41,1-.62,2.63-.62,4.87v57.59c0,2.5.25,4.37.74,5.62.59,1.17,1.62,1.95,3.12,2.38,1.5.41,3.88.62,7.12.62.25,0,.37.25.37.74s-.12.74-.37.74c-2.92,0-5.2-.04-6.86-.12l-10.24-.12-9.74.12c-1.75.08-4.17.12-7.25.12-.17,0-.25-.25-.25-.74s.08-.74.25-.74c3.25,0,5.62-.21,7.12-.62,1.58-.41,2.63-1.21,3.12-2.38.58-1.25.88-3.12.88-5.62v-57.84c0-2.16-.21-3.74-.62-4.74-.41-1.09-1.17-1.79-2.24-2.12-1.09-.41-2.79-.62-5.12-.62h-.01Z"/>
          </g>
        </g>
        <g id="Layer_1-4" data-name="Layer 1">
          <g>
            <path class="cls-1" d="M367.43,213.16c-.6.04-1.21.08-1.8-.06-.59-.14-1.15-.5-1.4-1.05-.17-.38-.17-.81-.1-1.22.1-.64.36-1.26.83-1.7-.55.06-1.11.07-1.61-.12-.5-.19-.95-.64-1.03-1.18-.08-.6.33-1.18.86-1.47.54-.29,1.17-.3,1.77-.23,3.4.44,5.75,3.93,5.49,7.23-.08,1.12-.39,2.76-1.66,3.09-2.29.61-2.41-3.22-1.36-3.3h0Z"/>
            <path class="cls-1" d="M388.62,265.7c.88.33,1.74.83,2.28,1.61.54.78.67,1.88.14,2.66-.76,1.13-2.41,1.14-3.75.9-.99-.18-1.97-.43-2.93-.75.1,1.22-.92,2.34-2.12,2.63-1.19.3-2.45-.08-3.51-.7.3,1-.7,2.06-1.74,2.04-1.04-.02-1.94-.85-2.3-1.82-.36-.98-.28-2.06-.08-3.09-.73.37-1.58.45-2.4.51-.98.07-2.01.14-2.93-.23-.92-.37-1.68-1.31-1.51-2.29.13-.73.74-1.29,1.43-1.56.69-.27,1.45-.27,2.19-.23-1.13-.66-1.68-2.16-1.25-3.4.43-1.23,1.8-2.07,3.09-1.88-1.16-.61-1.6-2.24-1.01-3.41s2.03-1.8,3.33-1.55c1.29.25,2.35,1.29,2.78,2.53.37-1.5,2.17-2.19,3.72-2.15.86.02,1.75.23,2.42.77,1.28,1.06,1.31,3.01.94,4.62-.18.76-1.63,3.31-1.16,3.99.42.61,3.47.41,4.38.75v.03Z"/>
            <path class="cls-1" d="M418.49,217.93c1.35-1.17,3.14-1.71,4.92-1.93,1.56-.19,3.41-.02,4.26,1.3.53.83.5,1.91.33,2.88-.16.92-.44,1.83-.81,2.7.98,0,1.96.42,2.58,1.17.62.75.87,1.82.56,2.74-.42,1.27-1.79,2.05-3.13,2.09-1.34.03-2.61-.55-3.71-1.31-.08.78-.64,1.47-1.35,1.81-.71.34-1.55.34-2.3.09-.51-.17-1.01-.46-1.31-.91-.39-.57-.42-1.33-.24-1.99.18-.66.53-1.27.88-1.87-1.15.28-2.39.29-3.48-.16-1.09-.45-2.01-1.4-2.22-2.56-1.5,1.26-3.74,1.25-5.56.54-.55-.22-1.1-.51-1.41-1.03-.38-.62-.3-1.41-.1-2.11.5-1.82,1.84-3.49,3.67-3.94-.92-.49-1.74-1.23-2.14-2.2-.39-.97-.26-2.18.49-2.91.89-.86,2.31-.81,3.52-.54,1.9.43,3.84,1.4,4.69,3.15.75,1.53.51,3.35.08,5h1.78Z"/>
            <path class="cls-4" d="M377.6,185.9c.63.56,1.18,1.21,1.62,1.92.35.56.64,1.15.92,1.74.5,1.02.93,2.06,1.43,3.08.34-1.87,1.01-3.61,1.75-5.36.66.61,1.24,1.28,1.71,2.05.74-2,1.47-4.01,2.21-6.01.71-1.94,1.45-3.92,2.71-5.55l4.98-4.85-1.35,6.12s-3.04,2.95-4.6,8.76l1.87-.14-.73,2.37s12.28-7.98,19.59-8.72c-.5,2.97-18.09,12.18-18.09,12.18,0,0,10.92-5.56,16.99-4.64,0,0-7.43,11.1-21.82,11.01,0,0-4.33,3.35-8.94,24.83,0,0,1.71.57,3.74-1.81,2.03-2.38,6.57-13.37,19.95-12.7,0,0-.9,11.86-18.14,16.66-6.51,2.56-8.83,11.25-8.83,11.25,0,0,7.36-10.8,19.5-9.68,0,0-3.26,8.15-17.9,13.63-9.47,4.5-14.11,11.35-16.84,14.64-2.74,3.29-16.91,18.31-16.91,18.31,0,0,5.18,1.46,11.88-.29.17,1.56-3.03,3.39-3.03,3.39,0,0,3.05-.3,5.88.98-2.08,3.67-4.92,4.51-4.92,4.51,0,0,2.1.72,2.61,2.41-9.11-2.67-21.02.69-21.02.69,0,0-2.06-.21-6.93,3.54-4.87,3.74-13.2,11.05-13.2,11.05,0,0,29.52-3.53,44.59-16.37,0,0,1.92-5.89,2.14-14,1.81-10.83,5.3-12.45,5.3-12.45,0,0,2.08,3.1-.39,11.83-2.45,8.72-3.05,12.7-3.05,12.7,0,0,1.24.59,3.43-3.15,2.19-3.74,3.62-7.58,6.32-9.17,2.69-1.59,10.02-7.13,10.02-7.13,0,0,1.66-2.13,1.68-6.09.02-3.97,1.87-15,3.56-16.05,4,3.2.22,15.94.22,15.94,0,0,11.47-10.46,13.23-16.9-4.1-8.5-2.06-14.29-2.06-14.29l2.23,3.06,1.76-10.62s4.56,5.07,4.14,15.52c1.36-2.01,2.49-4.26,3.85-6.27,1.03-1.53,2.07-3.08,2.64-4.84,1.66-5.14-1.03-10.56-1.63-15.93-.35-3.19.02-6.56,1.16-9.56,3.17,3.45,5.01,8.14,4.99,12.83,2.45-3.97,4.26-8.32,5.24-12.88,1.19.09,2.19.6,3.14,1.3-.12,1.12-.58,2.17-1.04,3.19-1.81,4.04-3.29,8.39-5.09,12.44,1.67-1.13,3.34-2.26,5.01-3.4.81-.55,1.61-1.09,2.5-1.47,2.73-1.17,5.9-.62,8.83-.09-1.54,3.83-5.87,5.6-9.81,6.85-3.93,1.25-8.3,2.71-10.25,6.34,2.54,2.8,3.59,6.87,2.73,10.56-2.09-1.52-3.73-3.63-4.71-6.02.32.95-.34,1.92-.96,2.71-1.78,2.24-2.97,4.45-4.82,6.63,5.01-1.14,10.26-.76,15.22.59-4.34,3.11-9.65,4.87-14.99,4.95-1.14.02-2.34-.02-3.37.46-1.06.5-1.79,1.5-2.46,2.45-3.21,4.61-6.19,9.69-10.54,13.25,4.59.39,9.03-1.61,13.04-3.88,4.01-2.27,7.94-4.88,12.45-5.87,2.59-.57,5.2-.71,7.86-.69-2.43,2.88-5.79,4.79-9.08,6.64-6.21,3.49-12.74,7.08-19.86,7.32-1.71.06-3.5-.06-5.03.7,4.07,2.01,9.16-.02,13.41,1.59-2.3,2.07-5.75,2.14-8.82,1.75-3.07-.39-6.24-1.12-9.2-.24-1.22.36-2.34.98-3.46,1.59-2.88,1.58-5.77,3.17-8.33,5.21-2.56,2.04-4.81,4.59-6.03,7.63.67.46,1.61.34,2.33-.06.71-.39,1.29-1,1.9-1.54,3.26-2.85,7.88-3.58,12.21-3.4,4.33.18,8.61,1.12,12.93,1.1-3.62,2.75-8.48,3.05-13.02,3.33-4.54.28-9.43.8-12.82,3.84,6-2.32,12.94-1.32,19.28-.21-2.28,2.35-5.79,3.04-9.07,3.01-3.28-.03-6.54-.67-9.81-.46-5.41.34-10.39,2.93-15.18,5.47-2.61,1.39-4.72,2.58-7.34,3.97,5.29.31,10.65-.5,15.61-2.37,2.38-.89,4.69-2.03,7.18-2.53,4.07-.81,8.29.16,12.19,1.58-1.95,1.77-4.45,2.93-7.05,3.28,1.42.54,2.69,1.49,3.61,2.7-2.29,1.68-5.17,2.54-8,2.38,2.09.83,3.81,2.08,5.61,3.42-5.81,1.52-11.73-1.34-17.56-2.78-1.63-.4-3.29-.7-4.94-.96-3.73-.6-7.51-1.05-11.29-.77-3.77.28-7.4.95-10.48,3.13,3.4.98,6.8,1.96,10.21,2.88,2.81.76,5.66,1.48,8.57,1.42,2.43-.05,4.82-.64,7.24-.78,2.42-.14,5.03.23,6.87,1.82-1.01,1.08-2.17,2.02-3.44,2.77,2.87.64,5.56,2.06,7.71,4.08l-5.41,1.85c2.81,1.81,5.71,3.45,8.75,4.83-2.5,1.27-5.42,1.55-8.21,1.21-2.79-.34-5.47-1.24-8.1-2.24-5.72-2.19-11.27-4.83-16.57-7.91-2.31-1.34-4.59-2.77-7.05-3.82-4.64-1.97-9.74-2.49-14.76-2.99-1.01-.1-1.76-.06-2.67.39,15.52,4.34,29.57,13.8,39.42,26.56-1.66-.02-3.33-.02-5-.04,2.59,2.88,5.01,5.89,7.27,9.04-3.25-.66-6.5-1.31-9.75-1.97.39,2.33.92,4.73,1.31,7.06-5.34-1.99-8.76-7.2-11.15-12.39-2.39-5.19-4.19-10.78-7.92-15.09-3.16-3.65-7.5-6.11-12.05-7.72-4.56-1.61-9.34-2.39-14.1-3.15-2.82-.45-5.39-.93-7.91.4,5.48,1.15,10.66,3.39,15.79,5.61,3.44,1.49,6.9,2.99,10.04,5.03,3.14,2.04,5.98,4.67,7.76,7.98-1.66-.42-3.36-.67-5.07-.74,3.29,2.58,5.51,6.49,6.03,10.63-4.14-.98-8.08-2.84-11.46-5.43,1.01,2.5,1.65,5.15,1.87,7.84-2.28-.82-4.34-2.23-5.94-4.04-1.94-2.2-3.17-4.92-4.77-7.38-1.92-2.96-4.39-5.53-6.85-8.06-1.13-1.17-2.28-2.34-3.6-3.29-4.05-2.94-9.07-3.88-14.05-4.46,3.53,2.3,6.79,5.09,9.32,8.46,2.53,3.38,4.3,7.41,4.74,11.6-3.9-.28-7.62-2.4-9.85-5.61-2.01-2.89-2.83-6.55-5.17-9.18-2.49-2.79-6.32-3.99-10.04-4.42-4.04-.47-8.13-.19-12.18.19-10.67.99-21.28,2.64-31.75,4.93-4.18.92-8.35,1.93-12.33,3.5-5.45,2.14-10.45,5.26-15.41,8.37-6.26,3.92-12.38,7.97-18.65,11.89,3.5-7.42,8.3-14.23,14.14-20.01,1.4-1.38,2.86-2.71,4.59-3.65,1.31-.71,2.73-1.17,4.17-1.56,2.42-.67,4.87-1.18,7.34-1.69,8.57-1.78,17.62-2.71,26.33-3.49,3.02-.27,6.05-.54,8.99-1.28,2.93-.74,5.8-1.97,8.09-3.96,2.34-2.04,3.97-4.78,5.66-7.39,2.88-4.41,6.36-8.68,11.04-11.1-.88,3.63-2.01,7.2-3.37,10.68-.31.79-.63,1.58-1.08,2.29-.53.81-1.19,1.51-1.46,2.45,1.33-.48,2.59-1.17,3.72-2.03,4.03-3.08,6.02-8.03,8.55-12.41,1.11-1.92,2.35-3.77,3.59-5.61,1.67-2.48,3.4-5.02,5.87-6.7.46,1.98.6,4.04.4,6.05,2.06-1.76,4.61-2.93,7.28-3.36-.58,2.88-1.33,5.72-2.24,8.52,1.66-.92,3.53-1.55,5.37-2-1.03,2.41-2.66,4.52-4.38,6.51-.61.71-1.25,1.42-1.98,2.02-.75.61-1.59,1.11-2.42,1.6-1.71,1.01-3.42,2.02-5.26,2.73-.76.3-1.55.55-2.33.81-4.19,1.45-8.15,3.54-11.71,6.16.16.02.47-.06.62-.03,5.59.85,11.21-1.08,16.4-3.33.67-.29,1.34-.59,1.97-.96,1.14-.68,2.13-1.59,3.11-2.49,2.07-1.91,4.14-3.83,5.82-6.09,1.67-2.26,2.93-4.92,3.13-7.72.34-4.87-2.5-9.42-3-14.28-.24-2.35.02-4.77.85-6.97.95.57,1.59,1.54,2.15,2.51.71,1.22,1.34,2.46,1.92,3.76-.03-2.53.44-5.05,1.39-7.4.75.48,1.49,1,2.07,1.68,1,1.17,1.43,2.69,1.85,4.17.53-1.53.6-3.2,1.44-4.58,1.48,3.32,2.88,6.87,2.46,10.47-.25,2.17-1.16,4.19-2.1,6.17-2.48,5.19-5.36,10.27-9.36,14.42-3.1,3.22-6.71,5.91-10.37,8.46,4.61.11,9.18-1.47,13-4.04,3.82-2.56,6.44-6.33,9.45-9.83,1.9-2.22,2.26-5.33,2.54-8.24.1-1.08.2-2.16.09-3.23-.1-.94-.37-1.86-.61-2.77-1.4-5.18-2.18-10.79-.35-15.83,1.3.92,2.3,2.24,2.93,3.7.25-1.45.92-2.81,1.79-4,.86-1.19,1.87-2.23,2.97-3.22,1.91,1.74,2.96,4.37,2.82,6.94,1.66-3.34,3.99-6.48,7.33-8.13-.37,2.14-.74,4.29-1.11,6.43-.57,3.29-1.17,6.67-2.86,9.55-1.08,1.84-2.56,3.4-3.85,5.09-1.29,1.7-2.45,3.44-2.66,5.56,4.03-2.05,8.6-5.23,9.1-9.72.83-7.35,4.25-14.25,4.58-21.63,2.03,1.77,2.55,4.71,2.66,7.4.09,2.12.24,4.21-.52,6.19,1-3.51,2-7.06,2.25-10.7.25-3.64-.37-7.4-2.28-10.51,2.08.53,3.83,2.04,4.99,3.86,1.16,1.82,1.82,3.91,2.29,6.01,1.87-4.08,3.51-8.26,4.92-12.52l1.47-2.3-.17,2.96c-2.15,6.66-4.1,13.23-7,19.59,3.39-1.61,5.46-5.02,7.99-7.8,1.89-2.09,4.1-3.88,5.94-6.03.64-.75,1.24-1.53,1.82-2.31,1.13-1.52,3-3.36,2.01-4.98-3.92-6.37-5.14-14.01-5.8-21.47-.14-1.53-.31-3.08.27-4.51,1.81,3.63,2.5,7.74,4.34,11.36,1.17,2.32,2.77,4.46,3.21,7.03,1.29-4.08,1.08-8.5.1-12.66-.98-4.16-2.73-8.09-4.52-11.96-.44-.94-.91-1.92-1.77-2.51-.64-.44-1.47-.6-2.01-1.16,2.66,0,5.15,1.51,6.92,3.51,1.77,1.99,2.95,4.42,4.11,6.82.69,1.42,1.54,2.86,2.23,4.29,1.13-5.93,2.25-11.87,3.38-17.8.3-1.57.6-3.16.49-4.76-.18-2.6-1.48-5.06-3.39-6.83l-.88-3.72,2.78,1.78v-.08Z"/>
            <path class="cls-1" d="M424.83,203.21c.66,1.31,1.99,2.27,3.45,2.48.1.02.2.02.3,0,.15-.04.26-.17.36-.29,1.03-1.29,1.57-2.97,1.48-4.61,1,.55,2.29.39,3.26-.19s1.67-1.56,2.14-2.61c.11-.24.21-.5.17-.75-.05-.37-.36-.64-.66-.86-1.32-.94-2.9-1.53-4.51-1.67,1.68-1.28,2.82-3.51,2.23-5.54-.11-.36-.28-.73-.58-.95-.18-.13-.39-.21-.61-.28-.48-.15-.97-.27-1.48-.27-.88,0-1.74.41-2.4.99-.66.58-1.17,1.34-1.57,2.12-.41-1.99-2.19-3.63-4.2-3.89-.18-.02-.35-.03-.51.02-.21.08-.37.24-.5.42-1.46,1.92-1.28,4.77.02,6.8-1.17.02-2.33.5-3.17,1.3-.84.81-1.36,1.95-1.42,3.12-.02.28,0,.59.21.78.13.14.33.19.51.24,1.42.36,2.87.59,4.34.67.6.03,1.2.04,1.78-.13.55-.16.89-.49,1.28-.88-.39,1.35-.56,2.65.12,3.97h-.02Z"/>
            <path class="cls-1" d="M394.85,181.85c.26.29.57.55.95.65.54.14,1.12-.12,1.5-.53.38-.41.56-.96.66-1.5.2-1.1.04-2.3-.58-3.24,1.15.18,2.22.81,3.38.87,1.18.08,2.43-.51,3.02-1.55.59-1.03.4-2.49-.5-3.26-.35-.3-.78-.49-1.22-.66-1.34-.5-2.76-.78-4.19-.83,1.54-.65,2.46-2.27,2.86-3.89.23-.94.29-2.01-.24-2.82-.61-.94-1.91-1.28-2.99-.97-1.08.31-1.93,1.16-2.5,2.14-.56.97-.87,2.07-1.17,3.14-.24-.97-.51-1.97-1.1-2.77-.86-1.19-2.39-1.85-3.85-1.67-.73.08-1.49.42-1.85,1.06-.26.46-.29,1.02-.23,1.55.19,1.93,1.39,3.74,3.09,4.67-1.61.11-3.33.24-4.65,1.18-.91.64-1.56,1.63-1.78,2.72-.07.32-.09.66.02.97.24.66,1.02.93,1.71,1.06,1.99.36,4.07.2,5.98-.45.94-.32,1.71-.81,2.33-1.56.15,2.09-.23,3.97,1.34,5.7h0Z"/>
            <path class="cls-1" d="M378.93,179.61c.24-.47.43-.98.44-1.51.02-1.53-1.56-2.79-3.09-2.66-1.53.12-2.82,1.35-3.32,2.8-.2-1.66-1.43-3.14-3.03-3.65-.42-.13-.87-.2-1.31-.12-1.25.24-1.95,1.74-1.71,2.99.24,1.25,1.15,2.27,2.14,3.08-1.49-.37-3.21.27-3.97,1.61-.76,1.34-.38,3.24.92,4.07.4.26.87.41,1.35.53.93.23,1.9.3,2.86.24-.52.61-1.02,1.26-1.25,2.02-.24.76-.13,1.67.42,2.25.46.47,1.15.65,1.82.68.51.02,1.03-.02,1.5-.23.86-.37,1.41-1.2,1.89-2.01.72-1.23,1.38-2.61,1.22-4.03,1.15.07,2.27.48,3.42.56,1.15.07,2.46-.28,3.02-1.3.61-1.12-.02-2.61-1.1-3.28-1.03-.63-2.16-.54-3.31-.43.31-.56.81-1.02,1.12-1.61v-.02Z"/>
            <path class="cls-1" d="M389.97,202.48c.62,1.04.34,2.42-.35,3.41-.7.99-1.73,1.67-2.75,2.33.8-.18,1.58.63,1.57,1.45,0,.82-.6,1.54-1.3,1.95-.96.55-2.17.66-3.2.26.66.86.25,2.22-.64,2.83-.89.61-2.08.62-3.13.36-.55-.13-1.11-.35-1.55-.72-1.1-.93-1.21-2.56-1.24-4.01-.76,1.01-2.37,1.23-3.37.45-1-.77-1.19-2.39-.41-3.37.71-.9,1.95-1.17,3.09-1.26-1.02-.12-2.02-.41-2.94-.84-.43-.19-.85-.43-1.14-.79-.7-.83-.5-2.19.29-2.93.79-.74,2-.92,3.04-.61-.79-.87-1.09-2.11-.98-3.28.05-.5.18-1.02.5-1.4.28-.33.67-.54,1.08-.66,1.01-.29,2.17-.06,2.94.66.77.71,1.08,1.91.7,2.88.33-.65.79-1.26,1.43-1.61.64-.34,1.47-.39,2.08.03,1.47,1.01-.12,4.13,1.69,3.98,1.67-.13,3.48-1.02,4.62.88h-.02Z"/>
            <path class="cls-1" d="M402.68,237.61c-.96-1.13-2.35-1.79-3.78-2.19-.61-.17-1.27-.3-1.84-.03-.73.33-1.08,1.18-1.14,1.98-.19,2.49,1.73,4.6,3.66,6.17-1.51-.15-3.09-.13-4.46.5-1.37.63-2.5,2.02-2.43,3.54.02.34.08.67.27.96.3.48.84.73,1.38.9,2.08.65,4.46.23,6.19-1.09.17,1.3,1.07,2.48,2.27,2.99.62.26,1.36.35,1.94,0,.52-.31.81-.92.91-1.51.22-1.38-.43-2.72-1.05-3.98.98.28,1.98.49,3,.65.65.1,1.34.16,1.94-.12.76-.36,1.17-1.18,1.51-1.94.5-1.1,1.01-2.39.45-3.46-.49-.95-1.65-1.35-2.71-1.41-.69-.04-1.39.03-2.06.2-.67.17-1.5.85-2.12.87-1.27.05-1.08-2.05-1.92-3.04l-.02.02Z"/>
            <path class="cls-1" d="M395.44,260.38c-.16-.81-.2-1.66.04-2.46.24-.8.81-1.51,1.6-1.78,1.19-.41,2.57.38,3.09,1.53.52,1.15.33,2.52-.2,3.67-.17.37-.39.74-.7,1-1.84,1.55-3.48-.1-3.83-1.95Z"/>
            <path class="cls-1" d="M401.21,259.39c.02-.26.05-.52.13-.76.28-.92,1.16-1.63,2.12-1.71.96-.08,1.94.48,2.37,1.35.33.67.33,1.45.26,2.19-.09,1.11-.4,2.34-1.36,2.9-2.76,1.6-3.67-1.84-3.52-3.97h0Z"/>
            <path class="cls-1" d="M409.09,263.91c1.03.18,2.22.55,2.56,1.53.28.81-.21,1.76-.95,2.21s-1.66.5-2.51.4c-.68-.08-1.35-.24-1.99-.48-.37-.14-.73-.31-1.03-.56-.5-.42-.79-1.09-.7-1.73.29-2.04,3.24-1.61,4.62-1.37Z"/>
            <path class="cls-1" d="M403.52,272.17c-.21.12-.45.18-.7.21-1,.1-1.99-.45-2.57-1.28-1.02-1.45-1.04-6.02,1.72-4.95,1.72.67,3.56,4.81,1.55,6.01h0Z"/>
            <path class="cls-1" d="M397.2,271.86c-.42.03-.84-.05-1.25-.13-.37-.07-.76-.17-1.03-.44-.18-.18-.27-.4-.35-.64-.35-.98-.49-2.03-.39-3.05.16-1.75,4.01-2.02,4.97-.79,1.28,1.61.22,4.86-1.94,5.05h0Z"/>
            <path class="cls-1" d="M365.68,235.33c.1.89-.44,1.76-1.13,2.32-.76.62-1.74.98-2.72.99.86,1.18,1.57,2.85.71,4.03-.79,1.1-2.56,1.04-3.64.22-1.08-.82-1.62-2.16-2.07-3.44-.87.66-1.82,1.2-2.83,1.6-.65.26-1.34.46-2.03.37-.69-.09-1.37-.53-1.56-1.2-.24-.85.36-1.72,1.07-2.25.71-.53,1.55-.88,2.16-1.52-1.09-.16-2.24-.34-3.12-1.01-.88-.67-1.35-2.01-.7-2.91.48-.66,1.37-.87,2.19-.88,1.21-.02,2.42.27,3.48.83-.08-1.1-.15-2.24.15-3.3.3-1.07,1.06-2.07,2.14-2.35,1.5-.39,3.08.85,3.43,2.35.33,1.45-1.09,3.16.69,3.82,1.43.52,3.55.22,3.79,2.33h0Z"/>
            <path class="cls-1" d="M391.22,224.97c-.69.86-1.64,1.56-2.73,1.72-.63.09-1.28,0-1.92-.09-.71-.1-1.42-.21-2.13-.31-.14-.02-.31-.06-.38-.18-.04-.08-.03-.19-.02-.3.16-.86.49-1.71,1.12-2.32.28-.26.6-.47.93-.66,1.44-.79,3.4-1.32,5.04-1.01,2.04.39,1.02,1.96.07,3.14Z"/>
            <path class="cls-1" d="M358.67,257.27c-1.14-.24-2.38-.2-3.45.27-.8.34-1.48.92-2.11,1.51-2.81,2.7-4.68,6.35-5.25,10.2-.07.45-.11.97.17,1.34.14.19.34.33.55.44.55.33,1.18.62,1.8.45.56-.16.95-.68,1.11-1.24.16-.55.13-1.14.09-1.72.37.61,1.16.92,1.85.72.69-.19,1.2-.86,1.2-1.57.44.46.9.94,1.5,1.17.6.23,1.38.12,1.73-.42.5-.77-.13-1.77-.75-2.46.69.15,1.29-.65,1.2-1.34-.09-.7-.64-1.24-1.21-1.66.33.24,6.76-4.6,1.58-5.71v.02Z"/>
            <path class="cls-1" d="M68.99,213.16c.6.04,1.21.08,1.8-.06.59-.14,1.15-.5,1.4-1.05.17-.38.17-.81.1-1.22-.1-.64-.36-1.26-.83-1.7.55.06,1.11.07,1.61-.12.5-.19.95-.64,1.03-1.18.08-.6-.33-1.18-.87-1.47-.54-.29-1.17-.3-1.77-.23-3.4.44-5.75,3.93-5.49,7.23.08,1.12.39,2.76,1.66,3.09,2.29.61,2.41-3.22,1.36-3.3h0Z"/>
            <path class="cls-1" d="M47.8,265.7c-.88.33-1.74.83-2.28,1.61-.54.78-.67,1.88-.14,2.66.76,1.13,2.41,1.14,3.75.9.99-.18,1.98-.43,2.93-.75-.1,1.22.92,2.34,2.12,2.63,1.19.3,2.45-.08,3.51-.7-.29,1,.7,2.06,1.74,2.04,1.04-.02,1.94-.85,2.3-1.82.36-.98.28-2.06.08-3.09.73.37,1.58.45,2.4.51.98.07,2.01.14,2.92-.23.92-.37,1.68-1.31,1.51-2.29-.13-.73-.74-1.29-1.43-1.56-.69-.27-1.45-.27-2.19-.23,1.13-.66,1.68-2.16,1.25-3.4-.43-1.23-1.8-2.07-3.09-1.88,1.16-.61,1.6-2.24,1.01-3.41s-2.03-1.8-3.33-1.55c-1.29.25-2.35,1.29-2.78,2.53-.37-1.5-2.17-2.19-3.72-2.15-.86.02-1.75.23-2.42.77-1.28,1.06-1.31,3.01-.94,4.62.18.76,1.63,3.31,1.16,3.99-.42.61-3.47.41-4.38.75v.03Z"/>
            <path class="cls-1" d="M17.93,217.93c-1.35-1.17-3.14-1.71-4.92-1.93-1.55-.19-3.41-.02-4.26,1.3-.53.83-.5,1.91-.33,2.88.16.92.44,1.83.82,2.7-.97,0-1.96.42-2.58,1.17-.62.75-.87,1.82-.56,2.74.42,1.27,1.79,2.05,3.13,2.09,1.34.03,2.61-.55,3.71-1.31.08.78.64,1.47,1.35,1.81.71.34,1.55.34,2.3.09.51-.17,1.01-.46,1.31-.91.39-.57.42-1.33.24-1.99-.18-.66-.53-1.27-.88-1.87,1.15.28,2.39.29,3.48-.16,1.09-.45,2.01-1.4,2.22-2.56,1.5,1.26,3.74,1.25,5.56.54.55-.22,1.1-.51,1.41-1.03.38-.62.29-1.41.1-2.11-.5-1.82-1.84-3.49-3.66-3.94.92-.49,1.74-1.23,2.13-2.2.39-.97.26-2.18-.49-2.91-.89-.86-2.31-.81-3.52-.54-1.9.43-3.84,1.4-4.69,3.15-.75,1.53-.51,3.35-.08,5h-1.78Z"/>
            <path class="cls-4" d="M58.82,185.9c-.63.56-1.18,1.21-1.62,1.92-.35.56-.64,1.15-.92,1.74-.5,1.02-.93,2.06-1.43,3.08-.34-1.87-1.01-3.61-1.75-5.36-.66.61-1.24,1.28-1.71,2.05-.74-2-1.47-4.01-2.21-6.01-.71-1.94-1.45-3.92-2.71-5.55l-4.98-4.85,1.34,6.12s3.04,2.95,4.6,8.76l-1.87-.14.73,2.37s-12.28-7.98-19.59-8.72c.5,2.97,18.09,12.18,18.09,12.18,0,0-10.92-5.56-16.99-4.64,0,0,7.43,11.1,21.82,11.01,0,0,4.33,3.35,8.94,24.83,0,0-1.71.57-3.74-1.81-2.03-2.38-6.57-13.37-19.95-12.7,0,0,.9,11.86,18.14,16.66,6.51,2.56,8.83,11.25,8.83,11.25,0,0-7.36-10.8-19.5-9.68,0,0,3.26,8.15,17.9,13.63,9.47,4.5,14.1,11.35,16.84,14.64,2.74,3.29,16.91,18.31,16.91,18.31,0,0-5.18,1.46-11.88-.29-.17,1.56,3.03,3.39,3.03,3.39,0,0-3.05-.3-5.88.98,2.08,3.67,4.93,4.51,4.93,4.51,0,0-2.1.72-2.61,2.41,9.11-2.67,21.02.69,21.02.69,0,0,2.06-.21,6.93,3.54,4.87,3.75,13.2,11.05,13.2,11.05,0,0-29.52-3.53-44.59-16.37,0,0-1.92-5.89-2.13-14-1.81-10.83-5.3-12.45-5.3-12.45,0,0-2.08,3.1.39,11.83,2.46,8.72,3.05,12.7,3.05,12.7,0,0-1.24.59-3.43-3.15-2.19-3.74-3.62-7.58-6.32-9.17-2.7-1.59-10.02-7.13-10.02-7.13,0,0-1.66-2.13-1.68-6.09-.02-3.97-1.87-15-3.56-16.05-4,3.2-.22,15.94-.22,15.94,0,0-11.46-10.46-13.23-16.9,4.1-8.5,2.06-14.29,2.06-14.29l-2.23,3.06-1.76-10.62s-4.56,5.07-4.14,15.52c-1.36-2.01-2.49-4.26-3.85-6.27-1.03-1.53-2.07-3.08-2.64-4.84-1.66-5.14,1.03-10.56,1.63-15.93.35-3.19-.02-6.56-1.16-9.56-3.17,3.45-5.01,8.14-4.99,12.83-2.45-3.97-4.26-8.32-5.24-12.88-1.19.09-2.19.6-3.14,1.3.12,1.12.58,2.17,1.04,3.19,1.81,4.04,3.29,8.39,5.09,12.44-1.67-1.13-3.34-2.26-5.01-3.4-.81-.55-1.61-1.09-2.5-1.47-2.73-1.17-5.9-.62-8.83-.09,1.54,3.83,5.88,5.6,9.81,6.85,3.93,1.25,8.3,2.71,10.25,6.34-2.54,2.8-3.59,6.87-2.73,10.56,2.08-1.52,3.73-3.63,4.71-6.02-.32.95.34,1.92.96,2.71,1.78,2.24,2.97,4.45,4.82,6.63-5.01-1.14-10.26-.76-15.22.59,4.35,3.11,9.65,4.87,14.99,4.95,1.14.02,2.34-.02,3.37.46,1.06.5,1.79,1.5,2.46,2.45,3.21,4.61,6.19,9.69,10.54,13.25-4.59.39-9.03-1.61-13.04-3.88-4.01-2.27-7.94-4.88-12.45-5.87-2.59-.57-5.2-.71-7.86-.69,2.43,2.88,5.79,4.79,9.08,6.64,6.21,3.49,12.74,7.08,19.86,7.32,1.71.06,3.5-.06,5.03.7-4.07,2.01-9.16-.02-13.41,1.59,2.3,2.07,5.75,2.14,8.82,1.75,3.07-.39,6.24-1.12,9.2-.24,1.22.36,2.35.98,3.46,1.59,2.87,1.58,5.77,3.17,8.33,5.21,2.56,2.04,4.81,4.59,6.03,7.63-.67.46-1.61.34-2.33-.06-.71-.39-1.29-1-1.9-1.54-3.26-2.85-7.88-3.58-12.2-3.4-4.33.18-8.61,1.12-12.94,1.1,3.62,2.75,8.48,3.05,13.02,3.33,4.54.28,9.43.8,12.82,3.84-6-2.32-12.94-1.32-19.28-.21,2.28,2.35,5.79,3.04,9.07,3.01,3.28-.03,6.54-.67,9.81-.46,5.41.34,10.39,2.93,15.18,5.47,2.61,1.39,4.72,2.58,7.34,3.97-5.3.31-10.65-.5-15.61-2.37-2.38-.89-4.69-2.03-7.18-2.53-4.07-.81-8.29.16-12.19,1.58,1.95,1.77,4.45,2.93,7.05,3.28-1.42.54-2.69,1.49-3.61,2.7,2.29,1.68,5.17,2.54,8,2.38-2.08.83-3.81,2.08-5.61,3.42,5.81,1.52,11.73-1.34,17.56-2.78,1.63-.4,3.29-.7,4.94-.96,3.73-.6,7.51-1.05,11.29-.77,3.77.28,7.4.95,10.48,3.13-3.4.98-6.8,1.96-10.21,2.88-2.81.76-5.67,1.48-8.56,1.42-2.43-.05-4.82-.64-7.25-.78-2.42-.14-5.03.23-6.87,1.82,1.01,1.08,2.17,2.02,3.44,2.77-2.87.64-5.56,2.06-7.71,4.08l5.41,1.85c-2.81,1.81-5.72,3.45-8.75,4.83,2.5,1.27,5.42,1.55,8.21,1.21,2.79-.34,5.47-1.24,8.09-2.24,5.72-2.19,11.27-4.83,16.57-7.91,2.31-1.34,4.59-2.77,7.05-3.82,4.64-1.97,9.74-2.49,14.76-2.99,1.01-.1,1.77-.06,2.67.39-15.52,4.34-29.57,13.8-39.42,26.56,1.66-.02,3.33-.02,5-.04-2.59,2.88-5.01,5.89-7.27,9.04,3.25-.66,6.5-1.31,9.75-1.97-.39,2.33-.92,4.73-1.31,7.06,5.35-1.99,8.76-7.2,11.15-12.39,2.38-5.18,4.19-10.78,7.92-15.09,3.16-3.65,7.5-6.11,12.05-7.72,4.56-1.61,9.34-2.39,14.1-3.15,2.82-.45,5.39-.93,7.91.4-5.48,1.15-10.66,3.39-15.79,5.61-3.44,1.49-6.9,2.99-10.04,5.03-3.14,2.04-5.98,4.67-7.76,7.98,1.66-.42,3.36-.67,5.07-.74-3.29,2.58-5.51,6.49-6.03,10.63,4.14-.98,8.08-2.84,11.46-5.43-1.01,2.5-1.65,5.15-1.87,7.84,2.28-.82,4.34-2.23,5.94-4.04,1.94-2.2,3.17-4.92,4.77-7.38,1.92-2.96,4.39-5.53,6.85-8.06,1.13-1.17,2.28-2.34,3.6-3.29,4.05-2.94,9.07-3.88,14.05-4.46-3.53,2.3-6.79,5.09-9.32,8.46-2.53,3.38-4.3,7.41-4.74,11.6,3.9-.28,7.62-2.4,9.85-5.61,2.01-2.89,2.83-6.55,5.17-9.18,2.49-2.79,6.32-3.99,10.04-4.42,4.04-.47,8.13-.19,12.18.19,10.67.99,21.28,2.64,31.75,4.93,4.18.92,8.36,1.93,12.33,3.5,5.45,2.14,10.45,5.26,15.41,8.37,6.26,3.92,12.38,7.97,18.65,11.89-3.5-7.42-8.3-14.23-14.14-20.01-1.4-1.38-2.86-2.71-4.59-3.65-1.31-.71-2.73-1.17-4.17-1.56-2.42-.67-4.88-1.18-7.34-1.69-8.57-1.78-17.62-2.71-26.33-3.49-3.02-.27-6.05-.54-8.99-1.28s-5.8-1.97-8.09-3.96c-2.34-2.04-3.97-4.78-5.66-7.39-2.87-4.41-6.36-8.68-11.04-11.1.88,3.63,2.01,7.2,3.37,10.68.31.79.63,1.58,1.08,2.29.53.81,1.19,1.51,1.46,2.45-1.33-.48-2.59-1.17-3.72-2.03-4.03-3.08-6.02-8.03-8.55-12.41-1.11-1.92-2.35-3.77-3.59-5.61-1.67-2.48-3.4-5.02-5.87-6.7-.46,1.98-.6,4.04-.4,6.05-2.06-1.76-4.61-2.93-7.28-3.36.58,2.88,1.33,5.72,2.24,8.52-1.66-.92-3.53-1.55-5.37-2,1.03,2.41,2.66,4.52,4.38,6.51.61.71,1.25,1.42,1.98,2.02.75.61,1.59,1.11,2.42,1.6,1.71,1.01,3.42,2.02,5.26,2.73.76.3,1.55.55,2.33.81,4.19,1.45,8.14,3.54,11.71,6.16-.16.02-.47-.06-.62-.03-5.59.85-11.21-1.08-16.4-3.33-.67-.29-1.34-.59-1.97-.96-1.14-.68-2.13-1.59-3.11-2.49-2.07-1.91-4.14-3.83-5.82-6.09-1.67-2.26-2.92-4.92-3.13-7.72-.34-4.87,2.5-9.42,3-14.28.24-2.35-.02-4.77-.85-6.97-.95.57-1.59,1.54-2.15,2.51-.71,1.22-1.34,2.46-1.92,3.76.03-2.53-.44-5.05-1.4-7.4-.75.48-1.49,1-2.07,1.68-1,1.17-1.43,2.69-1.85,4.17-.53-1.53-.6-3.2-1.44-4.58-1.48,3.32-2.88,6.87-2.46,10.47.25,2.17,1.16,4.19,2.1,6.17,2.48,5.19,5.36,10.27,9.35,14.42,3.1,3.22,6.71,5.91,10.37,8.46-4.61.11-9.18-1.47-13-4.04-3.82-2.56-6.44-6.33-9.45-9.83-1.9-2.22-2.26-5.33-2.54-8.24-.1-1.08-.2-2.16-.09-3.23.1-.94.37-1.86.61-2.77,1.4-5.18,2.18-10.79.35-15.83-1.3.92-2.3,2.24-2.93,3.7-.25-1.45-.92-2.81-1.79-4-.87-1.19-1.87-2.23-2.97-3.22-1.91,1.74-2.96,4.37-2.82,6.94-1.66-3.34-3.99-6.48-7.33-8.13.37,2.14.74,4.29,1.11,6.43.57,3.29,1.17,6.67,2.86,9.55,1.08,1.84,2.56,3.4,3.85,5.09,1.29,1.7,2.45,3.44,2.66,5.56-4.03-2.05-8.6-5.23-9.1-9.72-.83-7.35-4.25-14.25-4.58-21.63-2.03,1.77-2.55,4.71-2.66,7.4-.09,2.12-.24,4.21.52,6.19-1-3.51-2-7.06-2.25-10.7-.25-3.64.37-7.4,2.28-10.51-2.08.53-3.83,2.04-4.99,3.86-1.16,1.82-1.82,3.91-2.29,6.01-1.87-4.08-3.51-8.26-4.93-12.52l-1.47-2.3.17,2.96c2.15,6.66,4.1,13.23,7,19.59-3.39-1.61-5.46-5.02-7.98-7.8-1.89-2.09-4.1-3.88-5.94-6.03-.64-.75-1.24-1.53-1.82-2.31-1.13-1.52-3-3.36-2.01-4.98,3.92-6.37,5.14-14.01,5.8-21.47.13-1.53.31-3.08-.27-4.51-1.81,3.63-2.5,7.74-4.34,11.36-1.17,2.32-2.77,4.46-3.21,7.03-1.29-4.08-1.08-8.5-.1-12.66.98-4.16,2.73-8.09,4.52-11.96.44-.94.91-1.92,1.77-2.51.64-.44,1.47-.6,2.01-1.16-2.66,0-5.14,1.51-6.92,3.51-1.77,1.99-2.95,4.42-4.11,6.82-.69,1.42-1.54,2.86-2.23,4.29-1.13-5.93-2.25-11.87-3.38-17.8-.29-1.57-.6-3.16-.49-4.76.18-2.6,1.48-5.06,3.39-6.83l.88-3.72-2.78,1.78v-.08Z"/>
            <path class="cls-1" d="M11.59,203.21c-.66,1.31-1.99,2.27-3.45,2.48-.1.02-.2.02-.29,0-.15-.04-.26-.17-.36-.29-1.03-1.29-1.57-2.97-1.48-4.61-1,.55-2.29.39-3.26-.19s-1.67-1.56-2.14-2.61c-.11-.24-.21-.5-.17-.75.05-.37.36-.64.66-.86,1.32-.94,2.9-1.53,4.51-1.67-1.68-1.28-2.82-3.51-2.23-5.54.11-.36.28-.73.58-.95.18-.13.4-.21.61-.28.48-.15.97-.27,1.48-.27.88,0,1.74.41,2.4.99.66.58,1.17,1.34,1.57,2.12.41-1.99,2.19-3.63,4.2-3.89.18-.02.35-.03.51.02.21.08.37.24.5.42,1.46,1.92,1.28,4.77-.03,6.8,1.17.02,2.33.5,3.17,1.3.84.81,1.36,1.95,1.42,3.12.02.28,0,.59-.21.78-.13.14-.33.19-.51.24-1.42.36-2.87.59-4.34.67-.6.03-1.2.04-1.78-.13-.55-.16-.89-.49-1.28-.88.39,1.35.55,2.65-.12,3.97h.03Z"/>
            <path class="cls-1" d="M41.56,181.85c-.26.29-.57.55-.95.65-.54.14-1.12-.12-1.5-.53s-.56-.96-.66-1.5c-.2-1.1-.04-2.3.58-3.24-1.15.18-2.22.81-3.38.87-1.19.08-2.43-.51-3.02-1.55-.59-1.03-.4-2.49.5-3.26.35-.3.78-.49,1.22-.66,1.34-.5,2.76-.78,4.19-.83-1.54-.65-2.46-2.27-2.86-3.89-.23-.94-.29-2.01.24-2.82.61-.94,1.91-1.28,2.99-.97,1.08.31,1.93,1.16,2.5,2.14.56.97.87,2.07,1.17,3.14.24-.97.51-1.97,1.1-2.77.87-1.19,2.39-1.85,3.85-1.67.73.08,1.49.42,1.85,1.06.26.46.29,1.02.24,1.55-.19,1.93-1.39,3.74-3.09,4.67,1.61.11,3.33.24,4.65,1.18.91.64,1.55,1.63,1.78,2.72.07.32.09.66-.02.97-.24.66-1.02.93-1.71,1.06-1.99.36-4.07.2-5.98-.45-.94-.32-1.71-.81-2.33-1.56-.15,2.09.23,3.97-1.34,5.7h0Z"/>
            <path class="cls-1" d="M57.48,179.61c-.24-.47-.43-.98-.44-1.51-.03-1.53,1.56-2.79,3.09-2.66,1.53.12,2.82,1.35,3.32,2.8.2-1.66,1.43-3.14,3.03-3.65.42-.13.87-.2,1.31-.12,1.25.24,1.95,1.74,1.71,2.99-.24,1.25-1.15,2.27-2.13,3.08,1.49-.37,3.21.27,3.97,1.61.76,1.34.38,3.24-.92,4.07-.4.26-.87.41-1.34.53-.93.23-1.9.3-2.86.24.52.61,1.02,1.26,1.25,2.02.24.76.13,1.67-.42,2.25-.46.47-1.15.65-1.82.68-.51.02-1.03-.02-1.5-.23-.86-.37-1.41-1.2-1.89-2.01-.72-1.23-1.38-2.61-1.22-4.03-1.15.07-2.27.48-3.42.56-1.15.07-2.46-.28-3.02-1.3-.61-1.12.02-2.61,1.1-3.28,1.03-.63,2.16-.54,3.31-.43-.31-.56-.82-1.02-1.12-1.61v-.02Z"/>
            <path class="cls-1" d="M46.44,202.48c-.62,1.04-.34,2.42.35,3.41.7.99,1.73,1.67,2.75,2.33-.8-.18-1.58.63-1.57,1.45,0,.82.6,1.54,1.3,1.95.96.56,2.17.66,3.2.26-.66.86-.25,2.22.64,2.83.89.61,2.08.62,3.13.36.55-.13,1.11-.35,1.55-.72,1.1-.93,1.21-2.56,1.24-4.01.76,1.01,2.37,1.23,3.37.45,1-.77,1.19-2.39.41-3.37-.71-.9-1.95-1.17-3.09-1.26,1.02-.13,2.02-.41,2.94-.84.43-.19.85-.43,1.14-.79.7-.83.5-2.19-.29-2.93-.79-.74-2-.92-3.04-.61.79-.87,1.09-2.11.98-3.28-.05-.5-.18-1.02-.5-1.4-.28-.33-.67-.54-1.08-.66-1.01-.29-2.17-.06-2.94.66-.77.71-1.08,1.91-.7,2.88-.33-.65-.79-1.26-1.43-1.6-.64-.34-1.47-.39-2.08.02-1.47,1.01.12,4.13-1.69,3.98-1.66-.13-3.48-1.02-4.61.88h.02Z"/>
            <path class="cls-1" d="M33.73,237.61c.96-1.13,2.35-1.79,3.78-2.19.61-.17,1.27-.3,1.84-.03.73.33,1.08,1.18,1.14,1.98.18,2.49-1.73,4.6-3.66,6.17,1.51-.15,3.09-.13,4.46.5,1.37.63,2.5,2.02,2.43,3.54-.02.34-.08.67-.27.96-.29.48-.84.73-1.38.9-2.08.65-4.45.23-6.19-1.09-.17,1.3-1.07,2.48-2.27,2.99-.62.26-1.36.35-1.94,0-.52-.31-.82-.92-.91-1.51-.22-1.38.43-2.72,1.05-3.98-.98.28-1.98.49-3,.65-.65.1-1.34.16-1.94-.12-.76-.36-1.17-1.18-1.51-1.94-.5-1.1-1.01-2.39-.45-3.46.49-.95,1.65-1.35,2.71-1.41.69-.04,1.39.03,2.06.2.67.17,1.5.85,2.12.87,1.27.05,1.08-2.05,1.92-3.04l.02.02Z"/>
            <path class="cls-1" d="M40.97,260.38c.16-.81.2-1.66-.04-2.46-.24-.8-.82-1.51-1.6-1.78-1.19-.41-2.57.38-3.09,1.53-.52,1.15-.33,2.52.2,3.67.17.37.39.74.7,1,1.84,1.55,3.48-.1,3.83-1.95Z"/>
            <path class="cls-1" d="M35.21,259.39c-.02-.26-.05-.52-.13-.76-.28-.92-1.16-1.63-2.12-1.71s-1.94.48-2.37,1.35c-.33.67-.33,1.45-.26,2.19.09,1.11.4,2.34,1.36,2.9,2.76,1.6,3.67-1.84,3.52-3.97h0Z"/>
            <path class="cls-1" d="M27.32,263.91c-1.03.18-2.22.55-2.56,1.53-.28.81.21,1.76.95,2.21.74.45,1.66.5,2.51.4.68-.08,1.35-.24,1.99-.48.37-.14.73-.31,1.03-.56.5-.42.79-1.09.7-1.73-.29-2.04-3.24-1.61-4.62-1.37Z"/>
            <path class="cls-1" d="M32.89,272.17c.21.12.45.18.7.21,1,.1,1.99-.45,2.57-1.28,1.02-1.45,1.04-6.02-1.72-4.95-1.72.67-3.56,4.81-1.55,6.01h0Z"/>
            <path class="cls-1" d="M39.21,271.86c.42.03.84-.05,1.25-.13.37-.07.76-.17,1.03-.44.18-.18.27-.4.35-.64.35-.98.49-2.03.4-3.05-.16-1.75-4.01-2.02-4.98-.79-1.28,1.61-.22,4.86,1.94,5.05h0Z"/>
            <path class="cls-1" d="M70.74,235.33c-.1.89.44,1.76,1.13,2.32.76.62,1.74.97,2.72.99-.86,1.18-1.57,2.85-.71,4.03.79,1.1,2.56,1.04,3.64.22,1.08-.82,1.62-2.16,2.07-3.44.87.66,1.82,1.2,2.82,1.61.65.26,1.34.46,2.03.37.69-.09,1.37-.53,1.56-1.2.24-.85-.36-1.72-1.07-2.25-.71-.53-1.55-.88-2.16-1.52,1.09-.16,2.24-.34,3.12-1.01.88-.67,1.34-2.01.7-2.91-.48-.66-1.37-.87-2.19-.88-1.21-.02-2.42.27-3.48.83.08-1.1.15-2.24-.15-3.3-.3-1.07-1.06-2.07-2.13-2.35-1.5-.39-3.08.85-3.43,2.35-.33,1.45,1.09,3.16-.69,3.82-1.43.52-3.55.22-3.79,2.33h0Z"/>
            <path class="cls-1" d="M45.19,224.97c.69.86,1.64,1.56,2.73,1.72.63.09,1.28,0,1.92-.09.71-.1,1.42-.21,2.13-.31.14-.02.31-.06.38-.18.04-.08.03-.19.02-.3-.16-.86-.49-1.71-1.12-2.32-.28-.26-.6-.47-.93-.66-1.44-.79-3.4-1.32-5.04-1.01-2.04.39-1.02,1.96-.08,3.14Z"/>
            <path class="cls-1" d="M77.74,257.27c1.14-.24,2.38-.2,3.45.27.8.34,1.48.92,2.11,1.51,2.81,2.7,4.68,6.35,5.25,10.2.07.45.11.97-.17,1.34-.14.19-.34.33-.55.44-.55.33-1.19.62-1.8.45-.55-.16-.95-.68-1.11-1.24-.16-.55-.13-1.14-.09-1.72-.37.61-1.16.92-1.85.72-.69-.19-1.2-.86-1.2-1.57-.44.46-.9.94-1.5,1.17-.61.23-1.38.12-1.73-.42-.5-.77.13-1.77.75-2.46-.69.15-1.29-.65-1.2-1.34.09-.7.64-1.24,1.21-1.66-.33.24-6.76-4.6-1.58-5.71v.02Z"/>
            <path class="cls-2" d="M349.28,136.07c0-72.18-58.52-130.7-130.7-130.7-72.18,0-130.7,58.52-130.7,130.7,0,72.18,58.52,130.7,130.7,130.7v5.37h-1.76c-74.34-.95-134.31-61.51-134.31-136.07C82.51,60.92,143.43,0,218.57,0c75.15,0,136.07,60.92,136.07,136.07v1.76c-.95,74.34-61.51,134.31-136.07,134.31v-5.37c72.19,0,130.7-58.52,130.7-130.7Z"/>
            <path class="cls-3" d="M218.57,259.72c68.29,0,123.65-55.36,123.65-123.65S286.87,12.42,218.57,12.42s-123.65,55.36-123.65,123.65,55.36,123.65,123.65,123.65Z"/>
            <path class="cls-2" d="M175.34,80.16h86.47v104.86c0,4.88-.78,8.2-2.15,6.82-1.37-1.37-3.91-4.1-5.82-3.32-1.92.78-3.2,1.97-1.76,3.62,1.44,1.65,2.15,2.82.98,4.58-1.18,1.76.99,3.32.99,5.07s.78,3.91.19,5.66c-.59,1.76-.78,2.34-1.76,1.76-.98-.59-77.14-72.02-77.14-72.02v-57.04h0Z"/>
            <g>
              <polygon class="cls-1" points="218.58 23.43 221.6 32.75 231.41 32.75 223.48 38.51 226.51 47.83 218.58 42.07 210.65 47.83 213.67 38.51 205.74 32.75 215.55 32.75 218.58 23.43"/>
              <polygon class="cls-1" points="177.29 31.58 183.48 39.18 192.62 35.64 187.31 43.88 193.5 51.48 184.02 48.97 178.71 57.21 178.17 47.42 168.69 44.91 177.83 41.37 177.29 31.58"/>
              <polygon class="cls-1" points="142.4 53.71 150.91 58.56 158.16 51.95 156.18 61.55 164.7 66.4 154.96 67.49 152.98 77.09 148.94 68.16 139.19 69.24 146.44 62.64 142.4 53.71"/>
              <polygon class="cls-1" points="117.35 86.43 127.05 87.87 131.42 79.1 133.04 88.76 142.74 90.21 134.04 94.74 135.67 104.4 128.67 97.54 119.98 102.07 124.35 93.29 117.35 86.43"/>
              <polygon class="cls-1" points="105.45 126.58 115.01 124.42 115.91 114.66 120.92 123.09 130.48 120.93 124.01 128.3 129.02 136.73 120.01 132.85 113.55 140.21 114.45 130.45 105.45 126.58"/>
              <polygon class="cls-1" points="109.54 168.55 117.68 163.08 115 153.66 122.71 159.71 130.85 154.24 127.48 163.45 135.19 169.5 125.39 169.13 122.02 178.34 119.34 168.91 109.54 168.55"/>
              <polygon class="cls-1" points="128.56 205.42 134.17 197.38 128.27 189.56 137.64 192.42 143.26 184.38 143.44 194.18 152.82 197.04 143.55 200.24 143.73 210.04 137.83 202.22 128.56 205.42"/>
              <polygon class="cls-1" points="158.83 233.16 161.16 223.64 152.82 218.48 162.6 217.76 164.93 208.24 168.64 217.31 178.42 216.59 170.93 222.92 174.64 231.99 166.31 226.83 158.83 233.16"/>
              <polygon class="cls-1" points="197.5 248.72 196.24 239 186.6 237.2 195.45 232.99 194.19 223.27 200.93 230.39 209.78 226.18 205.09 234.79 211.83 241.91 202.19 240.11 197.5 248.72"/>
              <polygon class="cls-1" points="239.65 248.72 234.96 240.11 225.33 241.91 232.06 234.79 227.37 226.18 236.22 230.39 242.96 223.27 241.7 232.99 250.55 237.2 240.92 239 239.65 248.72"/>
              <polygon class="cls-1" points="278.33 233.16 270.84 226.83 262.51 231.99 266.22 222.92 258.74 216.59 268.51 217.31 272.22 208.24 274.55 217.76 284.33 218.48 275.99 223.64 278.33 233.16"/>
              <polygon class="cls-1" points="308.59 205.42 299.33 202.22 293.42 210.04 293.6 200.24 284.34 197.04 293.71 194.18 293.89 184.38 299.51 192.42 308.88 189.56 302.98 197.38 308.59 205.42"/>
              <polygon class="cls-1" points="327.61 168.55 317.81 168.91 315.13 178.34 311.76 169.13 301.96 169.5 309.67 163.45 306.3 154.24 314.44 159.71 322.15 153.66 319.47 163.08 327.61 168.55"/>
              <polygon class="cls-1" points="331.7 126.58 322.7 130.45 323.61 140.21 317.14 132.85 308.13 136.73 313.14 128.3 306.67 120.93 316.23 123.09 321.24 114.66 322.14 124.42 331.7 126.58"/>
              <polygon class="cls-1" points="319.8 86.43 312.8 93.29 317.17 102.07 308.48 97.54 301.49 104.4 303.11 94.74 294.42 90.21 304.11 88.76 305.73 79.1 310.1 87.87 319.8 86.43"/>
              <polygon class="cls-1" points="294.76 53.71 290.71 62.64 297.96 69.24 288.22 68.16 284.17 77.09 282.19 67.49 272.45 66.4 280.97 61.55 278.99 51.95 286.24 58.56 294.76 53.71"/>
              <polygon class="cls-1" points="259.86 31.58 259.32 41.37 268.46 44.91 258.98 47.42 258.44 57.21 253.13 48.97 243.65 51.48 249.84 43.88 244.53 35.64 253.67 39.18 259.86 31.58"/>
            </g>
          </g>
        </g>
      </g>
    </g>
  </g>
</svg>