<?xml version="1.0" encoding="UTF-8"?>
<svg id="Layer_2" data-name="Layer 2" xmlns="http://www.w3.org/2000/svg" viewBox="0 0 32 32">
  <defs>
    <style>
      .cls-1 {
        fill: #eadfc3;
      }

      .cls-2 {
        fill: #182a4c;
      }
    </style>
  </defs>
  <g id="Layer_1-2" data-name="Layer 1">
    <g>
      <circle class="cls-1" cx="16" cy="16" r="16"/>
      <g>
        <path class="cls-2" d="M15.88,12.22l-.9.24v-1.33c0-.25.17-.47.41-.53h.06c.22-.07.44.09.44.32v1.29h0Z"/>
        <path class="cls-2" d="M19.07,12.51l-1.13-.23v-1.15c0-.34.24-.59.56-.5l.16.04c.24.07.41.29.41.54v1.29h0Z"/>
        <g>
          <path class="cls-2" d="M24.79,24v-4.6s.01-.05.04-.07l.49-.36h0s.05-.09.01-.12l-4.99-5.2s-.02,0-.03,0l-2.02.33-1.73,1.41-2.47.26s.05-.05.05-.08v-2.07s.03-.07.06-.09l2.33-.71s.03,0,.05,0l3.48.76c.06.01.11-.03.11-.09v-2.75s-.03-.07-.06-.09l-3.52-1.19s-.05,0-.07,0l-2.23,1.08.02,2.61s-.03.07-.06.09l-.3.09s-.06.05-.06.09v1.4l-1.16.19s-.03,0-.04.01l-5.97,4.16c-.07.05-.03.17.06.16l8.3-1.35s.03,0,.04-.02l4.94-3.96s.09-.02.12,0l4.82,5.02-.1.08s-.08.02-.11-.01l-4.62-4.78s-.08-.03-.12,0l-4.9,4.03,4.87-3.67s.08-.02.11,0l4.3,4.45c.06.06.01.15-.07.15l-9.2-.93h-.02l-8,1.24s-.07.04-.07.09v4.48H2.15c2.77,4.78,7.93,8,13.85,8s11.09-3.22,13.85-8h-5.07ZM14.59,10.4l1.92-.93s.05-.01.07,0l3.24,1.09s.06.05.06.09v2.37c0,.06-.05.1-.11.09l-3.22-.7s-.03,0-.05,0l-1.84.56c-.06.02-.12-.03-.12-.09v-2.39s0-.07.04-.08ZM22.06,20.38c0-.05.04-.09.09-.09l1,.08s.08.04.08.09h0v1.91s-.04.09-.09.09l-1-.02s-.08-.04-.08-.09v-1.97ZM16.64,19.98c0-.05.04-.09.09-.09l1.31.1s.08.04.08.09v2.19s-.04.09-.09.09l-1.31-.03s-.08-.04-.08-.09v-2.26ZM12.5,20.02s.03-.08.08-.09l.41-.04.26-.02c.05,0,.09.04.09.09v1.49s-.03.08-.08.09l-.67.04c-.05,0-.09-.04-.09-.09v-1.47ZM11.12,20.16s.03-.08.08-.09l.67-.07c.05,0,.09.03.09.09v1.44s-.03.08-.08.09l-.67.04c-.05,0-.09-.04-.09-.09v-1.42ZM9.73,20.3s.03-.08.08-.09l.67-.07c.05,0,.09.03.09.09v1.39s-.03.08-.08.09l-.67.04c-.05,0-.09-.04-.09-.09v-1.37ZM8.34,20.44s.03-.08.08-.09l.67-.07c.05,0,.09.03.09.09v1.34s-.03.08-.08.09l-.67.04c-.05,0-.09-.04-.09-.09v-1.32ZM19.14,20.18c0-.05.04-.09.09-.09l1.66.13s.08.04.08.09v3.7h-1.83v-3.82Z"/>
          <path class="cls-2" d="M16.53,8.49l3.52,1.26v-.08c0-1.24-.88-2.29-2.02-2.7v-.03c0-.22-.13-.42-.32-.51h.12c.01-.09-.02-.12-.11-.11-.02-.08-.12-.05-.18-.06l-.04-.16s.06-.02.05-.06c-.01-.06-.11-.05-.15-.05,0-.07-.09-.1-.15-.09l.06-.02c.15-.09.13-.32-.03-.39,0,0,.02,0,.03,0,.02,0,.03.01.05.02,0-.04-.02-.06-.06-.08-.02,0-.05-.01-.06-.02,0-.01-.01-.03-.02-.04h.02c-.02-.08,0-.19.05-.26,0,0,.03-.04.04-.04.01,0,.05.02.07.02.05.01.1.02.15,0l-.06-.05s.09.04.14.02c.02,0,.03-.02.05-.03l-.06-.03-.02-.02c.07.04.15.04.21-.01,0,0,.03-.03.03-.03-.04,0-.09-.01-.13-.04,0,0-.02,0-.02-.01.1.04.22.03.29-.07-.06,0-.11,0-.17-.03,0,0-.02,0-.03-.01.14.03.31-.02.36-.16-.09.03-.19.04-.29.03,0,0,0,0,.02,0,.04,0,.08-.01.12-.02.13-.04.24-.14.26-.28,0,0,0,0,0,0,0,0-.06.04-.08.05-.07.04-.16.08-.24.08l.11-.05c.12-.07.23-.2.2-.35h0c-.04.05-.1.1-.15.14-.04.03-.09.06-.14.08.14-.11.27-.27.18-.45-.01,0,0,0,0,0-.02.02-.04.06-.06.09-.12.15-.26.3-.42.41-.03.02-.14.07-.15.1-.02.03,0,.04,0,.07.02.1-.05.21-.16.23-.12-.04-.09-.17.04-.16.02,0,.03.01.05.02,0-.04-.02-.07-.05-.1-.03-.02-.1-.05-.13-.05-.06,0-.13.03-.18.06h.01c-.04.07-.08.13-.14.17.02,0,.04,0,.06-.01,0,0-.03.04-.04.04-.03.02-.05.01-.08,0-.08-.03-.12-.12-.12-.2,0-.03.03-.05,0-.08-.02-.03-.17-.1-.22-.13-.18-.12-.33-.3-.45-.47-.09.18.04.35.18.45-.12-.05-.23-.13-.31-.23-.04.16.08.29.21.36l.1.05c-.12-.01-.23-.07-.33-.14,0,.09.06.18.13.23.07.05.17.07.25.09-.08.02-.16,0-.23-.01-.02,0-.03,0-.05-.01.05.14.22.19.36.16l-.07.03s-.08.01-.12.01c0,0-.01,0-.01,0,.08.09.19.1.29.06-.04.03-.09.05-.14.05-.01.01.05.05.06.05.06.03.12.02.18,0-.02.02-.06.04-.09.05.04.03.08.05.14.04.02,0,.04-.02.06-.02-.02.02-.04.03-.06.04,0,0,0,0,0,0,.05.03.14.02.18-.01-.03.13-.15.23-.26.3l-.12.06c.05.05.11.05.18.03l-.05.04s.1.03.14.01c.01,0,.02-.01.03-.01,0,.01-.03.03-.03.03.12.04.19-.07.26-.15l.02.04s-.07.04-.08.07c0,0,.03,0,.03,0-.13.08-.16.26-.05.37l.07.04c-.07,0-.13.02-.15.09-.04,0-.1,0-.13.03-.03.04,0,.08.04.08l-.04.16c-.06,0-.16-.02-.17.06-.05,0-.11-.01-.12.05,0,.02,0,.04,0,.06h.06c-.19.1-.32.29-.32.51-1.08.37-1.77,1.4-1.81,2.62l2.21-1.07h0Z"/>
          <polygon class="cls-2" points="17.94 20.18 17.49 20.15 17.49 21.08 17.94 21.1 17.94 20.18"/>
          <polygon class="cls-2" points="9.04 20.45 8.49 20.5 8.49 21.26 9.04 21.22 9.04 20.45"/>
          <path class="cls-2" d="M20.02,17.83v-.76l-.75-.09v.07c.03.43.35.76.75.78Z"/>
          <polygon class="cls-2" points="16.56 9.01 16.55 9.01 20.32 10.29 20.58 10.16 16.54 8.71 13.54 10.16 13.78 10.33 16.56 9.01"/>
          <path class="cls-2" d="M20.82,16.94h0c-.03-.4-.31-.72-.66-.77v.78l.66.08v-.08Z"/>
          <path class="cls-2" d="M20.81,17.16l-.65-.08v.74c.33-.05.59-.32.65-.66Z"/>
          <path class="cls-2" d="M20.02,16.16h-.03c-.36.02-.65.32-.71.68l.74.09v-.77Z"/>
          <polygon class="cls-2" points="23.08 20.54 22.72 20.51 22.72 21.3 23.08 21.32 23.08 20.54"/>
          <polygon class="cls-2" points="17.36 21.08 17.36 20.15 16.83 20.11 16.83 21.05 16.83 21.05 17.36 21.08"/>
          <polygon class="cls-2" points="16.83 22.07 17.36 22.09 17.36 21.21 16.83 21.19 16.83 22.07"/>
          <polygon class="cls-2" points="22.58 21.43 22.22 21.41 22.22 22.26 22.22 22.26 22.58 22.27 22.58 21.43"/>
          <polygon class="cls-2" points="17.94 21.24 17.49 21.22 17.49 22.1 17.94 22.12 17.94 21.24"/>
          <polygon class="cls-2" points="22.58 20.5 22.22 20.48 22.22 21.28 22.22 21.28 22.58 21.3 22.58 20.5"/>
          <polygon class="cls-2" points="11.81 20.2 11.26 20.25 11.26 21.06 11.81 21.02 11.81 20.2"/>
          <polygon class="cls-2" points="13.2 20.08 12.64 20.13 12.64 20.96 13.2 20.92 13.2 20.08"/>
          <polygon class="cls-2" points="23.08 21.45 22.72 21.44 22.72 21.44 22.72 22.28 23.08 22.29 23.08 21.45"/>
          <polygon class="cls-2" points="10.43 20.33 9.87 20.37 9.87 21.16 10.43 21.12 10.43 20.33"/>
        </g>
      </g>
    </g>
  </g>
</svg>