<?xml version="1.0" encoding="UTF-8"?>
<svg id="Layer_2" data-name="Layer 2" xmlns="http://www.w3.org/2000/svg" viewBox="0 0 1497.43 554">
  <defs>
    <style>
      .cls-1 {
        fill: #879daf;
      }

      .cls-2 {
        fill: #c1941a;
      }

      .cls-3 {
        fill: #182a4c;
      }
    </style>
  </defs>
  <g id="Layer_1-2" data-name="Layer 1">
    <g>
      <path class="cls-2" d="M451.23,171.98c-3.94,0-6.84.4-8.53,1.21-1.69.81-2.82,2.02-3.22,3.55-.4,1.53-.64,4.11-.64,7.66v66.28h-5.64l-54.57-64.99v46.04c0,3.47.24,6.05.64,7.58.4,1.61,1.53,2.82,3.3,3.63,1.77.81,4.59,1.29,8.53,1.29v5.65h-31.07v-5.65c3.7,0,6.36-.4,8.05-1.29,1.69-.89,2.65-2.1,3.06-3.63.4-1.61.56-4.11.56-7.58v-42.65c0-3.47-.08-6.05-.24-7.74-.16-1.69-.64-3.23-1.29-4.52-.72-1.29-1.85-2.34-3.38-3.14-1.61-.81-3.78-1.37-6.52-1.61v-5.64h24.3l47.56,56.28v-38.14c0-3.14-.24-5.48-.64-7.18-.4-1.69-1.53-2.98-3.22-3.87-1.69-.89-4.43-1.37-8.13-1.37v-5.64h31.15v5.64l-.08-.16Z"/>
      <path class="cls-2" d="M534.05,222.45l-.64,27.49h-74.36v-5.64c5.15,0,8.45-.73,9.9-2.26,1.45-1.45,2.25-4.03,2.25-7.66v-52.57c0-2.42-.24-4.27-.72-5.56-.48-1.37-1.61-2.42-3.3-3.14-1.77-.73-4.43-1.13-8.13-1.13v-5.64h69.29l1.13,21.69h-5.63c-1.29-4.84-2.74-8.22-4.43-10.32-1.69-2.1-3.54-3.39-5.64-3.79-2.09-.4-5.15-.73-9.33-.73h-15.61v29.51h8.53c2.9,0,5.07-.24,6.52-.81,1.45-.48,2.41-1.45,2.98-2.9.56-1.45.97-3.71,1.21-6.77h5.87v27.82h-5.63c-.16-3.07-.56-5.32-1.21-6.85-.64-1.45-1.69-2.42-3.14-2.9-1.45-.48-3.54-.73-6.52-.73h-8.61v19.67c0,3.3.08,5.72.24,7.17.16,1.53.64,2.82,1.29,3.79.64.97,1.85,1.77,3.54,2.18,1.69.4,3.94.65,6.92.65h6.68c2.82,0,5.55-.32,8.13-1.05,2.57-.72,5.07-2.58,7.57-5.56,2.49-2.98,4.18-7.66,5.15-14.03h5.8l-.08.08Z"/>
      <path class="cls-2" d="M659.68,171.98c-2.98.24-5.15.73-6.52,1.45-1.37.73-2.49,2.02-3.3,3.87-.8,1.85-1.85,5.08-3.14,9.84l-17.38,64.34h-8.53l-21.33-60.15-20.04,60.15h-8.45l-19.32-66.11c-1.13-3.95-2.17-6.85-3.14-8.79-.97-1.85-2.09-3.14-3.38-3.71-1.29-.56-3.14-.89-5.47-.89v-5.64h36.14v5.64c-2.82,0-4.91.24-6.2.65-1.29.48-1.93,1.69-1.93,3.63,0,1.29.48,3.55,1.45,6.69l12.15,41.76,19.56-58.45h8.05l20.68,58.45,10.46-39.18c.72-2.66,1.13-4.84,1.13-6.45,0-2.98-.97-4.92-2.82-5.72-1.85-.81-4.27-1.29-7.16-1.37v-5.64h28.65v5.64h-.16Z"/>
      <path class="cls-2" d="M793.43,249.95h-41.04v-5.64c3.38,0,5.87-.4,7.65-1.13,1.77-.72,2.82-1.77,3.3-3.23.48-1.37.72-3.22.72-5.56v-25.07h-38.71v25.07c0,3.47.72,5.97,2.17,7.5,1.45,1.53,4.75,2.34,9.82,2.34v5.64h-41.37v-5.64c3.3,0,5.87-.4,7.64-1.13,1.77-.72,2.9-1.77,3.38-3.14.48-1.37.8-3.22.8-5.56v-52.57c0-2.34-.24-4.19-.72-5.48-.48-1.29-1.61-2.42-3.3-3.14-1.69-.81-4.27-1.21-7.73-1.21v-5.64h41.37v5.64c-5.07,0-8.37.73-9.82,2.26-1.45,1.53-2.17,4.03-2.17,7.58v20.56h38.71v-20.56c0-2.34-.24-4.19-.64-5.48-.48-1.37-1.53-2.42-3.22-3.14-1.69-.81-4.27-1.21-7.81-1.21v-5.64h41.04v5.64c-3.46,0-6.04.4-7.73,1.21-1.69.81-2.74,1.85-3.22,3.14-.48,1.29-.72,3.14-.72,5.48v52.57c0,2.26.24,4.03.64,5.4.4,1.37,1.53,2.42,3.22,3.23,1.69.81,4.35,1.21,7.81,1.21v5.64l-.08.08Z"/>
      <path class="cls-2" d="M885.26,249.95h-39.35v-5.65c3.3,0,5.71-.24,7.24-.72s2.25-1.61,2.25-3.39c0-1.21-.24-2.5-.72-3.79l-3.94-9.84h-27.12l-2.01,5.4c-1.13,3.06-1.69,5.24-1.69,6.61,0,2.5.97,4.03,2.9,4.68,1.93.64,4.1.97,6.68.97v5.64h-28.73v-5.64c2.33,0,4.26-.4,5.87-1.29,1.61-.89,3.14-2.5,4.59-4.92,1.45-2.42,3.06-5.81,4.75-10.24l24.06-63.13h5.88l25.43,65.15c1.85,4.6,3.22,7.74,4.02,9.35.89,1.61,2.09,2.9,3.54,3.79,1.53.89,3.62,1.29,6.44,1.29v5.64l-.08.08ZM848.64,220.52l-11.51-29.19-10.94,29.19h22.45Z"/>
      <path class="cls-2" d="M1008.64,249.95h-41.85v-5.64c3.62,0,6.28-.32,7.97-1.05,1.69-.72,2.82-1.77,3.3-3.14.48-1.37.8-3.23.8-5.64v-52.41l-31.55,67.97h-3.78l-31.95-67.97v49.75c0,2.66.08,4.68.24,6.05.16,1.37.64,2.58,1.45,3.55.72.97,1.93,1.69,3.62,2.18,1.61.48,3.94.73,6.84.73v5.64h-30.9v-5.64c2.98,0,5.23-.24,6.84-.73,1.61-.48,2.82-1.21,3.54-2.26.72-.97,1.21-2.18,1.37-3.55.16-1.37.24-3.39.24-6.05v-47.33c0-3.55-.16-6.05-.56-7.66-.4-1.53-1.37-2.74-3.06-3.55-1.69-.81-4.43-1.21-8.37-1.21v-5.64h30.5l27.69,59.02,27.77-59.02h29.86v5.64c-5.15,0-8.45.73-9.98,2.26-1.53,1.53-2.25,4.03-2.25,7.58v52.57c0,2.26.24,4.11.72,5.48.48,1.37,1.61,2.5,3.38,3.22,1.77.73,4.43,1.13,8.05,1.13v5.64l.08.08Z"/>
      <path class="cls-2" d="M1091.53,188.59c0,6.85-2.09,12.09-6.36,15.64-4.26,3.55-9.17,5.81-14.89,6.85-5.71,1.05-11.75,1.53-18.11,1.53h-5.55v21.85c0,2.5.24,4.35.81,5.72.56,1.37,1.69,2.42,3.46,3.06,1.77.73,4.43,1.05,8.05,1.05v5.64h-42.01v-5.64c3.54,0,6.2-.4,7.89-1.13,1.69-.73,2.82-1.77,3.3-3.14.48-1.37.8-3.23.8-5.65v-52.81c0-2.42-.24-4.27-.72-5.56-.48-1.37-1.61-2.42-3.3-3.14-1.69-.73-4.35-1.13-7.97-1.13v-5.8l23.82-.65c1.21,0,2.58,0,4.02-.08,1.45-.08,2.66,0,3.46,0h8.45c4.91.24,9.58.65,14.08,1.45,4.51.73,9.09,2.82,13.68,6.29,4.59,3.47,6.92,8.63,6.92,15.72l.16-.08ZM1072.54,188.67c0-6.69-1.93-11.13-5.79-13.38-3.86-2.26-9.01-3.39-15.29-3.39-1.13,0-2.74,0-4.83.16v33.62h5.64c6.03,0,10.94-1.05,14.65-3.14,3.7-2.1,5.63-6.69,5.63-13.87Z"/>
      <path class="cls-2" d="M1161.55,225.92c0,2.58-.56,5.32-1.69,8.22-1.13,2.9-2.82,5.64-4.99,8.3-2.25,2.66-5.07,4.84-8.45,6.45-3.38,1.69-7.32,2.5-11.83,2.5s-8.85-.97-13.2-2.9c-4.35-1.94-8.05-4.84-11.11-8.63-1.29,3.06-2.17,5.89-2.49,8.47h-5.63v-28.62h5.63c1.05,4.11,2.42,7.98,4.27,11.61,1.85,3.63,4.35,6.77,7.65,9.35,3.3,2.58,7.32,3.95,12.15,3.95,4.19,0,7.56-1.13,10.06-3.47,2.49-2.34,3.78-5.16,3.78-8.71,0-1.94-.4-3.71-1.21-5.16-.8-1.45-1.93-2.82-3.38-3.95-1.45-1.21-3.46-2.42-6.04-3.79-2.58-1.37-5.47-2.74-8.77-4.19-5.07-2.42-9.17-4.76-12.39-7.26-3.22-2.5-5.71-4.76-7.32-7.09-1.69-2.26-2.82-4.43-3.46-6.53-.64-2.1-.97-4.11-.97-6.21,0-3.71,1.05-7.42,2.98-11.05,2.01-3.63,4.99-6.61,8.85-8.95,3.86-2.34,8.37-3.47,13.44-3.47,3.86,0,7.65.89,11.11,2.66,3.54,1.77,6.6,4.11,9.17,7.18.72-1.69,1.45-4.11,2.01-7.26h5.79v23.3h-5.79c-4.1-12.74-11.27-19.03-21.41-19.03-3.7,0-6.68.97-8.93,2.9-2.25,1.93-3.38,4.43-3.38,7.58,0,2.42.72,4.51,2.09,6.29,1.37,1.77,3.22,3.31,5.47,4.6,2.25,1.29,5.96,3.14,11.03,5.48,6.2,2.9,10.94,5.48,14.41,7.58,3.46,2.1,6.44,4.84,8.77,8.06,2.42,3.22,3.62,7.17,3.62,11.77h.16Z"/>
      <path class="cls-2" d="M1266.41,249.95h-41.04v-5.64c3.38,0,5.88-.4,7.65-1.13,1.77-.72,2.82-1.77,3.3-3.23.48-1.37.72-3.22.72-5.56v-25.07h-38.71v25.07c0,3.47.72,5.97,2.17,7.5,1.45,1.53,4.75,2.34,9.82,2.34v5.64h-41.37v-5.64c3.3,0,5.87-.4,7.65-1.13,1.77-.72,2.9-1.77,3.38-3.14.48-1.37.81-3.22.81-5.56v-52.57c0-2.34-.24-4.19-.72-5.48-.48-1.29-1.61-2.42-3.3-3.14-1.69-.81-4.26-1.21-7.73-1.21v-5.64h41.37v5.64c-5.07,0-8.37.73-9.82,2.26-1.45,1.53-2.17,4.03-2.17,7.58v20.56h38.71v-20.56c0-2.34-.24-4.19-.64-5.48-.48-1.37-1.53-2.42-3.22-3.14-1.69-.81-4.26-1.21-7.81-1.21v-5.64h41.04v5.64c-3.46,0-6.04.4-7.73,1.21-1.69.81-2.74,1.85-3.22,3.14-.48,1.29-.72,3.14-.72,5.48v52.57c0,2.26.24,4.03.64,5.4.4,1.37,1.53,2.42,3.22,3.23,1.69.81,4.35,1.21,7.81,1.21v5.64l-.08.08Z"/>
      <path class="cls-2" d="M1316.72,249.94h-42.33v-5.64c3.54,0,6.2-.32,7.97-1.05,1.77-.64,2.98-1.69,3.54-3.06.56-1.37.8-3.3.8-5.81v-52.57c0-3.63-.72-6.13-2.25-7.66-1.53-1.45-4.91-2.26-10.14-2.26v-5.64h42.33v5.64c-3.54,0-6.2.32-7.97,1.05-1.77.73-2.98,1.69-3.54,3.06-.56,1.37-.81,3.23-.81,5.81v52.57c0,2.42.24,4.27.81,5.65.56,1.37,1.69,2.42,3.38,3.14,1.77.73,4.43,1.13,8.13,1.13v5.64h.08Z"/>
      <path class="cls-2" d="M1414.82,249.94h-22.37c-.8-.89-1.85-2.26-3.06-3.95-1.21-1.69-2.58-3.79-3.94-6.05-1.45-2.34-2.65-4.27-3.54-5.81l-5.63-9.35c-2.58-4.19-4.43-7.1-5.79-8.63-1.29-1.53-2.74-2.5-4.43-2.98-1.69-.4-4.51-.65-8.45-.65h-3.14v21.85c0,2.34.24,4.19.72,5.56.48,1.37,1.69,2.5,3.46,3.23,1.85.72,4.51,1.13,7.97,1.13v5.64h-41.85v-5.64c5.07,0,8.37-.72,9.82-2.26,1.45-1.45,2.17-4.03,2.17-7.66v-52.81c0-3.55-.72-6.13-2.09-7.58-1.37-1.45-4.75-2.26-9.9-2.26v-5.81l19.32-.64c1.45-.08,3.14-.16,5.07-.16h5.31c1.29,0,3.38,0,6.36.16,4.1.16,8.05.4,11.67.73,3.62.4,6.44.81,8.53,1.45,3.06.81,6.04,2.1,8.77,3.87,2.74,1.77,4.99,4.19,6.76,7.18,1.77,2.98,2.66,6.37,2.66,10.32,0,2.82-.64,5.48-1.85,8.14-1.21,2.66-3.14,5-5.87,7.01-2.66,2.1-6.2,3.71-10.62,4.84,2.98,1.77,5.55,3.95,7.64,6.53,2.09,2.58,5.39,7.42,9.82,14.43,2.58,3.95,4.75,7.01,6.44,9.03,1.69,2.01,3.22,3.39,4.67,4.11,1.45.73,3.22,1.21,5.39,1.37v5.64ZM1380.22,188.59c0-6.69-2.01-11.05-6.04-13.22-4.02-2.18-9.34-3.31-15.86-3.31h-3.86v33.62h3.86c6.2,0,11.43-.97,15.61-2.98,4.18-2.01,6.28-6.69,6.28-14.11Z"/>
      <path class="cls-2" d="M1496.67,222.45l-.64,27.49h-74.36v-5.64c5.15,0,8.45-.73,9.9-2.26,1.45-1.45,2.25-4.03,2.25-7.66v-52.57c0-2.42-.24-4.27-.72-5.56-.48-1.37-1.61-2.42-3.3-3.14-1.77-.73-4.43-1.13-8.13-1.13v-5.64h69.29l1.13,21.69h-5.63c-1.29-4.84-2.74-8.22-4.43-10.32-1.69-2.1-3.54-3.39-5.63-3.79-2.09-.4-5.15-.73-9.33-.73h-15.61v29.51h8.53c2.9,0,5.07-.24,6.52-.81,1.45-.48,2.42-1.45,2.98-2.9.56-1.45.97-3.71,1.21-6.77h5.88v27.82h-5.64c-.16-3.07-.56-5.32-1.21-6.85-.64-1.45-1.69-2.42-3.14-2.9-1.45-.48-3.54-.73-6.52-.73h-8.61v19.67c0,3.3.08,5.72.24,7.17.16,1.53.64,2.82,1.29,3.79.64.97,1.85,1.77,3.54,2.18,1.69.4,3.94.65,6.92.65h6.68c2.82,0,5.55-.32,8.13-1.05,2.58-.72,5.07-2.58,7.56-5.56,2.49-2.98,4.19-7.66,5.15-14.03h5.8l-.08.08Z"/>
      <path class="cls-3" d="M360.11,503.03v-216.84h173.12v52.65h-113.18v36.84h102.31v49.85h-102.31v77.44h-60.01l.07.07Z"/>
      <path class="cls-3" d="M746.19,474.48c-22.35,21.91-50.17,32.86-83.31,32.86s-60.89-10.89-83.04-32.66c-22.14-21.77-33.21-48.48-33.21-80.04s11.21-57.99,33.56-79.9c22.35-21.91,50.16-32.86,83.31-32.86s60.83,10.89,83.04,32.66c22.14,21.77,33.21,48.48,33.21,80.04s-11.21,58.06-33.56,79.9ZM663.49,453.12c16.27,0,29.53-5.68,39.71-17.05,10.18-11.37,15.31-25.2,15.31-41.49s-5.26-29.92-15.79-41.35c-10.53-11.43-23.78-17.19-39.91-17.19s-29.25,5.68-39.44,17.05c-10.18,11.37-15.31,25.2-15.31,41.49s5.19,29.92,15.58,41.35c10.39,11.43,23.65,17.19,39.71,17.19h.14Z"/>
      <path class="cls-3" d="M809.2,503.03v-216.84h102.31c31.51,0,55.02,7.74,70.46,23.21,12.78,12.8,19.14,29.92,19.14,51.42,0,31.77-14.83,54.02-44.49,66.62l51.67,75.59h-69.23l-43.6-65.66h-26.31v65.66h-60.01.07ZM869.21,390.27h39.57c10.12,0,17.98-2.33,23.65-6.98,5.67-4.66,8.48-11.09,8.48-19.38s-2.8-14.86-8.48-19.17c-5.67-4.31-13.67-6.5-23.99-6.5h-39.3v52.04h.07Z"/>
      <path class="cls-3" d="M1128.1,507.01c-31.71,0-56.38-8.29-73.88-24.79-17.5-16.5-26.31-41.29-26.31-74.36v-121.74h60.89v120.5c0,15.27,3.55,26.77,10.66,34.51,7.11,7.74,16.88,11.64,29.25,11.64s22.08-3.7,29.25-11.16c7.11-7.46,10.66-18.55,10.66-33.48v-122.01h60.89v120.16c0,33.89-8.89,59.09-26.72,75.73-17.84,16.64-42.72,24.92-74.7,24.92v.07Z"/>
      <path class="cls-3" d="M1267.38,503.03v-216.84h63.36l51.67,83.94,51.67-83.94h63.35v216.84h-59.66v-124.54l-55.36,84.9h-1.23l-55.02-84.28v123.93h-58.77Z"/>
      <path class="cls-2" d="M890.53,80.33l-1.43,4.78h-10.35l-7.9,25.79c-.61,1.84-.88,3.21-.88,4.03,0,.75.27,1.43.75,1.98.48.61,1.09.89,1.84.89,2.04,0,3.81-.96,5.31-2.93s2.93-4.09,4.09-6.41h4.9c-1.97,4.3-4.15,7.71-6.61,10.1-2.45,2.39-4.77,4.03-6.88,4.78-2.11.75-4.09,1.16-5.86,1.16-3,0-5.31-.89-6.95-2.59-1.7-1.77-2.52-4.03-2.52-6.96,0-1.98.54-4.71,1.57-8.12l6.74-21.83h-9.74l1.5-4.78h9.67l4.77-15.9h12.39l-4.77,15.9h10.28l.07.14Z"/>
      <path class="cls-2" d="M948.63,109.33c-2.18,4.09-4.9,7.57-8.11,10.3-3.2,2.8-6.67,4.16-10.56,4.16-2.86,0-4.97-.61-6.4-1.91-1.43-1.3-2.11-2.87-2.11-4.71,0-.82.07-1.64.27-2.39.2-.75.54-1.98,1.09-3.68l3.95-13.24c.82-2.66,1.23-4.78,1.23-6.35,0-.68-.14-1.3-.34-1.91-.2-.61-.54-1.02-1.02-1.36-.48-.34-1.02-.48-1.77-.48-2.72,0-5.79,2.18-9.2,6.48-3.4,4.3-5.92,8.32-7.42,12.01-2.93,7.16-4.63,11.6-5.04,13.24l-.95,3.55h-12.39l17.84-58.47c.82-2.25,1.23-3.75,1.23-4.5,0-1.23-.48-2.05-1.5-2.46-1.02-.41-2.38-.61-4.22-.61h-1.57l1.57-4.78c8.31-.14,14.16-.55,17.5-1.23h3.54l-13.55,44.35c2.38-3.27,4.5-6,6.27-8.12,1.77-2.12,4.09-4.03,6.95-5.8,2.86-1.77,6.06-2.66,9.54-2.66,2.52,0,4.63.61,6.27,1.91,1.63,1.3,2.45,2.87,2.45,4.84,0,1.64-.61,4.5-1.91,8.53l-5.18,17.19c-.61,1.84-.88,3.14-.88,3.82,0,.41.07.75.27,1.16.2.41.54.55,1.02.55,2.11,0,4.7-2.52,7.76-7.57h5.38v.14Z"/>
      <path class="cls-2" d="M1000.11,87.49c0,1.43-.41,3.07-1.29,4.91s-2.45,3.82-4.77,5.94c-2.32,2.12-5.58,3.96-9.88,5.53-4.29,1.57-9.67,2.73-16.21,3.27l-1.23.14c-.27,1.36-.41,2.66-.41,3.89,0,2.59.61,4.43,1.84,5.53,1.23,1.16,3,1.71,5.38,1.71,5.24,0,10.22-2.8,14.98-8.46h5.52c-2.18,3.27-5.45,6.55-9.81,9.82-4.36,3.21-9.54,4.84-15.6,4.84-4.16,0-7.76-1.09-10.69-3.34-3-2.25-4.43-5.53-4.43-9.89,0-5.32,1.5-10.51,4.43-15.56,2.93-5.05,7.01-9.14,12.05-12.28,5.11-3.14,10.69-4.71,16.69-4.71,4.83,0,8.24.82,10.35,2.46,2.04,1.64,3.13,3.68,3.13,6.21h-.07ZM989.15,87.29c0-1.16-.41-2.18-1.23-3.14-.82-.96-1.91-1.43-3.27-1.43-2.45,0-4.7.82-6.67,2.52-1.98,1.71-3.75,3.68-5.11,6s-2.52,4.64-3.41,7.03c-.88,2.39-1.43,3.82-1.63,4.37,7.08-1.16,12.39-3.21,15.94-6,3.61-2.8,5.38-5.94,5.38-9.28v-.07Z"/>
      <path class="cls-3" d="M779.74,93.48v8.24h-419.7v-8.24h419.7Z"/>
      <path class="cls-3" d="M1496.75,93.48v8.24h-419.7v-8.24h419.7Z"/>
      <path class="cls-1" d="M182.84,256.82v82.67l-34.97,3.61v-31.56l4.63-3.15.25-36.7,30.08-14.86Z"/>
      <path class="cls-3" d="M183.09,245.17l50.55,17.26v-1.17c0-17-12.67-31.41-29.01-36.95v-.51c0-3.06-1.89-5.7-4.58-7.03h1.68c.15-1.22-.36-1.58-1.63-1.48-.25-1.07-1.68-.71-2.55-.76l-.56-2.24c.46-.05.81-.31.71-.76-.15-.86-1.53-.71-2.24-.71-.1-1.02-1.22-1.37-2.19-1.27l.87-.36c2.14-1.27,1.83-4.33-.41-5.3,0-.1.31-.05.41-.05.25,0,.51.15.76.2.05-.51-.36-.86-.81-1.07-.25-.1-.66-.15-.81-.31-.1-.15-.15-.46-.31-.61h.25c-.25-1.07,0-2.6.66-3.51.1-.1.41-.51.51-.56.15-.05.76.25.97.36.66.2,1.48.2,2.14-.1l-.92-.66c.66.31,1.27.51,2.04.2.25-.1.51-.31.76-.41l-.92-.46-.25-.25c.97.51,2.19.51,3.05-.15.05-.05.46-.41.41-.46-.61,0-1.27-.2-1.83-.51-.1-.05-.25-.1-.31-.2,1.43.51,3.21.36,4.12-.92-.81,0-1.63-.1-2.39-.36-.1,0-.36-.1-.41-.2,1.99.41,4.48-.25,5.19-2.19-1.32.41-2.7.61-4.12.46,0-.1.1-.1.2-.1.56-.1,1.17-.15,1.78-.36,1.83-.56,3.41-1.93,3.67-3.82q0-.1-.1-.1c-.1,0-.92.61-1.12.71-1.02.56-2.24,1.07-3.46,1.12l1.58-.76c1.78-.97,3.26-2.75,2.9-4.78h-.1c-.56.76-1.37,1.37-2.19,1.93-.61.41-1.32.87-2.09,1.07,1.99-1.48,3.87-3.72,2.6-6.16-.15,0-.1,0-.1.05-.31.36-.56.81-.86,1.22-1.68,2.09-3.77,4.17-6.06,5.65-.51.31-1.93,1.02-2.14,1.43-.25.46,0,.56.1.97.36,1.43-.76,2.9-2.24,3.21-1.78-.56-1.32-2.39.61-2.19.25,0,.46.15.71.2.05-.51-.25-1.02-.66-1.32-.36-.2-1.43-.66-1.88-.71-.92-.05-1.83.46-2.55.87l.2.15c-.51.87-1.17,1.63-2.09,2.19.25.1.61,0,.81-.15.05.05-.41.51-.51.56-.41.2-.66.15-1.07,0-1.12-.41-1.78-1.68-1.68-2.75.05-.46.41-.61.05-1.12-.25-.41-2.44-1.43-3.11-1.83-2.6-1.68-4.73-4.12-6.52-6.46-1.27,2.44.61,4.84,2.65,6.21-1.68-.71-3.26-1.83-4.43-3.21-.61,2.14,1.12,3.97,3.05,4.99l1.48.61c-1.78-.15-3.36-.92-4.73-1.88-.05,1.22.87,2.44,1.88,3.16,1.07.71,2.39,1.02,3.61,1.17-1.07.25-2.24.1-3.31-.15-.25-.05-.51-.1-.71-.2.71,1.99,3.16,2.65,5.19,2.19l-.97.36c-.61.15-1.12.15-1.73.15-.1,0-.2-.05-.15.1,1.07,1.22,2.7,1.37,4.22.87-.56.41-1.32.66-2.09.66-.15.15.66.66.81.76.92.41,1.68.25,2.6-.1-.36.36-.81.51-1.27.71.61.41,1.22.61,1.93.51.31-.05.61-.2.92-.31-.25.25-.61.46-.92.56q0,.1.05.1c.76.41,1.93.25,2.65-.15-.41,1.78-2.19,3.16-3.77,4.17l-1.78.87c.76.71,1.58.71,2.55.36l-.76.51c.56.46,1.43.41,2.09.15.2-.05.31-.15.46-.2.05.15-.46.41-.41.46,1.78.56,2.8-.92,3.67-2.09l.31.56c-.36.36-.97.51-1.07,1.02.05,0,.41-.1.36.1-1.83,1.12-2.24,3.56-.66,5.04l.97.61c-.97-.1-1.88.36-2.14,1.27-.56.05-1.43-.1-1.83.41-.36.51-.05,1.07.61,1.07l-.56,2.24c-.87.05-2.24-.31-2.49.76-.66,0-1.58-.15-1.68.66v.81h.81c-2.75,1.32-4.58,3.97-4.58,7.02-15.53,5.04-25.4,19.14-26.06,35.99l31.71-14.66v.1Z"/>
      <path class="cls-3" d="M95.44,407.65l-7.94.66v10.79l7.94-.56v-10.89Z"/>
      <path class="cls-3" d="M67.65,420.48l7.94-.51v-10.64l-7.94.66v10.48Z"/>
      <path class="cls-3" d="M135.2,404.24l-7.89.66v11.4l7.89-.56v-11.51Z"/>
      <path class="cls-3" d="M203.25,405.67l-6.41-.41v12.78l6.41.26v-12.63Z"/>
      <path class="cls-3" d="M115.34,405.97l-7.94.66v11.05l7.94-.51v-11.2Z"/>
      <path class="cls-3" d="M203.25,420.17l-6.41-.26v12.06l6.41.2v-12.01Z"/>
      <path class="cls-3" d="M187.37,431.68l7.53.2v-12.06l-7.53-.31v12.17Z"/>
      <path class="cls-3" d="M194.86,417.93v-12.78l-7.53-.51v12.98h.05l7.48.31Z"/>
      <path class="cls-3" d="M244.69,361.18c-.41-5.5-4.43-9.82-9.52-10.64v10.69l9.52,1.07v-1.12Z"/>
      <path class="cls-3" d="M183.4,252.24l54.06,17.61,3.77-1.83-58.08-19.8-43.01,19.9,3.46,2.29,39.81-18.17Z"/>
      <path class="cls-3" d="M233.18,350.44h-.41c-5.19.31-9.26,4.33-10.13,9.42l10.59,1.17v-10.59h-.05Z"/>
      <path class="cls-3" d="M233.18,373.39v-10.48l-10.74-1.17v.92c.41,5.9,5.09,10.49,10.74,10.74Z"/>
      <path class="cls-3" d="M309.18,387.29l-49.38-49.22h.81c-.26-4.22-.41-8.55-.61-12.78-.36-8.09-.71-15.98-1.17-23.72-.31-4.43-.46-8.91-.66-13.29v-.97c-.15-1.68-.2-3.36-.31-5.04-.15-3.31-.3-6.62-.51-9.93-.2-4.43-.41-9.01-.61-13.54l-.15-4.12c-.26-5.14-.46-10.43-.81-15.68-.26-3.82-.41-7.79-.56-11.25-.15-3.46-.31-7.02-.51-10.54-.46-7.53-.76-15.27-1.02-21.13-.31-7.02-.66-14.51-1.17-23.57-.26-4.53-.46-9.16-.66-13.69l-.26-5.55c-.1-2.39-.25-4.78-.36-7.13-.25-4.99-.56-10.13-.66-15.12-.05-2.6-.26-5.24-.41-7.53-.26-3.61-.46-7.08-.36-10.49,0-.46,0-.97-.05-1.43-.56-4.68-.71-9.62-.86-14.56-.1-3.05-.26-6.26-.41-9.37-.41-6.36-.71-12.73-1.02-20.31-.31-7.02-.66-14.56-1.17-23.72-.31-4.68-.51-9.42-.71-14l-.26-5.14c-.1-1.83-.15-3.66-.3-5.5-.2-3.77-.41-7.69-.46-11.35.31-3.21-1.02-5.75-3.77-6.97-2.65-1.22-5.45-.81-8.35,1.32-2.34,1.68-3.56,4.33-3.26,7.02v.2s-.05.1-.26.31c-.66.81-1.17,1.68-1.63,2.55-1.22-.1-2.39,0-3.36,0h-3.31c-2.29-.97-3.61-2.34-4.17-4.28-1.02-3.31-3.61-4.78-4.84-5.5-.15-.1-.31-.15-.41-.25-1.02-.71-4.73-2.75-8.96,1.02h-.05c-.81.61-1.58,1.17-2.39,1.78-1.37,1.07-2.6,1.99-3.67,2.19-1.88.31-3.46,1.32-4.43,2.9-.61.97-.97,2.09-.97,3.26-.36.25-.66.56-.97.87-.51,0-.97.1-1.48.15-1.88.2-3.72.41-5.4.25l-4.17-.25c-.87-.05-1.68.31-2.24.92-.56.61-.76,1.48-.61,2.24l.87,3.92c.46,2.14,1.78,3.82,3.97,4.99.76.51,1.53.92,2.29,1.37-.1.15-.15.31-.25.46-1.12,2.29-2.09,4.28-3.61,5.6-1.83,1.58-2.75,3.61-2.55,5.7.1,1.07.51,2.39,1.68,3.72-.87,1.27-1.88,2.6-3.21,4.02-1.83,2.04-4.12,4.58-5.55,7.89-1.12,2.6-.97,4.99.41,6.92-.15.41-.31.87-.41,1.32-.05.15-.1.31-.1.46-1.58.76-2.95,1.93-3.92,3.41-2.09,3.11-2.19,6.97-.25,10.03.15.31.31.56.31.76.71,3.21,1.63,6.62,3.41,9.93.05.1.1.15.1.2-.71,1.22-1.93,2.29-3.46,3.61l-.25.2c-2.6,2.24-3.97,5.04-4.12,8.25-.05,1.27-.41,1.53-.61,1.68-3.26,2.44-3.51,5.6-2.75,7.84-.1.2-.31.46-.61.87-.71.92-1.53,1.78-2.39,2.7l-.15.15c-.56.61-1.12,1.22-1.68,1.83-3.46,3.87-4.33,7.84-2.7,11.76.76,1.83,1.83,3.67,3.16,5.45.46.56.46.81.46.81-.25.56-.46,1.12-.71,1.68-.1.31-.25.66-.36.97-.92,2.14-.87,4.53.15,6.52.92,1.88,2.55,3.26,4.58,3.87,1.02.31,2.24.66,3.61.61.1.46.05.92-.31,1.58-1.17,2.04-1.07,4.28,0,6.06-.15.05-.36.1-.51.15-2.55.92-4.38,2.8-5.14,5.09-.51,1.58-.41,3.26.15,4.84-.81.92-1.43,2.09-1.73,3.41-.25,1.27-.56,2.09-.87,2.75-.25.46-.41.87-.66,1.32-.1.2-.15.31-.25.46-2.09.25-4.07,1.53-5.09,3.31-.71,1.17-.97,2.49-.81,3.77-1.68,2.14-3.31,3.82-5.24,4.99-.36.2-.76.46-1.17.76-2.49,1.58-3.46,2.04-4.43,1.88-.87-.15-1.73-.1-2.65.1-2.09.25-4.28.71-6.72,1.53-2.7.87-6.06,1.88-9.06,4.17-1.63,1.22-2.65,2.75-3.1,4.63h-.2c-3.16,0-6.67-.1-10.44,1.17-4.78,1.63-10.94,4.12-15.88,9.47-2.95,3.26-5.45,5.4-8.09,7.02-2.04,1.27-3.21,3.16-3.41,5.5-.31,3.77,1.12,6.72,4.07,8.25,0,.2-.05.41-.05.61-.15,1.68-.31,3.26-.61,4.63-.61,2.44.41,4.23.76,4.78.76,1.58,1.73,2.9,2.55,4.07,1.07,1.48,1.88,2.65,2.04,3.77v.56c.15.61.15,1.07.15,1.32-.46.56-.76,1.07-.97,1.43-1.32,2.14-1.32,4.53,0,7.13-.81.81-1.48,1.73-2.04,2.8-.61,1.17-.97,2.24-1.22,3.16-.15.56-.36,1.22-.56,1.48-.56.81-.87,1.63-1.12,2.29l-1.02.31c-1.27.41-2.09,1.68-1.78,2.95v.15c-.36.31-.71.71-1.02,1.17-2.14,3.15-1.83,6.36-1.63,8.45v.66c.1.66.2,2.09.97,3.56-.31.56-.56,1.07-.71,1.43-.31.61-.51,1.22-.76,1.83-.46,1.12-.87,2.19-1.43,2.95-.31.41-.87.97-1.53,1.58-.76.66-1.68,1.53-2.55,2.55-.15.2-.41.46-.66.71-1.07,1.12-2.8,2.9-3.41,5.55-1.43,1.22-2.49,2.85-3,4.68-.25.41-.56.76-.81,1.17l-.15.2c-1.17,1.53-2.44,3.31-3.41,5.34-.81,1.63-1.73,2.8-2.85,3.56-3.1,2.14-4.28,5.4-3.26,9.21.1.41.25.76.36,1.12-5.55,3-8.81,8.19-9.06,14.71-.1,1.98-.61,3.92-1.63,6.21-.1.26-.25.51-.41.86-.81,1.68-2.14,4.28-1.68,7.53.15,1.32.05,1.37-.92,1.68-4.63,1.48-7.23,5.3-6.92,10.23.1,1.88-.71,3.92-1.83,6.41-1.22,2.65-1.02,5.24.51,7.63.61.92.61,1.27.61,1.27-.25,1.22-.41,2.44-.61,3.67v.41c-.51,2.95-.97,5.75-1.68,8.4-.36,1.32-.66,2.65-.97,3.97-.41,1.63-.81,3.36-1.27,4.99-1.43,4.84-.1,8.81.97,12.01.31.81.56,1.63.76,2.39.15.66.41,1.27.71,1.83-.87,2.04-1.68,3.92-2.95,4.99-3.26,2.9-4.53,7.07-3.51,11.55.41,1.73.1,2.6-.51,3.41-1.27,1.78-1.63,3.87-.87,5.7,0,.05-.05.15-.05.2-.15.56-.36,1.17-.51,1.83-.61,3.21-.97,7.38,2.09,11.45-.41,2.19-.66,4.22-.71,6.21v.2l-.15.15c-1.17,1.02-4.28,3.67-3.46,8.09v.31c.31,1.27.51,2.49.56,3.56,0,.2.05.41.05.61-1.43.3-2.95.66-4.48,1.17-4.17.71-5.7,3.92-5.75,6.46,0,.61,0,1.22.15,1.78-3,1.68-4.17,4.73-3,7.94.2.56.36,1.27.51,2.09l.1.35c.66,3.06.1,4.02-.56,4.73-2.6,2.85-3.77,6.36-3.46,10.18.1.92.25,1.68.41,2.29.05.2.15.41.15.56.51,4.94,2.49,9.62,5.8,13.9l.25.3s.31.31.36.46c-.15,2.19.66,4.17,2.34,5.5.61.51,2.09,1.42,4.12,1.42.1.26.15.46.2.61v.2c1.73,5.09,2.6,7.69,4.53,9.11,1.27.97,2.7,1.27,5.04,1.78,3.46.76,6.21.87,7.69.92h.31c3.36.15,5.7.56,7.64.86.81.15,1.53.26,2.24.36,12.47,1.63,99.36,1.93,141.15,2.09,11.91.05,21.28.1,21.99.1.05,0,.41.05.97.05,0,0,4.78-1.68,6.21-3.82.51-.76,1.07-1.53,1.73-2.39.97-1.27,1.93-2.6,2.8-3.97.25-.26,1.07-.56,1.37-.51.36.1.76.2,1.17.31.77.2,1.53.41,2.14.61,2.29.86,4.58.66,6.41-.61,1.07-.76,2.8-2.49,2.49-5.65-.05-.56-.1-1.12-.2-1.68-.1-.61-.2-1.22-.2-1.78,0-.46-.05-.92-.1-1.43,0-.56-.15-2.24-.1-2.49,0,0,.05-.05.26-.15,1.37-.76,2.6-1.58,3.72-2.44.61.15,1.27.31,1.93.51,1.53.41,2.95.76,4.28,1.22,3.41,1.17,7.68.26,9.52-4.27v-.15c.71-1.53,1.43-3.31,1.89-5.24.1-.46.25-.92,2.19-1.22,4.07-.66,8.81-1.58,13.29-4.28,1.12-.66,1.53-.46,1.93-.2l.97.56c.71.41,1.48.81,1.89,1.17,3.41,2.95,7.48,3.31,12.06,1.12,3.92-1.88,5.96-5.14,5.7-9.16v-.66s.26-.3.36-.51c.97-1.27,2.6-3.41,2.7-6.47.1-.2.36-.56.56-.92l.46-.66c.71-1.07,1.48-2.29,2.14-3.72,2.04-.81,4.02-2.7,4.07-6.01,0-.61.31-1.53.61-2.49.2-.61.41-1.27.56-1.93.76-2.9,1.17-5.8,1.32-8.91l.56-11.2c0-.31,0-.61-.1-.86v-10.13h-.2v-58.74c0-.41.2-.76.51-.97l7.02-4.89v.1c.56-.46.66-1.27.15-1.78h-.1ZM85.41,426.08v-18.78c0-.61.51-1.12,1.12-1.17l9.57-.92c.71-.05,1.37.46,1.37,1.17v19.14c0,.61-.51,1.12-1.17,1.17l-9.62.61c-.71.05-1.32-.51-1.32-1.17l.05-.05ZM105.31,424.8v-19.45c0-.61.51-1.12,1.12-1.17l9.62-.92c.71-.05,1.37.46,1.37,1.17v19.8c0,.61-.51,1.12-1.17,1.17l-9.62.61c-.71.05-1.32-.51-1.32-1.17v-.05ZM125.22,423.53v-20.16c0-.61.51-1.12,1.12-1.17l5.85-.56,3.77-.31c.71-.05,1.37.51,1.37,1.17v20.41c0,.61-.51,1.12-1.17,1.17l-9.57.61c-.71.05-1.32-.51-1.32-1.17h-.05ZM184.57,433.92v-31.05c0-.66.61-1.22,1.32-1.17l18.73,1.32c.66.05,1.17.56,1.17,1.17v30.13c0,.66-.56,1.17-1.27,1.17l-18.73-.41c-.66,0-1.22-.56-1.22-1.17ZM77.62,426.74c0,.61-.51,1.12-1.17,1.17l-9.57.61c-.71.05-1.32-.51-1.32-1.17v-18.12c0-.61.51-1.12,1.12-1.17l9.62-.92c.71-.05,1.37.46,1.37,1.17v18.43h-.05ZM220.46,453.61v-48.05c0-.66.61-1.22,1.32-1.17l23.77,1.73c.66.05,1.17.56,1.17,1.17v46.32h-26.27ZM262.4,435.39v-27.03c0-.66.61-1.22,1.37-1.17l14.41,1.12c.66.05,1.17.56,1.17,1.17v26.22c0,.66-.56,1.17-1.27,1.17l-14.41-.26c-.66,0-1.22-.56-1.22-1.17l-.05-.05ZM302.77,388.77c-.51.36-1.17.26-1.63-.15l-66.28-65.56c-.41-.46-1.17-.46-1.68-.1l-70.3,55.33,69.89-50.44c.51-.41,1.22-.31,1.63.1l61.75,61.08c.81.81.15,2.14-1.02,1.98l-132.04-12.78h-.31l-114.79,17.05c-.61.1-1.02.61-1.02,1.17v68.97l-24.79,13.29c-.15-.3-.31-.61-.31-.86-.05-1.43-.31-2.8-.56-4.27v-.31c-.31-1.48.61-2.44,1.68-3.31l.2-.15c1.22-1.07,1.78-2.29,1.83-3.97.05-1.88.31-3.87.76-6.01.31-1.37-.61-2.8-1.02-3.31-1.88-2.44-1.68-5.04-1.17-7.43.1-.46.25-.92.36-1.27.36-1.12.56-1.83.36-2.6-.05-.25-.15-.51-.31-.76-.15-.2-.25-.51.15-1.07,1.63-2.24,2.04-4.63,1.37-7.53-.41-1.88-.46-4.48,1.88-6.57,2.24-1.98,3.36-4.68,4.43-7.28l.36-.92s.1-.15.1-.2c.31-.86.05-1.83-.56-2.55-.25-.25-.41-.61-.56-1.07-.25-.86-.56-1.78-.87-2.7-.92-2.8-1.88-5.65-.92-8.96.56-1.78.97-3.56,1.37-5.3.31-1.22.61-2.55.97-3.82.81-2.95,1.22-5.85,1.73-8.96v-.36c.25-1.17.41-2.34.61-3.56.36-1.93-.61-3.72-1.32-4.89-.71-1.07-.56-1.88-.15-2.85,1.32-2.95,2.39-5.7,2.24-8.76-.15-2.6.92-4.28,3.16-4.99,3.56-1.12,5.14-3.56,4.63-7.33-.25-1.78.51-3.26,1.27-4.78.15-.31.31-.66.46-.97,1.27-2.85,1.93-5.4,2.04-8.04.25-4.89,2.49-8.45,6.67-10.54.31-.15.61-.3,1.02-.56.56-.31,1.02-.66,1.32-.97.56-.56.81-1.37.71-2.19-.1-.46-.25-.97-.56-1.58l-.15-.31c-.2-.36-.36-.71-.51-1.12-.56-2.19.2-3.05,1.12-3.67,1.93-1.32,3.46-3.15,4.63-5.65.76-1.63,1.88-3.11,2.95-4.53l.15-.2c.36-.51.71-.97,1.07-1.48l-2.29-1.48,2.39,1.27c.2-.25.36-.61.41-.92.25-1.17.87-2.04,1.83-2.6.71-.46,1.22-1.17,1.27-1.99.15-1.53,1.22-2.65,2.19-3.66.36-.36.71-.71.97-1.07.56-.71,1.27-1.32,1.99-1.99.92-.81,1.78-1.58,2.39-2.6.76-1.17,1.32-2.49,1.83-3.82.25-.51.46-1.12.71-1.63.25-.56.61-1.32,1.17-2.14.76-1.07.61-2.44-.31-3.31-.56-.56-.61-1.43-.61-1.94,0-.25-.05-.51-.1-.92-.15-1.58-.31-3.41.81-5.04.25-.36.56-.61.87-.81.76-.51,1.27-1.27,1.27-2.14h.15c.81-.31,1.48-.92,1.73-1.73.05-.2.15-.46.2-.66.15-.56.31-1.12.66-1.63.61-.86.92-1.88,1.22-2.85.25-.76.46-1.53.81-2.24.51-1.02,1.27-1.83,2.14-2.29.71-.41,1.22-1.27,1.37-2.04.15-.97-.31-1.89-1.12-2.49-.1-.1-.25-.26-.31-.41l-.1-.26c-.41-.86-.56-1.48-.15-2.14,0-.05.1-.15.1-.2.1-.2.2-.36.36-.51,1.48-1.53,1.27-3.31,1.07-5.24v-.56c-.31-2.44-1.68-4.38-3-6.26-.76-1.07-1.53-2.14-2.09-3.31,0-.05-.15-.2-.15-.25-.2-.36-.36-.66-.25-1.12.46-1.78.61-3.56.76-5.6.05-.66.1-1.42.2-2.14.1-.97-.36-1.94-1.27-2.49-.31-.2-.66-.41-.81-.46-.05,0-.15-.1-.25-.1-1.02-.31-2.14-.86-1.88-3.51.05-.71.31-1.17.92-1.53,3.05-1.89,5.96-4.38,9.26-7.99,4.07-4.43,9.37-6.62,13.54-7.99,2.85-.92,5.65-.92,8.6-.86h1.48c.51,0,1.02,0,1.48-.05,1.48-.1,2.6-1.32,2.55-2.7-.05-1.43.31-2.29,1.22-2.95,2.29-1.68,4.89-2.49,7.38-3.31,2.19-.66,4.07-1.12,5.85-1.32.1,0,.25,0,.36-.05.1,0,.31-.05.51,0,3.31.56,5.8-1.02,8.45-2.7.36-.25.71-.46,1.07-.66,3.11-1.88,5.4-4.58,7.43-7.23.51-.66.71-1.58.41-2.34-.1-.25-.15-.61.1-1.07.25-.41.76-.71,1.22-.71,2.7.05,3.46-1.68,4.33-3.56.15-.31.31-.66.51-1.02.56-1.12,1.02-2.34,1.37-4.07.15-.66.46-1.12.92-1.32.76-.31,1.27-1.02,1.53-1.78.25-.76,0-1.63-.46-2.29-.56-.76-.76-1.63-.51-2.34.25-.76.92-1.37,1.83-1.68.51-.15,1.02-.31,1.63-.41,1.07-.2,1.93-1.02,2.19-2.04.05-.31.15-.51.31-.61.61-.51.92-1.32.87-2.14-.05-.81-.51-1.53-1.22-1.99-.92-.61-.56-1.27-.41-1.48,1.17-2.14,1.32-4.28.41-6.36-.15-.41-.31-.76-.36-1.22-.15-.87-.71-1.58-1.53-1.99-.81-.36-1.83-.31-2.6.15-.05,0-.15.1-.2.1-.51.2-1.02.1-2.29-.31-.56-.15-.97-.56-1.27-1.12-.31-.71-.31-1.58,0-2.34.15-.41.31-.76.46-1.17.15-.46.36-.97.56-1.48.87-1.93.56-3.77-1.02-5.9-1.07-1.43-1.88-2.9-2.55-4.38-1.07-2.6.41-4.78,1.83-6.36.51-.56,1.02-1.12,1.53-1.68l.15-.15c.92-.92,1.83-1.93,2.65-2.95,1.27-1.53,2.65-3.31,1.53-5.65-.51-1.12.56-1.88.87-2.14,1.68-1.27,2.6-3.1,2.7-5.6.05-1.83.81-3.26,2.29-4.58l.25-.2c2.04-1.78,3.97-3.46,5.04-5.96.61-1.53.25-2.8-.56-4.22-1.48-2.75-2.29-5.7-2.9-8.55-.15-.76-.51-1.58-.97-2.34-.87-1.37-.81-3.05.15-4.53.61-.92,1.58-1.63,2.6-1.88,1.27-.36,2.09-1.48,2.04-2.7,0-.2,0-.51.1-.81.1-.41.25-.81.36-1.17.2-.61.41-1.17.51-1.78.15-.92-.25-1.83-.97-2.39-.31-.25-.81-.66-.15-2.24,1.07-2.55,2.9-4.53,4.63-6.46,2.14-2.34,3.72-4.48,4.89-6.62l.15-.31c.61-1.22.15-2.65-1.02-3.36-1.07-.61-1.12-1.17-1.12-1.32s-.05-.66.76-1.37c2.34-1.99,3.61-4.63,4.94-7.28.41-.81.81-1.58,1.22-2.44.61-1.22.25-2.7-.97-3.41-.61-.41-1.22-.76-1.83-1.12-.81-.46-1.68-.97-2.55-1.53-.05-.05-.25-.15-.31-.15-.56-.31-1.07-.61-1.27-1.48l-.1-.46h.56c2.14.15,4.17-.05,6.31-.25.81-.1,1.68-.15,2.55-.2.81-.05,1.58-.46,2.04-1.12.36-.51.71-.81,1.07-1.07.41-.2.61-.41.81-.51.87-.66,1.27-1.78.97-2.85-.1-.41-.1-.76.1-1.02.15-.25.41-.41.71-.46,2.44-.41,4.33-1.83,6.21-3.26.71-.51,1.43-1.07,2.19-1.58.1-.05.15-.1.25-.15.1-.1.26-.2.36-.31,1.27-1.12,1.73-.76,2.04-.61.2.15.51.31.81.51.92.56,1.98,1.17,2.39,2.49,1.07,3.56,3.72,6.16,7.74,7.79.15.1.36.15.56.15.41.1.92.05,1.73,0h2.75c1.43,0,2.95-.05,4.43.2,1.22.2,2.44-.41,2.95-1.48l.31-.61c.46-.92.92-1.88,1.53-2.7,1.07-1.37,1.48-2.65,1.27-4.28-.1-.87.36-1.68,1.27-2.39,1.12-.81,1.83-1.02,2.55-.66.26.1.76.31.61,1.68v.51c.05,3.92.26,7.84.51,11.76.1,1.78.2,3.56.31,5.4l.26,5.14c.2,4.63.41,9.42.71,14.05.51,9.16.86,16.7,1.17,23.62.31,7.64.61,14,1.02,20.46.25,3.05.3,6.16.41,9.37.15,4.89.31,9.93.92,14.86v.66c-.1,3.67.1,7.23.36,11,.15,2.24.31,4.84.36,7.33.1,5.09.41,10.28.66,15.32.15,2.34.26,4.73.36,7.13l.26,5.5c.25,4.53.41,9.16.71,13.74.51,9.01.86,16.44,1.17,23.47.25,5.9.61,13.59,1.07,21.23.2,3.46.36,7.02.51,10.43.15,3.56.31,7.53.56,11.4.3,5.19.56,10.49.76,15.63l.15,4.07c.2,4.53.41,9.11.61,13.54.15,3.31.36,6.62.51,9.93.05,1.63.15,3.31.26,4.99v.97c.2,4.38.41,8.91.66,13.39.46,7.74.81,15.58,1.17,23.62.1,2.55.25,5.09.36,7.63l-17.36-17.31s-.26-.15-.41-.15l-28.91,4.48-24.84,19.39-35.53,3.56c.41-.2.76-.61.76-1.12v-28.4c0-.56.36-1.02.92-1.17l33.44-9.77s.41-.05.66,0l49.89,10.44c.81.15,1.58-.41,1.58-1.22v-37.82c0-.56-.36-1.02-.86-1.17l-50.55-16.34c-.31-.1-.66-.1-.97.05l-32.07,14.86.25,35.78c0,.56-.36,1.02-.92,1.17l-4.33,1.27c-.56.15-.92.61-.92,1.17v19.14l-16.59,2.55s-.36.1-.51.2l-85.62,57.06c-1.07.71-.36,2.34.92,2.14l119.11-18.58s.41-.1.56-.26l70.91-54.42c.51-.41,1.22-.31,1.68.1l69.13,68.87-1.48,1.02.15.2ZM154.54,272.5c0-.51.25-.92.71-1.12l27.54-12.78c.31-.15.66-.15.97-.05l46.52,14.91c.56.15.87.66.87,1.17v32.53c0,.81-.76,1.37-1.58,1.22l-46.17-9.62s-.46-.05-.66,0l-26.42,7.74c-.81.26-1.68-.36-1.68-1.17l-.2-32.83h.1Z"/>
      <path class="cls-3" d="M277.06,410.55l-5.24-.36v10.84l5.24.2v-10.69Z"/>
      <path class="cls-3" d="M277.06,423.13l-5.24-.26v11.61l5.24.15v-11.5Z"/>
      <path class="cls-3" d="M269.88,410.09l-5.24-.36v11l5.24.2v-10.84Z"/>
      <path class="cls-3" d="M244.48,364.18l-9.31-1.07v10.18c4.78-.66,8.45-4.38,9.31-9.11Z"/>
      <path class="cls-3" d="M269.88,422.82l-5.24-.26v11.66l5.24.15v-11.55Z"/>
      <path class="cls-3" d="M173.73,296.33v-17.76c0-3.16-3.16-5.45-6.36-4.63l-.81.2c-3.46.86-5.85,3.87-5.85,7.28v18.22l12.98-3.31h.05Z"/>
      <path class="cls-3" d="M219.49,300.4v-17.72c0-3.51-2.44-6.51-5.96-7.43l-2.24-.56c-4.73-1.22-8.09,2.19-8.09,6.82v15.73l16.24,3.16h.05Z"/>
    </g>
  </g>
</svg>