<?xml version="1.0" encoding="UTF-8"?>
<svg id="Layer_2" xmlns="http://www.w3.org/2000/svg" viewBox="0 0 1116.47 810.75">
  <defs>
    <style>
      .cls-1 {
        fill: #036;
      }

      .cls-2 {
        fill: #0564b8;
      }
    </style>
  </defs>
  <rect x="0" y="0" width="1116.47" height="810.75" fill="#fff"/>
  <g id="Layer_1-2" data-name="Layer_1">
    <g>
      <g>
        <g>
          <path class="cls-1" d="M563.57,235.68l.12-.04c-.02-.05-.03-.11-.05-.17-.03.09-.06.16-.09.25l.03-.04Z"/>
          <path class="cls-1" d="M557.05,300.5s0,0,0,0c0,0-.01,0-.02,0h.01Z"/>
          <path class="cls-1" d="M558.66,321.8h0s-.01,0-.02,0h.03Z"/>
          <path class="cls-1" d="M542.48,188.42s0,0,0,0c0,0,0,0,0-.01h-.01Z"/>
          <path class="cls-1" d="M768.69,169.97c-.27-1.71-.24-3.45-.44-5.17-.41-3.6-.43-7.27-2.61-10.49-1.58-2.34-2.86-2.76-5.18-1.27-.75.47-1.72.88-2.55.84-7.49-.38-14.96-1.1-22.45-1.24-6.68-.12-13.43-.1-20.04.75-4.52.58-8.85,2.66-13.61,2.16-2.14-.22-4.33-.13-6.12-1.97.98-.51,1.98-.83,3-.85,3.18-.08,6.38.23,9.52-.12,2.66-.3,5.19-1.64,7.85-1.9,9.13-.91,18.29-.85,27.44-.21,4.98.35,9.94.66,15.31,1.01-3.39-.95-6.37-1.79-9.36-2.6-4-1.09-7.78-2.67-12.13-2.6-9.1.14-18.2-.19-27.3-.35-1.06-.03-2.11-.26-3.17-.23-3.89.12-8.12-.65-11.59.63-6.78,2.5-13.67,2.88-20.69,3.25-5.27.28-10.59.39-15.56,2.64-.52.22-1.25.31-1.75.12-.66-.25-1.2-.83-1.78-1.27.53-.4,1-1.02,1.6-1.18,6.95-1.85,13.97-2.9,21.19-2.9,5.15,0,10.3-.69,15.19-2.56,1.93-.74,3.96-1.23,6.17-1.9.09-1.35,1.19-2.03,2.81-2.12.66-.04,1.31-.08,1.97-.17,2.02-.28,4.07-.52,6.07-.97.51-.12.87-.93,1.31-1.42-.54-.19-1.08-.56-1.62-.56-1.33,0-2.64.23-3.97.26-10.96.18-21.92.35-32.88.53-1.25.03-2.59-.18-3.75.19-4.07,1.31-8.08,2.84-12.13,4.25-1.04.36-2.14.6-3.21.89l-.5-.88c1.16-.96,2.18-2.23,3.51-2.82,2.69-1.2,5.53-2.14,8.36-3.02,3.52-1.1,7.36-1.52,10.6-3.15,9.13-4.59,18.04-9.58,26.96-14.56,2-1.11,3.67-2.78,5.49-4.2-.1-.22-.21-.44-.31-.66-.59-.21-1.2-.61-1.79-.61-2.89.01-5.8-.04-8.67.23-3.29.31-6.52.97-9.8,1.4-.51.06-1.08-.27-1.62-.43.17-.6.16-1.42.54-1.76,1.91-1.62,3.79-3.35,5.93-4.61,7.14-4.21,14.38-8.25,21.6-12.3,2.65-1.49,5.41-2.8,8.06-4.3,1.02-.58,2.29-1.28,1.24-3.04-4.68,1.8-9.23,3.77-13.93,5.28-3.75,1.22-7.66,1.98-11.54,2.67-1.15.21-2.45-.57-3.69-.89.81-.96,1.46-2.14,2.45-2.82,9.18-6.33,18.42-12.59,27.63-18.87,1.51-1.04,2.75-2.25,2.85-4.65-1.17.22-2.26.21-3.13.63-2.78,1.36-5.55,2.77-8.2,4.39-3.04,1.85-5.89,4.05-8.94,5.88-.81.48-2.1.17-3.17.22.49-.93.76-2.1,1.5-2.76,3.79-3.45,7.6-6.86,11.6-10.06,2.26-1.81,3.18-4.2,3.84-6.77.18-.71-.04-1.83-.53-2.33-.35-.36-1.5-.17-2.18.08-2.73,1-5.45,2.03-8.1,3.25-1.55.71-3.1,1.58-4.33,2.73-2.46,2.32-4.64,4.95-7.06,7.32-3.18,3.1-6.48,6.06-9.69,9.04-.98-1.22-.82-2.18.93-4,2.8-2.91,5.62-5.79,8.31-8.79,2.98-3.32,5.77-6.8,8.73-10.14,1.43-1.62,1.88-3.43,1.74-5.52-.09-1.37-.64-1.83-1.92-1.19-1.19.58-2.37,1.19-3.57,1.75-2.02.95-4.45,1.4-4.78,4.29-.05.41-.44.84-.77,1.14-4.23,3.82-8.25,7.91-12.77,11.36-4.14,3.15-8.8,5.58-13.36,8.42-.88-.97-.63-2.21.54-3.13,1.51-1.18,3.12-2.24,4.81-3.15,5.41-2.93,10.39-6.4,14.54-11,1.55-1.7,3.2-3.29,4.79-4.93l-.26-.48c-2.83.6-5.67,1.14-8.48,1.8-3.32.78-5.18,3.45-7.41,5.74-5.01,5.15-10.22,10.12-15.43,15.06-4.06,3.85-7.91,8-12.42,11.22-10,7.12-20.4,13.68-30.56,20.59-2.67,1.81-5.5,2.77-8.64,3.13-1.38.17-2.76.44-4.1.79-2.04.53-3.74,1.54-5,3.35-2.2,3.15-4.48,6.27-6.88,9.27-2.57,3.21-5.32,6.27-8.1,9.51,6.65-.35,8.48-.16,14.62,2.66,3.97,1.81,7.68,4.18,11.61,6.09,1.88.91,1.64,1.84.73,3.21-2.29,3.52-7.44,5.83-11.65,4.86-2.29-.53-4.49-1.55-6.68-2.47-.57-.23-.92-.96-1.37-1.46.77-.23,1.64-.8,2.32-.63,1.39.35,2.67,1.15,4.02,1.67,3.87,1.49,8.17.4,10.56-2.77-2.32-2.76-5.53-4.2-8.76-5.47-3.25-1.28-6.53-2.84-9.92-3.26-3.39-.43-6.93.39-11.02.7.75-1.11,1.12-1.76,1.59-2.33,5.92-7.18,11.88-14.32,17.76-21.54.85-1.04,1.35-2.37,1.93-3.61.94-2.02,1.61-4.2,2.76-6.09,2.19-3.64,5.04-6.92,6.88-10.7,4.16-8.52,7.88-17.25,11.75-25.92.25-.53.4-1.15.43-1.74.27-5.12.5-10.23.73-15.35,0-.14-.19-.28-.39-.53-.36.6-.68,1.07-.97,1.59-3.51,6.49-6.99,13-10.53,19.47-.31.57-1.1.87-1.66,1.3-.5-.7-1.12-1.35-1.47-2.12-.18-.4.04-1.06.23-1.54.55-1.41,1.11-2.85,1.8-4.2,3.65-7.08,7.26-14.21,11.06-21.2,2.29-4.24,1.6-8.73,1.99-13.11-1.91-.78-2.53.44-3.13,1.54-1.51,2.72-2.91,5.5-4.47,8.2-5.36,9.26-10.72,18.52-16.2,27.72-.63,1.05-1.89,1.76-2.95,2.5-.32.22-1.13.17-1.41-.09-.27-.26-.25-.95-.17-1.42.08-.44.37-.85.59-1.26,7.97-14.43,16.02-28.82,23.86-43.31,1.52-2.8,2.67-5.97,3.21-9.11.64-3.72.54-7.58.54-11.37,0-.78-.84-1.83-1.57-2.2-.47-.25-1.74.31-2.14.88-2.62,3.74-5.52,7.38-7.51,11.45-5.45,11.15-10.51,22.5-15.72,33.77-.23.51-.58.97-.89,1.49-1.98-1.06-1.84-2.58-1.2-4.04,1.12-2.55,2.56-4.96,3.58-7.55,1.95-4.93,3.66-9.96,5.53-14.92,2.13-5.66,4.33-11.28,6.46-16.93.19-.51-.03-1.17-.05-1.76-.58.18-1.23.26-1.71.58-.48.31-.88.83-1.19,1.33-1.82,3.02-3.78,5.96-5.37,9.09-3.96,7.75-7.75,15.58-11.61,23.38-.19.39-.49.71-.75,1.08-1.88-1.3-1.99-1.98-.92-4.65,1.7-4.24,3.42-8.46,5.07-12.71,2.59-6.67,5.71-13.17,6.71-20.36.13-.87-.06-1.77-.12-2.67-.26-.09-.5-.19-.75-.28-1.33,1.14-3,2.06-3.93,3.47-2.18,3.3-4.3,6.71-5.86,10.34-1.83,4.25-2.98,8.79-4.52,13.17-5.14,14.49-10.32,28.97-15.5,43.47-.25.67-.58,1.31-.86,1.94-1.87-.74-2.06-1.52-1.32-3.89,2.11-6.7,4.28-13.38,6.24-20.11.69-2.4,1.17-4.93,1.22-7.42.08-3.11-.31-6.24-.66-9.34-.22-1.9-.71-3.77-1.07-5.66-.21.01-.4.04-.59.04-2.62,5.5-5.31,10.97-7.81,16.51-1.47,3.25-2.95,6.57-3.89,10-3.44,12.54-6.21,25.23-8.08,38.12-.44,3.08-1.48,6.09-2.26,9.12-2.66-.52-3.17-2.32-3.79-4.11-1.56-4.51-2.8-9.17-4.87-13.42-3.89-7.99-8.27-15.75-12.46-23.6-.23-.43-.61-.76-1.19-1.49-.49,5.92-.95,11.4-1.42,16.88-.13.01-.27.04-.4.05-9.68-18.08-19.35-36.17-29.01-54.26-.18,3.35-.23,6.58.21,9.74.39,2.8.97,5.67,2.05,8.26,3.34,8.03,6.96,15.94,10.45,23.91.98,2.23,1.91,4.47,2.83,6.66-1.71,1.44-2.51.45-3.25-.84-9.22-16.4-18.43-32.79-27.65-49.19-.34-.6-.73-1.17-1.1-1.75-.19-.01-.4-.01-.59-.01-.41,1.2-1.22,2.42-1.19,3.61.16,4.29.27,8.56,2.49,12.52,4.64,8.29,9.05,16.71,13.56,25.06,1.69,3.13,3.4,6.24,5.1,9.36-1.84,1.01-2.42.98-3.27-.57-1.26-2.33-2.19-4.84-3.51-7.14-5.18-9.07-10.45-18.07-15.7-27.1-3.36-5.79-6.75-11.58-10.13-17.37-2.11.71-3.88,1.92-4.03,3.94-.3,3.81-.64,7.67,1.53,11.26,4.37,7.21,8.57,14.55,12.82,21.84,2.48,4.25,4.98,8.5,7.39,12.78.23.43-.03,1.13-.05,1.7-.63-.12-1.28-.18-1.89-.36-.21-.06-.34-.4-.48-.62-10.49-16.72-21.02-33.43-31.45-50.2-1.19-1.9-2.86-2.84-4.76-3.65-1.17-.51-1.58.01-1.69,1.1-.32,3.43.34,6.57,2.4,9.43,2.32,3.23,4.49,6.58,6.66,9.91,6.33,9.69,12.62,19.39,18.93,29.09,2.51,3.85,5.03,7.68,7.46,11.57.28.44,0,1.23-.03,1.85-.63-.14-1.29-.21-1.88-.43-.26-.1-.41-.51-.61-.78-5.94-8.5-11.84-17.03-17.9-25.45-.75-1.02-2.33-1.49-3.6-2.06-.28-.13-1.24.39-1.24.58.12,2.41-.39,5.26.71,7.15,3.18,5.5,7.09,10.59,10.6,15.93,9.02,13.69,19,26.8,25.24,42.17.62,1.53,1.39,3.08,2.46,4.29,2.73,3.08,5.67,6,8.53,8.96,2.33,2.42,4.68,4.83,7.08,7.3-2.14,1.11-3.31.69-5.36-1.46-4.03-4.22-8.24-8.29-12.13-12.64-2.32-2.6-4.3-5.54-6.21-8.47-2.32-3.56-4-7.6-6.68-10.83-3.3-3.96-7.29-7.36-11.11-10.87-1.32-1.22-3.02-1.99-4.61-3.03-1.84,5.27.23,11.93,3.44,14.75,1.84,1.62,3.62,3.3,5.4,5,.49.47.86,1.04,1.3,1.55-.1.19-.21.39-.31.58-3.27-.66-6.61-1.13-9.82-2.03-4.43-1.26-8.78-2.85-13.19-4.26-.5-.16-1.43-.21-1.56.03-.28.52-.41,1.35-.18,1.85.34.75.99,1.4,1.62,1.97.84.75,1.84,1.32,2.66,2.1.49.45,1.11,1.23,1.02,1.74-.08.48-.97.98-1.6,1.18-2.76.87-5.21-.25-7.54-1.5-3.84-2.09-7.54-4.44-11.42-6.45-13.89-7.18-27.81-14.32-41.82-21.29-3.01-1.5-6.43-2.19-9.67-3.25-.19.18-.37.38-.57.56.71,1.19,1.15,2.69,2.15,3.48,3.22,2.53,6.47,5.12,10.04,7.08,10.16,5.61,20.48,10.91,30.7,16.38.53.27.76,1.11,1.12,1.68-.74.23-1.53.8-2.18.66-1.66-.35-3.26-1.04-4.9-1.57-20-6.48-39.99-12.94-60-19.38-.94-.31-1.97-.31-3.01-.47,0,3.16,1.47,5.49,3.76,6.26,4.58,1.53,9.16,3,13.74,4.55,12.09,4.08,24.17,8.17,36.24,12.29.58.19,1.41.56,1.53,1.01.63,2.31,1.08,4.68,1.7,7.54-1.19-.91-1.97-1.4-2.62-2.03-4.41-4.38-10.09-5.62-15.87-5.83-7.28-.27-14.58.19-21.87.32-2.23.04-4.47-.13-6.69.04-.86.06-1.79.66-2.44,1.28-.18.18.35,1.68.85,1.9,2.57,1.15,5.16,2.46,7.87,2.97,2.69.51,5.54.16,8.33.08,7.04-.21,14.06-.49,21.1-.7,2.56-.06,5.12,0,7.64,0,.43,1.77-.34,2.58-1.82,2.85-1.69.31-3.44.43-5.04.98-.84.3-1.85,1.31-1.97,2.11-.12.82.62,1.93,1.29,2.62.54.56,1.52.8,2.35.93,5.18.82,10.01.23,14.07-3.57,1-.95,2.2-1.74,3.43-2.36.78-.39,1.78-.34,2.94-.52-.82,2.76-2.72,3.9-4.47,5.19-1.8,1.32-3.74,2.58-5.22,4.22-1.6,1.79-.71,4.29,1.53,4.58,3.75.51,7.4.23,10.57-2.28,1.2-.93,2.48-1.83,3.83-2.49,2.94-1.42,4.65-.35,4.94,2.94.26,2.97,1.41,4.48,4.37,5.13,3.61.79,7.26,1.45,10.92,1.96,5.57.78,11.17,1.31,16.74,2.06,4.18.56,8.4.75,12.31,2.76,4.01,2.05,8.17,3.76,12.27,5.63,2.92,1.33,5.85,2.69,8.87,4.08-1.17,2.24-2.84,1.81-4.41,1.26-3.92-1.39-7.85-2.72-11.66-4.35-7.65-3.26-15.61-5.15-23.92-4.86-8.28.3-16.55.97-24.81,1.62-8.92.7-17.85,1.4-26.74,2.37-8.27.92-16.52,2.09-24.76,3.34-8.49,1.3-16.97,2.71-25.43,4.29-4.2.79-8.31,1.99-12.45,3.11-.72.19-1.34.83-2,1.26.04.27.06.56.1.84,1.56.25,3.13.78,4.68.71,7.89-.34,15.78-.79,23.65-1.3,4.36-.28,8.71-.74,13.07-1.1,5.09-.41,10.18-.84,15.28-1.17.53-.04,1.1.6,1.64.92-.41.51-.77,1.06-1.25,1.5-.21.18-.63.14-.97.18-7.31.73-14.62,1.48-21.94,2.19-7.06.7-14.13,1.35-21.18,2.06-1.7.17-3.57.1-5.03.83-2.9,1.44-5.68,3.19-8.29,5.12-1.66,1.23-3.13,2.88-4.33,4.58-1.29,1.87.13,4.36,2.39,4.49.97.06,1.98-.06,2.94-.27,3.42-.74,6.79-1.65,10.22-2.31,5.65-1.08,11.39-1.72,16.97-3.06,9.49-2.25,18.88-4.9,28.32-7.37,1.53-.4,3.05-.91,4.61-1.04.62-.05,1.33.76,1.98,1.19-.5.38-1,.75-1.52,1.11-.15.12-.35.19-.54.25-16.11,4.68-32.22,9.36-48.33,14.03-1.66.48-2.19,2.05-.82,3.17.9.74,2.27,1.4,3.39,1.33,4.87-.28,9.83.35,14.59-1.21,11.73-3.83,23.44-7.73,35.17-11.58,1.5-.49,3.03-.92,4.59-1.15.81-.12,1.69.23,2.54.36.04.22.06.44.1.66-1.34.82-2.62,1.77-4.02,2.43-4.68,2.19-9.4,4.26-14.11,6.37-9.01,4.03-18.02,8.03-27.01,12.1-.81.36-1.61.96-2.16,1.66-1.52,1.92-.89,3.34,1.56,3.72.4.06.8.04,1.2.06,3.56.26,6.43-1.48,9.49-3.01,9.47-4.77,19.05-9.33,28.61-13.9.62-.3,1.84-.45,2.15-.1.85.97.08,1.8-.77,2.46-7.95,6.11-15.72,12.46-24.58,17.29-1.33.74-2.26,2.19-3.38,3.32.1.28.22.56.33.84,1.59.26,3.16.73,4.74.73,4.54.04,8.24-2.45,11.87-4.66,8.61-5.26,17.03-10.84,25.58-16.18,5.63-3.51,11.24-7.08,17.12-10.12,4.69-2.41,9.77-4.07,14.68-6.04.71-.28,1.73-1.17,2.06.19.16.63-.4,1.79-.98,2.2-3.87,2.71-7.88,5.19-11.73,7.9-4.76,3.36-10.04,6.01-13.92,10.56-6.77,7.93-14.59,14.69-22.45,21.5-9.18,7.97-17.57,16.85-26.27,25.36-.4.4-.66.98-.88,1.53-.99,2.4-2.08,4.75-2.86,7.21-.97,3.02-2.26,6.1-2.4,9.2-.35,7.85-.23,15.74-.08,23.6.05,2.27.77,4.53,2.32,6.85.17-.73.23-.97.28-1.22.7-3.16,1.33-6.35,2.14-9.48.17-.62,1.02-1.05,1.56-1.57.44.53,1.1,1,1.3,1.61.95,2.89,1.77,5.83,2.69,8.73.27.86.73,1.66,1.11,2.49,1.03-1.39,1.5-2.68,2-3.96,1.13-2.89,2.24-5.79,3.47-8.64.66-1.52,1.69-1.92,3.06-.61.76.73,1.62,1.37,2.5,1.97,1.44.98,2.91.83,3.79-.66,1.43-2.45,3.04-4.91,3.78-7.59,1.64-6,2.76-12.14,4.12-18.21.97-4.27,1.96-8.54,3.02-12.78.14-.54.86-1.45,1.04-1.39.67.25,1.26.76,1.81,1.27.19.18.14.62.21.95,1.13,5.22,2.27,10.45,3.44,15.8,2.4-1.02,3.62-2.8,4.01-5.04.77-4.51,1.29-9.07,2.04-13.57.41-2.54.9-5.09,1.71-7.53.63-1.92,1.97-2.03,3.3-.52.68.79,1.21,1.74,1.75,2.66,1.26,2.15,2.62,2.58,4.76,1.36,2.58-1.46,4.08-3.8,4.7-6.63.7-3.24,1.12-6.53,1.77-9.78.88-4.46,1.84-8.91,2.87-13.88,2,3.41,3.8,6.32,5.41,9.35.74,1.37,1.59,1.54,2.9,1.15,3.26-.95,5.19-3.47,7.31-5.89,4.85-5.57,9.4-11.51,14.9-16.36,4.36-3.85,9.9-6.36,14.99-9.31,2.37-1.37,4.02-.4,3.78,2.38-.17,1.94-.86,4.12-2.02,5.65-3.34,4.39-6.86,8.66-10.62,12.69-6.26,6.71-12.8,13.17-19.14,19.82-1.07,1.13-1.93,2.56-2.55,4-.82,1.96-.32,2.86,1.57,3.69,2.85,1.23,5.68,2.45,9.03,3.89-1.69.83-2.99,1.44-4.25,2.1-3.93,2.06-8.06,3.83-11.7,6.31-4.72,3.2-9.06,6.97-13.56,10.49-.36.29-.9.58-.97.95-.3,1.72-.46,3.46-.67,5.19,1.43.14,2.86.27,4.29.41,2.15.22,4.33.34,6.46.75.69.14,1.56.95,1.74,1.62.12.44-.72,1.35-1.33,1.75-1.83,1.19-3.71,2.32-5.65,3.34-5.85,3.1-11.83,5.97-17.54,9.31-2.14,1.24-3.72,3.51-5.42,5.44-.85.96-.62,2.09.84,2.02,1.65-.08,3.36-.36,4.88-.97,2.58-1.02,5-2.44,7.53-3.56,1.35-.6,2.69-.45,3.98.95-2.13,2.13-4.18,4.28-6.33,6.32-4.28,4.09-8.66,8.08-12.89,12.23-1.06,1.04-1.8,2.42-2.51,3.76-.24.45-.03,1.3.26,1.79.1.18,1.1.05,1.53-.19,1.38-.78,2.85-1.52,4.02-2.55,5.53-4.88,10.96-9.88,16.45-14.8,1.13-1.01,2.28-2.07,3.61-2.75,1.91-.97,3.23-.04,2.98,2.05-.14,1.18-.57,2.5-1.29,3.42-5.89,7.56-11.86,15.05-17.82,22.55-1.57,1.98-3.42,3.78-4.71,5.93-.51.86.12,2.4.22,3.63.9-.26,1.92-.35,2.68-.84.75-.48,1.26-1.35,1.86-2.06,4.43-5.31,8.6-10.88,13.39-15.84,4.14-4.27,8.97-7.86,13.53-11.71.35-.3,1.06-.54,1.41-.39.32.14.5.86.54,1.33.23,3.17-.41,5.91-2.28,8.77-4,6.1-7.3,12.65-10.92,19-1.51,2.63-1.66,5.45-1.29,8.32.1.82.79,1.57,1.2,2.35.81-.58,1.87-1,2.41-1.78,1.13-1.63,1.92-3.5,2.98-5.18,8.63-13.87,15.52-28.56,20.7-44.08,1.07-3.2,2.26-6.38,3.7-9.43.49-1.01,1.95-1.56,2.95-2.31.41,1.18,1.06,2.33,1.19,3.54.41,3.83.53,7.71.99,11.53.18,1.45,1.03,2.81,1.69,4.52,4.28-8.52,8.28-16.48,12.24-24.44,2.46-4.92,5.03-9.81,7.23-14.84,2.24-5.17,4.09-10.52,6.2-15.74.25-.61,1.13-.95,1.73-1.41.39.69,1.1,1.36,1.12,2.05.12,3.41.21,6.81-.01,10.21-.18,2.76-.5,5.57-1.26,8.21-4.16,14.34-9.38,28.22-17.75,40.74-1.41,2.11-2.45,4.45-3.87,7.06.8-.31,1.21-.43,1.6-.62,4.96-2.48,9.01-6.05,12.5-10.34.99-1.22,2.13-2.37,3.33-3.41.41-.36,1.39-.57,1.74-.32.4.27.54,1.15.5,1.76-.05.85-.3,1.71-.59,2.51-.95,2.54-2.1,5.01-2.94,7.59-2.9,8.89-5.8,17.77-8.47,26.73-.61,2.05-.28,4.38-.4,6.92,8.63-5.92,11.48-15.15,15.76-23.12,1.6,1.14,2.89,2.32,4.38,3.07,1.93.97,4.42.09,4.86-1.66.27-1.1-.01-2.37-.12-3.55-.31-3.51-1.19-7.06-.84-10.49.39-3.83,1.95-7.55,2.86-11.35,2.1-8.78,4.05-17.59,4.61-26.64.19-2.98.55-5.96.95-8.92.08-.56.75-1.04,1.13-1.56.48.53,1.02,1.02,1.39,1.62.18.3.08.78.08,1.18-.01,3.6-.05,7.2-.06,10.8v5.1c1.31-.47,2.23-.78,3.14-1.11,1.48-.56,2.93-1.31,4.45-1.64.81-.18,1.76.32,2.65.52-.03.23-.04.47-.05.7-.74.56-1.43,1.15-2.2,1.65-2.24,1.41-4.54,2.76-6.77,4.2-.59.38-1.42,1-1.44,1.53-.13,3.33-.06,6.67-.06,10.13,3.63-2.21,7.26-4.42,10.85-6.6,1.53,1.36,1.47,1.98-.03,3.35-3.48,3.19-6.94,6.4-10.36,9.65-.44.43-.89,1.09-.91,1.66-.1,2.11-.04,4.23-.04,6.53,2.28-.69,4.52-1.41,6.81-2.02.43-.12,1.24.12,1.39.43.19.4.06,1.13-.18,1.57-.23.43-.76.71-1.21.98-1.77,1.05-3.53,2.1-5.33,3.07-1.51.82-2.15,1.93-2.15,3.69-.01,4.32-.24,8.66-.33,12.99-.04,2.72,0,5.43,0,8.15.13,0,.24.03.37.03,1.39-2.21,2.8-4.43,4.36-6.9-1.01.45-1.69.89-2.42,1.06-.58.13-1.24-.08-1.86-.14.19-.58.21-1.37.61-1.7,2.15-1.74,4.38-3.41,6.66-4.97.5-.34,1.35-.17,2.04-.23-.05.75.17,1.66-.18,2.23-2.98,4.88-6.11,9.66-9.06,14.54-.68,1.13-1.06,2.53-1.23,3.85-.06.47.84,1.28,1.46,1.57,1.73.8,3.58,1.32,5.31,2.12,1.69.79,1.66,1.57.23,2.77-2.13,1.8-4.2,3.67-6.25,5.56-.41.39-.88.96-.91,1.46-.26,3.69-.43,7.4-.59,10.63,2.85-.34,5.63-.78,8.43-.91.81-.04,2,.69,2.37,1.4.25.48-.44,1.72-1,2.35-2.59,2.84-5.43,5.46-7.91,8.39-1.22,1.45-2.24,3.29-2.73,5.12-.46,1.71-.1,3.65-.1,5.49,0,2.46.57,2.89,3.1,2.81,1.43-.04,2.95-.03,4.28.44,2.22.78,2.78,3.25,1.25,5.05-.71.83-1.68,1.5-2.64,2.03-1.68.92-3.47,1.65-5.17,2.54-1.39.74-1.86,1.88-1.44,3.51.52,2.06,1.66,3.57,3.34,4.78,1.41,1.01,2.81,2.01,4.14,3.12.95.79,1.66,1.79,1.43,2.89-4.59.51-5.48-4.47-9.05-5.63-.55,14.62-1.11,29.08-1.66,43.49,4.87,1.19,7.4,3.16,7.4,5.81-3.29.49-4.82-2.95-8.16-3.78,0,5.36-.03,10.41.04,15.45,0,.53.39,1.24.82,1.54,3.53,2.41,7.13,4.73,10.62,7.02-.55,1.92-1.51,2.07-2.77,1.2-.54-.38-1.04-.83-1.58-1.2-2.29-1.58-4.6-3.16-6.95-4.77-.31,4.29-.63,8.26-.89,12.25-.19,3.06.27,5.67,3.2,7.59,1.96,1.28,3.53,3.23,5.1,5.03.79.91,1.16,2.16,1.71,3.25-.21.13-.4.26-.61.39-4.34-1.22-5.67-6.13-9.54-8.54-.28,8.07-.58,15.72-.76,23.38-.03.56.63,1.32,1.17,1.68,2.69,1.81,5.46,3.5,8.19,5.26,1.06.67,2.06,1.43,3.09,2.15l-.76,1.18c-1.07-.22-2.31-.17-3.16-.71-2-1.3-3.79-2.9-5.72-4.3-.85-.61-1.86-1.01-3.3-1.78v15.54h43.98c-.5-5.05-.99-10-1.51-15.15-2.15,1.53-4.16,3.02-6.25,4.39-3.51,2.29-5.27,2.8-7.44,1.98,1.48-1.14,2.71-2.2,4.06-3.08,2.94-1.9,5.97-3.68,8.88-5.61.52-.35.98-1.24.98-1.88.04-6.13-.04-12.27-.09-18.41,0-.27-.09-.56-.13-.75-2.14,1.63-4.08,3.38-6.28,4.7-1.79,1.08-3.85,1.71-5.84,2.41-.95.34-2.19.35-2.33-.99-.05-.47.95-1.11,1.57-1.55.34-.26.86-.3,1.32-.35,5-.6,7.81-4.39,10.92-7.68.62-.66.75-1.98.75-2.99-.01-3.33-.19-6.67-.28-10-.04-1.62,0-3.25,0-5.32-1.11.98-1.78,1.62-2.49,2.19-1.96,1.57-3.88,3.21-5.97,4.61-1.11.75-2.54,1.06-3.78-.52.99-.7,1.85-1.3,2.71-1.91,2.53-1.81,5.1-3.59,7.55-5.5,1.41-1.11,2.02-2.67,1.95-4.57-.12-3.07-.04-6.14-.04-9.21v-7.32c-.18-.06-.36-.14-.54-.22-.23.31-.44.62-.67.92-3.79,4.95-9.54,6.75-14.9,9.09-.77.34-2.01-.41-3.04-.66.69-.65,1.37-1.31,2.1-1.91.23-.19.62-.18.93-.3,3.87-1.4,7.89-2.62,10.9-5.56,1.93-1.89,4.61-3.38,4.99-6.42.21-1.76-.09-3.58-.09-5.38-.01-3.9,0-7.81,0-11.72-.16-.08-.32-.16-.48-.23-6.12,5.96-12.24,11.9-18.46,17.94-1.37-1.87-.81-3.33.58-4.34,3.62-2.63,6.66-5.83,9.69-9.09,2.16-2.34,4.61-4.42,7.01-6.53,1.19-1.05,1.66-2.2,1.61-3.82-.13-3.59-.04-7.2-.05-10.8,0-.47-.1-.93-.18-1.65-1.04.95-1.86,1.67-3.09,2.79,1.04-.35,1.52-.52,1.97-.67.8.99,1.02,2.01-.15,2.59-3.4,1.7-6.88,3.24-10.43,4.88-1.12-2.4.23-3.7,1.68-4.74,3.13-2.25,6.39-4.33,9.55-6.53.36-.26.63-.91.63-1.37.05-4.03.03-8.07.03-12.1-.21-.06-.43-.13-.63-.19-2.66,3.03-5.9,2.97-9.34,2.07-2.1-.54-4.23-1.01-6.33-1.56-.52-.13-1-.4-1.78-.71.75-.52,1.15-.87,1.6-1.11,4.5-2.42,8.98-4.87,13.52-7.2.57-.3,1.43.01,2.16.04-.39.73-.68,1.52-1.17,2.16-.25.32-.82.39-1.24.61-2.89,1.53-5.77,3.07-8.66,4.61.03.22.05.43.08.65,1.79.18,3.61.65,5.39.51,3.78-.3,5.99-2.97,5.99-6.79,0-3.41.06-6.8-.03-10.21-.12-3.91-.37-7.8-.58-12.01-2.88,3.03-5.53,5.84-8.02,8.47,1.46.34,3.13.74,4.82,1.13-.03.26-.04.53-.06.79-.63.26-1.26.7-1.92.76-2.37.22-4.76.45-7.13.4-1-.03-2-.73-2.99-1.12.72-.79,1.34-1.71,2.18-2.33,2.37-1.77,4.94-3.32,7.23-5.18,1.73-1.41,3.21-3.15,4.7-4.83.49-.56.97-1.4.97-2.1-.03-3.23-.21-6.44-.34-9.52-4.05,1.02-7.86,2.01-11.7,2.9-.58.14-1.34-.06-1.92-.32-1.38-.61-1.37-1.52-.15-2.44,1.84-1.41,3.7-2.82,5.41-4.38,2.16-1.97,4-4.36,6.35-6.03,1.35-.96,1.66-1.75,1.59-3.15-.28-5.05-.57-10.12-.76-15.17-.35-9.05-.61-18.12-.94-27.17-.08-1.92-.27-3.82-.41-5.92-3.11,1.79-5.35,4.97-9.6,5.16.23-1.15.14-2.15.59-2.73,2.44-3.2,5.01-6.29,7.51-9.46.49-.62,1.23-1.35,1.23-2.02-.04-4.71-.21-9.4-2.54-13.74-1.19-2.2-2.01-4.61-2.87-6.97-.18-.49.17-1.19.27-1.8.54.21,1.26.26,1.58.65.7.87,1.29,1.85,1.75,2.88,2.45,5.44,4.85,10.92,7.24,16.38,3.92,8.98,8.62,17.67,10.38,27.47.85,4.75,1.66,9.51,2.51,14.39.93-.05,1.97.09,2.87-.21.7-.23,1.51-.92,1.75-1.59.57-1.54.94-3.17,1.17-4.8.15-1.08.19-2.32-.18-3.3-4.9-12.76-9.86-25.49-14.86-38.21-3.67-9.33-7.44-18.61-11.1-27.94-.22-.54.18-1.33.28-2.01.64.3,1.35.49,1.91.92.27.22.33.7.44,1.1.71-1.99,1.69-2.41,3.58-1.28,2.82,1.68,5.58,3.51,8.29,5.39,2,1.39,3.09,1.43,4.91-.28,1.02-.96,1.84-2.11,2.89-3.03.98-.88,2.13-1.57,3.2-2.33.21.16.43.32.63.48-.17,1-.13,2.09-.55,2.95-.81,1.67-1.83,3.24-2.83,4.79-1.64,2.54-2.24,5.05-.23,7.73.5.66.68,1.58.91,2.41,3.91,14.27,8.19,28.43,13.6,42.21.27.67.22,1.53.13,2.28-.35,2.99.04,5.87,1.63,8.45.35.56,1.24.88,1.93,1.06.23.06.85-.58.98-1,.77-2.47,1.61-4.93,2.13-7.46.37-1.84.76-3.89.31-5.63-1.61-6.28-3.48-12.51-5.41-18.7-3.6-11.51-7.32-23-11.01-34.49-.39-1.22-.73-2.38.57-3.77.63.92,1.32,1.65,1.66,2.5,1.07,2.64,2.04,5.32,3,8,5.43,14.96,10.87,29.92,16.25,44.9.28.82.28,1.78.28,2.67.03,2.46-.13,4.92.05,7.36.1,1.21.62,2.64,2.29,2.47,1.42-.14,2.89-.7,2.96-2.41.27-5.87.48-11.71-1.49-17.41-3.52-10.15-6.94-20.33-10.34-30.53-1.61-4.82-3.1-9.69-4.65-14.54-4.9,2.03-8.62-.3-8.89-5.39-.16-3.02-1.65-4.69-4.67-4.91-2.13-.16-4.28-.03-6.42-.03-.1-.23-.19-.45-.28-.69,1.13-.92,2.27-1.83,3.4-2.75,2.32-1.88,4.78-3.6,6.9-5.69,1.78-1.75,1.29-2.82-1.02-3.76-2.13-.87-4.19-1.89-6.66-3.03,2.96-4.34,5.26-8.95,8.7-12.42,4.36-4.39,1.97-14.18-2.49-16.54-.98-.52-1.95-1.54-2.36-2.56-1.07-2.69-1.92-5.48-2.65-8.29-.17-.63.5-1.49.78-2.25.57.54,1.41.98,1.64,1.63.8,2.25,1.35,4.59,2.07,6.85.21.66.55,1.48,1.08,1.79,5.85,3.37,6.51,9.16,7,14.99.08.91-.35,2-.86,2.8-.87,1.39-2.06,2.59-3.03,3.94-2.11,2.93-4.16,5.89-6.35,9,2.59,1.22,4.7,2.33,6.91,3.2,1.89.75,2.15,2.07,1.15,3.43-1.37,1.85-3.05,3.46-4.67,5.12-.85.88-1.83,1.65-3,2.69,4.19-.38,5.41.56,6.17,4.31.26,1.23.45,2.49.85,3.68,1.01,3.04,3.15,3.82,5.89,2.21,1.08-.63,2.07-1.46,3.21-1.98.48-.22,1.21.13,1.82.22-.18.51-.21,1.21-.55,1.48-1.44,1.12-1.3,2.37-.75,3.89,6.17,16.81,12.32,33.64,18.44,50.47.84,2.31,1.89,4.62,2.1,7.01.27,3.04,1.51,5.19,4,6.7,1.64,1,3.44,1.74,5.04,2.79.66.44,1.15,1.31,1.46,2.09.85,2.09,1.46,4.26,2.35,6.32.59,1.39,1.75,2.1,3.44,1.65.26-6.51.63-12.96.76-19.43.12-6.28.97-12.67-1.86-18.68-.22-.48-.31-1.05-.31-1.57,0-.58.04-1.23.31-1.72.22-.4.79-.83,1.2-.83.34,0,.81.54.98.96.63,1.54,1.17,3.11,1.73,4.66,2.96,8.37,6.95,16.46,6.57,25.68-.03.78.21,1.58.39,2.36.58,2.52,2.33,4,4.82,4.32,1.23.16,1.7-.25,1.84-1.41.19-1.71.48-3.42.73-5.12.23-1.55,1-1.72,2.16-.8,1.56,1.24,3.16,2.44,4.67,3.74,1.19,1.02,2.6,1.19,3.62.32.81-.69,1.53-2.18,1.38-3.17-.53-3.39-1.19-6.81-2.29-10.05-1.83-5.32-4.03-10.53-6.11-15.78-.61-1.5-1.53-3.15-1.66-4.52-.39-4.33-2.23-7.89-4.55-11.32-2.04-3-4.58-5.71-5.52-9.38-.06-.21-.32-.36-.48-.54-3.93,3.32-5.16,6.01-2.37,11.07,1.61,2.94,2.96,6.06,4.06,9.24,1.38,4.03,2.5,8.1,5.22,11.53,3.02,3.82,4.74,8.13,4.09,13.15-.13.98.23,2.41-1.39,2.34-1.47-.06-1.16-1.36-1.16-2.32,0-1.33.17-2.67.13-3.99-.12-3.42-2.51-5.76-4.05-8.52-1.38-2.49-3.22-4.88-3.89-7.56-1.2-4.75-3.21-9.09-5.19-13.51-1.33-2.94-2.85-4.78-6.29-4.11-.44.08-.97.05-1.38-.12-.57-.23-1.06-.66-1.58-1,.05-.27.12-.54.17-.82,1.72-.13,3.43-.18,5.13-.41.63-.08,1.4-.47,1.74-.97,1.89-2.81,1.75-5.83.18-8.66-3.57-6.45-7.13-12.93-11.03-19.17-2.87-4.59-4.81-9.18-4.34-14.76.27-3.32-.86-6.41-3.69-8.64-.88-.69-1.57-1.62-2.29-2.49-3.53-4.24-5.81-9.2-7.9-14.25-1.15-2.77-2.72-5.14-5.03-7.06-2.91-2.41-5.83-4.84-8.66-7.36-.85-.75-1.53-1.07-2.76-.96-2.08.19-4.29.71-6.77-.8.98-.67,1.59-1.3,2.31-1.53,2.93-.96,5.89-.85,8.33,1.11,3.88,3.12,7.67,6.37,11.24,9.83,1.48,1.44,2.63,3.42,3.35,5.36,2.6,6.96,6.44,13.08,11.48,18.51.95,1.02,1.88,2.38,2.11,3.7.5,2.99.48,6.07.86,9.11.21,1.61.54,3.32,1.33,4.69,2.4,4.22,5.07,8.28,7.57,12.43,3.04,5.03,5.98,10.12,7.59,15.79,2.17-1.24,3.55-2.93,3.06-5.65-.06-.36.14-.78.17-1.18.32-4.49.03-8.74-2.28-12.9-5.05-9.11-9.9-18.35-14.5-27.7-3.49-7.1-6.64-14.35-11.19-20.88-.75-1.06-1.41-2.19-2.1-3.26,1.78-1.33,2.63-1.17,3.83.96,2.82,5.03,5.81,9.97,8.25,15.19,5.62,12.05,11.07,24.16,18.29,35.36,1.53,2.38,2.24,5.08,2.07,7.98-.13,2.2-.12,4.4-.09,6.61.01.73.28,1.44.44,2.16.91-.67,1.41-1.36,1.73-2.13,1.3-3.1,2.78-5.8,6.83-5.8,1.7,0,2.33-1.41,1.9-3.04-.41-1.54-.67-3.21-1.5-4.51-3.38-5.3-5.08-11.15-6.65-17.16-2.55-9.79-7.76-18.44-12.35-27.34-3.49-6.79-6.99-13.56-10.38-20.4-.53-1.06-.5-2.4-.73-3.61.28-.13.58-.25.86-.36.63.78,1.46,1.46,1.87,2.34.98,2.1,1.62,4.36,2.68,6.41,2.31,4.48,4.85,8.86,7.19,13.33,4.69,8.92,9.99,17.64,12.71,27.42,2,7.21,4.2,14.25,8.02,20.71.4.7.3,1.67.54,2.49.27.92.4,2.22,1.04,2.62,1.89,1.19,1.06,1.84-.25,2.47-1.06.53-1.29,1.26-1.24,2.41.1,2.29.08,4.58-.05,6.88-.04.65-.63,1.28-.97,1.92-.26-.03-.52-.05-.77-.08-.16-.95-.44-1.91-.44-2.86-.03-1.93.16-3.86.13-5.79-.01-1.37-.84-1.83-2.15-1.58-1.93.36-2.77,1.8-3.69,3.33-1.2,2.02-2.54,3.98-4.02,5.8-.84,1.04-.87,1.88-.21,2.86,1.04,1.54,2.13,3.06,3.23,4.56,2.64,3.61,4.98,7.32,6.07,11.79.64,2.64,1.79,5.27,3.23,7.58,3.29,5.23,6.87,10.27,10.39,15.35.71,1.02,1.59,1.97,2.55,2.76s1.94.56,1.7-.87c-.39-2.18-.82-4.42-1.7-6.42-.99-2.29-2.71-4.27-3.74-6.57-3.93-8.7-7.73-17.48-11.56-26.24-.22-.49-.32-1.04-.48-1.56.15-.13.32-.26.48-.39,2.55,1.98,5.59,3.57,7.54,6.03,5.83,7.34,11.21,15.02,16.79,22.56,1.87,2.51,3.79,4.99,5.71,7.45,1.02,1.31,2.53,2.19,3.93,1.41.59-.32.54-2.37.29-3.52-.31-1.4-1.08-2.71-1.77-3.99-.9-1.7-1.86-3.38-2.87-5.01-5.58-8.98-11.19-17.94-16.79-26.9-2.18-3.49-4.39-6.94-6.52-10.47-.27-.45-.09-1.21-.12-1.81.71.19,1.44.32,2.13.6.27.1.41.51.62.76,7.44,9.22,14.85,18.47,22.37,27.61,1.04,1.27,2.6,2.2,4.1,2.94.8.39,1.96.04,2.96.01-.15-1.06,0-2.31-.5-3.16-2.75-4.71-5.49-9.43-8.51-13.96-11.39-17.1-23.03-34.04-33.21-51.91-1.24-2.16-2.51-4.3-3.76-6.44,1.98-1.56,3.6-.73,5.14.25,4.25,2.67,8.67,5.13,12.68,8.15,5.83,4.39,11.5,9.01,16.97,13.83,10.97,9.68,21.63,19.71,33.67,28.09,1.57,1.09,3.27,2,4.92,2.98-.41-3.08-2.86-5.09-2.99-8.52,2.68.93,5.03,1.62,7.26,2.55,4.59,1.89,9.07,4.03,13.69,5.85,1.64.65,3.51.71,5.88,1.15-.5-1.44-.58-2.31-1.04-2.84-1.28-1.49-2.63-2.94-4.1-4.25-1.34-1.18-2.99-2.02-4.23-3.29-.59-.61-.53-1.85-.76-2.81.85.12,1.8.04,2.55.39,1.93.88,3.67,2.25,5.66,2.88,4.01,1.24,8.1,2.41,12.23,3.03,2.66.4,3.92-2.07,2.26-4.24-.98-1.28-2.62-2.1-4.05-2.98-.82-.51-1.88-.62-2.73-1.09-10.25-5.56-20.48-11.15-30.71-16.75-.32-.17-.58-.44-1.34-1.02,1.24-.47,2.14-1.13,2.94-1.04,1.53.18,3.26.44,4.5,1.28,4.37,2.95,9.22,2.43,14.01,2.24.79-.03,1.53-.79,2.29-1.21-.49-.76-.81-1.81-1.51-2.2-1.37-.76-2.94-1.14-4.42-1.68-12.1-4.4-24.23-8.81-36.33-13.25-3.65-1.35-7.49-2.44-10.82-4.35-5.47-3.13-10.6-6.84-15.85-10.32-1.03-.69-2.04-1.41-3.03-2.11.76-1.78,2.01-1.89,3.39-1.46,2.2.69,4.34,1.75,6.6,2.12,6.32,1.05,12.67,1.94,19.02,2.69,3.76.44,7.56.48,11.34.7-2.28-1.41-4.63-2.44-6.88-3.63-.59-.31-.89-1.17-1.33-1.78.66-.39,1.26-1,1.96-1.11,1.62-.27,3.27-.32,5.31-.49-6.52-.67-12.77-.35-18.96-2.21,1.07-1.76,2.48-1.71,3.85-1.61,4.69.35,9.37.67,14.05,1.11,1.23.12,2.76.21,3.56.95,1.56,1.45,3.29,1.55,5.14,1.5,9.55-.27,19.1-.56,28.65-.87,1.39-.05,2.78-.18,4.15-.43,1.15-.21,2.42-.39,3.36-1,2.22-1.44,4.25-3.15,6.38-4.71,2.22-1.63,3.69-3.57,3.22-6.57ZM529.74,419.49c3.61,2.18,8.66,1.39,11.45,6.06-6.08-.06-11.77-3.12-11.45-6.06ZM563.93,314.54c-.14.69-.05,1.58-.45,2.02-1.6,1.74-3.35,3.31-5.05,4.96l.22.28c1.19-.48,2.36-1.03,3.59-1.39.45-.13,1.04.22,1.57.36-.18.51-.23,1.32-.58,1.49-3.21,1.5-6.42,3.01-9.73,4.25-.89.34-2.1-.19-3.16-.32-.05-.21-.12-.41-.17-.62,1.44-1.33,2.87-2.67,4.33-3.99,2.41-2.19,4.78-4.4,7.26-6.5.52-.43,1.43-.36,2.16-.53ZM557.14,297.57c1.33-.98,2.59-2.06,3.98-2.95.54-.34,1.33-.27,2-.39-.12.69-.01,1.59-.41,1.99-.95.98-2.15,1.75-3.26,2.58-.71.53-1.45,1.03-2.39,1.7,1.28-.16,2.26-.37,3.21-.35.41,0,1.07.51,1.13.86.06.38-.37,1.11-.73,1.24-2.91.98-5.87,1.85-8.83,2.77-.82-1.8-.32-3.13.85-4.14,1.4-1.21,2.98-2.2,4.46-3.3ZM576.83,185.94c-1.43,2.82-3.3,5.41-4.96,8.12-1.12,1.84-2.26,3.68-3.35,5.53-.54.92-.81,2.07-1.53,2.77-.85.8-2.07,1.23-3.13,1.83-.13,1.44-.06,3.42-.55,5.26-.3,1.11-1.28,2.19-2.22,2.97-2.14,1.77-3.48,1.24-4.12-1.41-.12-.44-.3-.86-.58-1.32.14,5.37-2.94,9.53-5.14,14-.85,1.72-6.68,3.33-8.34,2.46-1.47-.76-1.12-2.15-1.03-3.37.25-3.43.75-6.86.77-10.31.04-5.11-.3-10.24-.32-15.36-.01-2.32.35-4.64.52-6.95.04-.54,0-1.1,0-1.66-.12-.01-.23-.04-.34-.06-1.75,3.58-3.49,7.15-5.24,10.74-.19-.01-.39-.03-.58-.03-.52-1.75-1-3.5-1.55-5.23-.36-1.14-.64-2.33-1.2-3.36-.37-.7-1.1-1.42-1.82-1.7-1.8-.67-3.7-1.1-5.79-1.7-.45,1.1-1.02,2.49-1.59,3.86-.31.74-.57,1.5-.97,2.19-.66,1.13-.81,3.04-2.64,2.72-1.71-.3-1.04-2.02-1.23-3.19-.17-1.05-.26-2.11-.49-3.15-.52-2.4-1.5-2.73-3.42-1.26-.27.21-.52.43-1.07.88-.49-1.7-.94-3.23-1.34-4.75-.43-1.59-.89-3.2-1.16-4.83-.09-.54.35-1.17.54-1.76.61.38,1.55.63,1.74,1.17.49,1.36.68,2.84.94,4.27.31,1.75,1.03,2.11,2.6,1.22,2.46-1.39,3.65-3.78,4.81-6.19.26-.53.53-1.06.85-1.7,1.69.66,2.24,1.7,1.33,3.23-.75,1.24-1.59,2.46-2.54,3.56-2.05,2.37-1.17,4.88-.75,7.38.19.04.39.09.58.14,1.06-3.02,2.11-6.05,3.27-9.35.58.7,1.04,1.23,1.47,1.79,1.52,2.04,3.62,3.17,6.06,3.45,1.32.16,1.83.76,2.23,1.83.52,1.4,1.08,2.79,1.81,4.61,2.27-4.42,4.29-8.37,6.31-12.32l.85.03c.46.95,1.06,1.84,1.34,2.84.21.73.14,1.61-.04,2.37-1.32,5.58-.99,11.19-.79,16.86.21,5.83-.41,11.68-.58,17.53-.03,1.01.39,2.02.59,3.03.98-.22,2.01-.31,2.9-.73.73-.36,1.51-.98,1.89-1.7,2.16-4.03,4.18-8.11,4.42-12.85.13-2.38.62-4.74,1.04-7.1.09-.47.62-1.2.95-1.2.48,0,1.17.45,1.38.89.37.82.55,1.75.66,2.66.19,1.58.19,3.19.43,4.76.08.52.59.97.9,1.45.45-.51,1.28-1.01,1.28-1.52.01-1.71.13-3.59-.5-5.1-2.29-5.5-2.64-11.22-2.35-17.03.04-.86-.58-2.32,1.07-2.27,1.55.05,1.28,1.45,1.25,2.47-.09,4.13-.25,8.25,1.13,12.24.4,1.14.72,2.62,2.22,2.3.99-.21,2.05-1.11,2.63-1.99.81-1.26,1.1-2.85,1.86-4.16.71-1.23,1.55-2.56,2.68-3.33,1.56-1.06,2.42-2.38,2.87-4.1.41-1.61.71-3.25,1.21-4.83.37-1.19,1.08-2.18,3.09-1.76-.4,1.76-.46,3.68-1.25,5.22ZM604.98,204.89c.84-.51,1.38-.84,2.13-1.3,1.58,3.15,3.09,6.15,4.63,9.14,4.86,9.52,10,18.88,14.49,28.57,2.81,6.1,5.21,12.54,6.68,19.07.85,3.78,2.19,6.83,4.58,9.64.3.35.6.78.67,1.21.08.51.06,1.39-.21,1.52-.45.23-1.42.25-1.68-.06-1.26-1.52-2.65-3.03-3.44-4.81-1.02-2.28-1.62-4.75-2.19-7.2-2.44-10.52-7.1-20.1-12-29.59-4.47-8.67-9.02-17.29-13.66-26.16h.01ZM596.55,216.47c.14.58.53,1.23.36,1.71-.3.86-.9,1.61-1.39,2.4-.75,1.19-.53,2.19.89,2.33,2.18.22,3.25,1.52,4,3.35.73,1.79,1.65,3.17,3.92,3.42,1.82.19,2.48,1.88,2.51,3.6.03,1.26-.21,2.53-.18,3.78.04,2.05.84,2.63,2.85,2.71.68.03,1.74.58,1.92,1.14.55,1.67.9,3.44,1.08,5.21.31,2.98.93,5.48,4.15,6.83,2.95,1.23,3.48,4.3,4.19,7.1.53,2.11,1.12,4.21,1.79,6.28.49,1.5,1.47,1.96,2.93,1.1,1.3-.78,2.62-1.57,4.02-2.12.45-.18,1.19.36,1.79.58-.27.52-.4,1.3-.83,1.53-2.56,1.36-5.18,2.6-8.33,4.16h-.03c-1.44-4.12-2.95-7.99-4.11-11.97-.46-1.59-.94-2.86-2.29-3.94-3.92-3.11-6.68-6.84-6.01-12.29.06-.52-.75-1.19-1.25-1.71-.18-.18-.63-.09-.97-.12-3.92-.3-4.36-.93-2.96-4.51.75-1.9.4-3.42-1.33-4.48-2.18-1.33-4.19-2.71-4.95-5.43-.19-.73-1.28-1.26-2.04-1.76-.94-.62-2.01-1.04-2.93-1.69-1.24-.87-1.68-1.97-.64-3.38.79-1.06,1.38-2.28,2.22-3.3.31-.36,1.06-.36,1.61-.53ZM611.62,177.53c-.91,1.7-1.52,2.01-3.21,1.67.64-1.75,1.12-3.55,1.93-5.19,2.68-5.47-.16-14.52-6.11-16.98-3.53-1.46-6.99-3.1-10.48-4.64-.7-.31-1.45-.54-2.34-.88.28-.8.53-1.43.76-2.08,5.97,1.59,11.38,3.96,16.33,7.37.59.4,1.21.91,1.56,1.52,3.7,6.36,5.1,12.62,1.56,19.21ZM634.44,140.66c-.98-.98-1.88-1.59-2.35-2.45-.61-1.15-.71-2.59-1.35-3.72-.66-1.14-1.7-2.05-2.59-3.04-.26-.27-.63-.44-.89-.73-2.24-2.49-3.4-2.63-6.34-.92-2.68,1.55-5.43,3.02-8.2,4.56h0c-2.67-3.52-2.15-6.93,1.26-9.07,1.1-.69,2.39-1.33,3.64-1.46,3.8-.39,6.66-2.4,9.34-4.84,1.69-1.55,3.4-3.07,5.27-4.75.71,1.68.4,2.94-.58,3.77-3.13,2.68-5.9,5.87-10.09,7.12-2.26.67-4.45,1.67-6.56,2.72-.57.27-1.21,1.48-1.03,1.92.49,1.18,1.41.38,2.13,0,2.41-1.26,4.83-2.49,7.19-3.82.93-.53,1.6-.67,2.41.21,2.6,2.82,5.39,5.49,7.85,8.42,1.22,1.46,1.73,3.41.89,6.09ZM646.18,137.91c-1.06.87-2.29,1.57-3.53,2.14-.5.23-1.25-.09-1.88-.16-.05-.28-.1-.56-.15-.84,6.94-4.73,12.53-11.76,21.68-12.82.18.14.36.3.54.45-.64.82-1.26,1.66-1.96,2.45-.19.22-.57.36-.88.4-5.8.8-9.61,4.91-13.82,8.38ZM715.54,158.12c16.9,3.34,34.05,1.93,51.08,2.91.08.35.17.7.26,1.05h0c-.86.48-1.68,1.13-2.59,1.37-.86.23-1.84.08-2.77.05-8.33-.26-16.66-.39-24.98-.83-6.53-.35-13.04-1.08-19.56-1.67-1.65-.16-2.09-1.14-1.43-2.89ZM760.99,176.24c-6.15.13-12.3.06-18.44.08-.73,0-1.52-.12-2.18.12-3.84,1.41-7.27.22-10.62-1.59-.7-.38-1.42-.73-2.1-1.13-1.37-.8-2.64-.91-4.23-.26-1.74.71-3.7,1.14-5.57,1.19-5.3.16-10.61.04-15.92.04-.53,0-1.04-.06-1.59-.1-.55-1.81.27-2.38,1.84-2.38,3.92,0,7.84-.08,11.74.04,3.66.1,7.26-.03,10.59-1.8,1.25-.66,2.24-.49,3.36.52,3.07,2.78,6.91,3.56,10.88,3.56,6.08,0,12.18-.1,18.28-.34,2.22-.08,4.41-.66,6.62-.97,1.11-.16,2.23-.21,3.34-.3.04.23.09.47.13.7-1.52,1.98-3.8,2.58-6.15,2.63Z"/>
          <path class="cls-1" d="M563.66,235.7h0s-.01-.01-.02-.01h.01Z"/>
          <path class="cls-1" d="M563.67,235.69s.04.01.05.02c0-.02-.01-.03-.02-.05l-.03.03Z"/>
          <path class="cls-1" d="M590.28,281.01c-3.87-11.14-7.89-22.24-11.99-33.3-.54-1.46-1.61-2.93-2.82-3.9-3.31-2.66-6.82-5.06-10.27-7.54-.42-.3-.98-.4-1.47-.57,1.8,3.96,3.75,7.87,5.34,11.92,5.76,14.61,11.38,29.3,17.12,43.92,1.32,3.37,2.91,6.63,4.45,10.08,2.76-1.87,4.25-4.16,3.49-7.24-1.11-4.49-2.32-8.99-3.84-13.37Z"/>
          <path class="cls-1" d="M531.72,355.44v7.3c.17.1.32.19.49.3,2.24-2.45,4.47-4.88,6.96-7.6h-7.45Z"/>
          <path class="cls-1" d="M557.63,342.1c2.68-.29,5.33-.58,8.21-.89h0c-.13-1.98-.27-4.21-.45-7.07-2.92,3.01-5.37,5.52-7.76,7.97Z"/>
          <path class="cls-1" d="M532.32,385.55c1.21-.76,2.46-1.53,3.62-2.38.64-.48,1.13-1.15,1.7-1.74-.05-.21-.1-.41-.16-.62-2.2-.31-4.42-.62-7.06-.98v4.75c.01,1.53.73,1.71,1.89.97Z"/>
          <path class="cls-1" d="M532.48,332.88v5.88c1.61-1.5,2.82-2.64,4.37-4.08-1.62-.66-2.95-1.22-4.37-1.8Z"/>
          <path class="cls-1" d="M558.69,281.16c1.2-1.8,5.46-1,4.2-5.16-1.54,1.88-2.88,3.52-4.2,5.16Z"/>
        </g>
        <path class="cls-2" d="M294.05,523.97c-44.06,0-75.49-14.69-97.01-36.21l26.64-37.92c16.05,16.74,40.99,31.08,72.42,31.08,26.98,0,39.62-11.96,39.62-25.28,0-39.62-131.17-11.96-131.17-97.69,0-37.92,32.79-69.34,86.42-69.34,36.21,0,66.27,10.93,88.81,31.77l-26.99,36.21c-18.45-17.08-43.04-24.93-66.27-24.93-20.49,0-32.11,8.88-32.11,22.54,0,35.87,130.83,11.61,130.83,96.67,0,41.67-30.06,73.1-91.2,73.1Z"/>
        <path class="cls-2" d="M834.24,523.97c-68.66,0-121.6-47.82-121.6-117.85s52.95-117.85,121.6-117.85c49.87,0,78.9,26.98,94.96,55.68l-41.67,20.49c-9.56-18.45-30.06-33.13-53.29-33.13-41.67,0-71.73,31.77-71.73,74.81s30.06,74.81,71.73,74.81c23.23,0,43.72-14.69,53.29-33.13l41.67,20.15c-16.05,28.35-45.09,56.02-94.96,56.02Z"/>
      </g>
      <g>
        <path class="cls-2" d="M0,805.81v-215.26h169.98v52.27H58.89v36.59h100.47v49.51H58.89v76.88H0Z"/>
        <path class="cls-2" d="M440.9,805.8v-215.26h100.46c30.96,0,54.03,7.69,69.21,23.06,12.55,12.71,18.82,29.73,18.82,51.04,0,31.57-14.57,53.61-43.71,66.12l50.69,75.03h-67.99l-42.8-65.19h-25.8v65.19h-58.89,0ZM499.78,693.87h38.86c9.92,0,17.65-2.31,23.22-6.92,5.57-4.61,8.35-11.02,8.35-19.22s-2.79-14.76-8.35-19.06c-5.56-4.31-13.4-6.46-23.52-6.46h-38.55v51.67h0Z"/>
        <path class="cls-2" d="M753.92,809.81c-31.16,0-55.35-8.2-72.54-24.6-17.2-16.4-25.8-41-25.8-73.81v-120.85h59.79v119.62c0,15.17,3.49,26.6,10.47,34.29,6.98,7.69,16.54,11.53,28.68,11.53s21.7-3.69,28.68-11.07c6.98-7.38,10.47-18.45,10.47-33.21v-121.16h59.79v119.31c0,33.62-8.76,58.68-26.25,75.18-17.51,16.5-41.94,24.76-73.3,24.76h0Z"/>
        <path class="cls-2" d="M890.65,805.8v-215.26h62.22l50.69,83.33,50.69-83.33h62.22v215.26h-58.58v-123.62l-54.33,84.26h-1.21l-54.03-83.65v123h-57.67Z"/>
        <path class="cls-1" d="M301.21,587.26c-10.86,0-21.35,1.62-31.27,4.59,2.11-.16,4.22-.28,6.37-.28,44.24,0,80.09,36.33,80.09,81.15s-35.86,81.14-80.09,81.14-80.09-36.33-80.09-81.14c0-3.29.22-6.53.59-9.72-3.8,11.31-5.89,23.41-5.89,36.02,0,61.71,49.39,111.74,110.3,111.74s110.3-50.02,110.3-111.74-49.38-111.75-110.3-111.75h0Z"/>
      </g>
    </g>
  </g>
</svg>